<svg width="42" height="17" viewBox="0 0 42 17" fill="none" xmlns="http://www.w3.org/2000/svg">
<g id="Group">
<path id="Vector" fill-rule="evenodd" clip-rule="evenodd" d="M3.78676 4.53924L2.97869 2.54338L2.17516 4.53924H3.78676ZM21.591 3.74444C21.4287 3.84441 21.2366 3.8476 21.0068 3.8476H19.5726V2.73552H21.0264C21.2321 2.73552 21.4469 2.74474 21.5861 2.82592C21.7397 2.89859 21.8345 3.05387 21.8345 3.26834C21.8345 3.48743 21.7442 3.66326 21.591 3.74444ZM31.8242 4.53924L31.007 2.54338L30.1944 4.53924H31.8242ZM12.7487 6.6996H11.5383L11.5341 2.77842L9.82179 6.6996H8.78494L7.06839 2.77522V6.6996H4.6669L4.21319 5.58291H1.75468L1.29642 6.6996H0.0139927L2.12828 1.69292H3.88296L5.89126 6.43336V1.69292H7.81874L9.36388 5.08943L10.7831 1.69292H12.7491L12.7487 6.6996ZM17.5734 6.6996H13.6288V1.69292H17.5734V2.73517H14.8098V3.63809H17.5069V4.66438H14.8098V5.66409H17.5734V6.6996ZM23.1351 3.0411C23.1351 3.83945 22.6093 4.25209 22.3029 4.37582C22.5614 4.47543 22.7821 4.65162 22.8871 4.79768C23.0539 5.04654 23.0826 5.26917 23.0826 5.71585V6.6996H21.8915L21.8873 6.06858C21.8873 5.76725 21.9156 5.33369 21.7009 5.09298C21.5284 4.91679 21.2653 4.8785 20.8403 4.8785H19.5722V6.6996H18.3916V1.69292H21.1076C21.711 1.69292 22.1556 1.70887 22.5373 1.93257C22.9109 2.15626 23.1348 2.48276 23.1348 3.04146L23.1351 3.0411ZM25.0248 6.6996H23.8197V1.69292H25.0248V6.6996ZM39.0021 6.6996H37.3289L35.0908 2.94184V6.6996H32.6861L32.2265 5.58291H29.7736L29.3279 6.6996H27.9461C27.3724 6.6996 26.6455 6.57091 26.2341 6.14586C25.8189 5.72081 25.6031 5.14509 25.6031 4.23437C25.6031 3.49203 25.7321 2.8128 26.2397 2.27679C26.6214 1.87691 27.2192 1.69292 28.0329 1.69292H29.1761V2.76565H28.0567C27.626 2.76565 27.3826 2.83053 27.1482 3.06237C26.9471 3.27295 26.8089 3.67177 26.8089 4.19644C26.8089 4.7328 26.9138 5.11957 27.1335 5.37233C27.3154 5.5705 27.6456 5.63041 27.9563 5.63041H28.4866L30.151 1.69292H31.92L33.9192 6.42911V1.69257H35.7173L37.7928 5.17983V1.69257H39.0021V6.6996ZM0 7.6837H2.01774L2.4725 6.57127H3.49117L3.94488 7.6837H7.91459V6.83289L8.26896 7.68689H10.3294L10.6837 6.82013V7.68335H20.5489L20.5444 5.85765H20.735C20.8686 5.86226 20.9078 5.87502 20.9078 6.09871V7.68335H26.0102V7.25794C26.4216 7.48164 27.0618 7.68335 27.9041 7.68335H30.0506L30.5099 6.57091H31.5282L31.9774 7.68335H36.114V6.62692L36.7402 7.68335H40.055V0.699951H36.7748V1.52488L36.3151 0.699951H32.9492V1.52488L32.5273 0.699951H27.9804C27.2192 0.699951 26.55 0.807721 26.0099 1.10763V0.699951H22.872V1.10763C22.5282 0.798503 22.0594 0.699951 21.5385 0.699951H10.0754L9.30616 2.50367L8.51628 0.699951H4.90617V1.52488L4.50913 0.699951H1.43005L0 4.02025V7.6837ZM42 11.3706H39.8479C39.6331 11.3706 39.4904 11.3787 39.3701 11.461C39.2455 11.5421 39.1976 11.6623 39.1976 11.8215C39.1976 12.0104 39.3026 12.1388 39.4558 12.1944C39.5803 12.2384 39.7143 12.2511 39.9109 12.2511L40.5511 12.2685C41.1965 12.2848 41.6278 12.3972 41.8909 12.6716C41.9384 12.7099 41.9671 12.7528 42 12.7957V11.3706ZM42 14.6724C41.7131 15.0975 41.1545 15.313 40.3978 15.313H38.1174V14.2389H40.3884C40.6137 14.2389 40.7714 14.2091 40.8662 14.1148C40.9484 14.0375 41.0062 13.9251 41.0062 13.7886C41.0062 13.6426 40.9484 13.5267 40.8617 13.4572C40.776 13.381 40.6515 13.3462 40.4454 13.3462C39.3368 13.3079 37.9537 13.381 37.9537 11.796C37.9537 11.0696 38.4088 10.3049 39.6478 10.3049H42V9.30876H39.8147C39.1553 9.30876 38.676 9.46828 38.3367 9.7175V9.3084H35.1044C34.5877 9.3084 33.9808 9.4385 33.694 9.7175V9.3084H27.922V9.7175C27.4627 9.38178 26.6875 9.3084 26.3296 9.3084H22.5226V9.7175C22.1591 9.36087 21.3507 9.3084 20.8585 9.3084H16.5974L15.6224 10.3779L14.7091 9.3084H8.34417V16.2964H14.5894L15.5941 15.2102L16.5404 16.2964L20.3901 16.3V14.6561H20.7686C21.2793 14.6643 21.8817 14.6433 22.4131 14.4104V16.2964H25.5884V14.475H25.7416C25.9371 14.475 25.9564 14.4831 25.9564 14.6813V16.2964H35.6019C36.214 16.2964 36.8542 16.1372 37.2089 15.849V16.2964H40.2684C40.9051 16.2964 41.527 16.2057 42 15.9738V14.6724ZM37.2904 12.6712C37.5202 12.9123 37.6437 13.2172 37.6437 13.7323C37.6437 14.81 36.9791 15.3127 35.7887 15.3127H33.4879V14.2385H35.7785C36.0024 14.2385 36.1616 14.2087 36.2613 14.1144C36.3421 14.0371 36.4005 13.9248 36.4005 13.7883C36.4005 13.6422 36.3375 13.5263 36.2564 13.4568C36.1661 13.3806 36.0416 13.3459 35.8359 13.3459C34.7315 13.3076 33.3487 13.3806 33.3487 11.7956C33.3487 11.0692 33.7989 10.3046 35.0369 10.3046H37.4041V11.3706H35.238C35.0233 11.3706 34.8837 11.3787 34.7651 11.461C34.6357 11.5421 34.5877 11.6623 34.5877 11.8211C34.5877 12.0101 34.6976 12.1388 34.8459 12.1944C34.9704 12.2384 35.1044 12.2511 35.3056 12.2511L35.9412 12.2685C36.582 12.2845 37.0221 12.3968 37.2897 12.6712H37.2904ZM26.6357 12.3621C26.4776 12.4571 26.2824 12.4649 26.0526 12.4649H24.6183V11.3404H26.0722C26.282 11.3404 26.4926 11.3447 26.6354 11.4308C26.7886 11.512 26.8802 11.6669 26.8802 11.881C26.8802 12.0955 26.7889 12.2682 26.6357 12.3621ZM27.3486 12.9853C27.6117 13.0835 27.8265 13.2597 27.9272 13.4058C28.0937 13.6504 28.1179 13.8783 28.1228 14.3197V15.3123H26.9373V14.6859C26.9373 14.3846 26.9659 13.9386 26.7466 13.7057C26.5738 13.5263 26.3111 13.4834 25.8801 13.4834H24.6183V15.3127H23.4317V10.3046H26.1579C26.7557 10.3046 27.1912 10.3311 27.5785 10.5407C27.9514 10.769 28.1857 11.0816 28.1857 11.6527C28.1857 12.4522 27.6596 12.8602 27.3486 12.9853ZM28.8403 10.3046H32.7813V11.3401H30.0163V12.2508H32.7138V13.2725H30.0163V14.2686L32.7813 14.2732V15.3127H28.8399L28.8403 10.3046ZM20.8739 12.6159H19.3476V11.3404H20.8875C21.3136 11.3404 21.6096 11.5163 21.6096 11.9544C21.6096 12.3876 21.3276 12.6159 20.8739 12.6159ZM18.1719 14.8571L16.3588 12.8173L18.1719 10.842V14.8571ZM13.49 14.2686H10.5868V13.2725H13.179V12.2508H10.5868V11.3401H13.5473L14.8389 12.7996L13.49 14.2686ZM22.8773 11.9544C22.8773 13.3455 21.8534 13.6327 20.8211 13.6327H19.3476V15.3127H17.0528L15.5987 13.6546L14.0875 15.3127H9.41006V10.3046H14.1595L15.6123 11.9459L17.1141 10.3046H20.8875C21.8243 10.3046 22.8773 10.5672 22.8773 11.9544Z" fill="white"/>
</g>
</svg>
