<svg width="27" height="18" viewBox="0 0 27 18" fill="none" xmlns="http://www.w3.org/2000/svg">
<g clip-path="url(#clip0_164_4594)">
<path d="M0 0H27V18H0V0Z" fill="#10338C"/>
<path d="M11.6948 8.98431C11.7106 8.96852 11.7212 8.95273 11.7369 8.93694C11.7264 8.95273 11.7106 8.96852 11.6948 8.98431ZM9.89484 11.1896L10.4738 12.3948L11.7738 12.0948L11.1948 13.2948L12.2422 14.1264L10.9369 14.4212L10.9422 15.758L9.89484 14.9212L8.85273 15.758L8.858 14.4212L7.55273 14.1264L8.6001 13.2948L8.01589 12.0948L9.32116 12.3948L9.89484 11.1896ZM20.3106 12.6896L20.5843 13.2633L21.2054 13.1212L20.9264 13.6948L21.4264 14.0896L20.8054 14.2264V14.8685L20.3106 14.4685L19.8106 14.8685L19.8159 14.2264L19.1948 14.0896L19.6948 13.6948L19.4159 13.1212L20.0369 13.2633L20.3106 12.6896ZM17.7527 6.58431L18.0264 7.15799L18.6475 7.01589L18.3685 7.58957L18.8685 7.98431L18.2475 8.12641V8.76326L17.7527 8.36326L17.2527 8.76326L17.258 8.12641L16.6317 7.98431L17.1317 7.58957L16.8527 7.01589L17.4738 7.15799L17.7527 6.58431ZM20.3106 3.1001L20.5843 3.67378L21.2054 3.53168L20.9264 4.10536L21.4264 4.5001L20.8054 4.6422V5.27905L20.3106 4.87904L19.8106 5.27905L19.8159 4.6422L19.1948 4.5001L19.6948 4.10536L19.4159 3.53168L20.0369 3.67378L20.3106 3.1001ZM22.5475 5.71589L22.8212 6.28957L23.4422 6.14747L23.1633 6.72115L23.6633 7.11589L23.0422 7.25273V7.89483L22.5475 7.49483L22.0475 7.89483V7.25273L21.4264 7.11589L21.9264 6.72115L21.6475 6.14747L22.2685 6.28957L22.5475 5.71589ZM20.9475 8.76326L21.1633 9.43168H21.8633L21.2948 9.8422L21.5159 10.5106L20.9475 10.0948L20.3791 10.5106L20.5948 9.8422L20.0317 9.43168H20.7317L20.9475 8.76326Z" fill="white"/>
<path d="M13.4102 0V1.61053L11.0365 2.93158H13.4102V6.05263H10.2997L13.4102 7.77895V8.98421H12.0049L8.13652 6.83158V8.98421H5.21021V6.42632L0.610208 8.98421H-0.0634766V7.37368L2.31547 6.05263H-0.0634766V2.93158H3.04705L-0.0634766 1.2V0H1.34179L5.21021 2.14737V0H8.13652V2.55789L12.7418 0H13.4102Z" fill="white"/>
<path d="M7.51547 0H5.83126V3.64737H-0.0634766V5.33158H5.83126V8.98421H7.51547V5.33158H13.4102V3.64737H7.51547V0Z" fill="#D80027"/>
<path d="M8.13672 6.05273L13.4104 8.98431V8.15273L9.63146 6.05273H8.13672Z" fill="#0052B4"/>
<path d="M8.13672 6.05273L13.4104 8.98431V8.15273L9.63146 6.05273H8.13672Z" fill="white"/>
<path d="M8.13652 6.05273L13.4102 8.98431V8.15273L9.63126 6.05273H8.13652ZM3.72073 6.05273L-0.0634766 8.15273V8.98431L5.21021 6.05273H3.72073Z" fill="#D80027"/>
<path d="M5.21021 2.93158L-0.0634766 0V0.826316L3.72073 2.93158H5.21021Z" fill="#0052B4"/>
<path d="M5.21021 2.93158L-0.0634766 0V0.826316L3.72073 2.93158H5.21021Z" fill="white"/>
<path d="M5.21021 2.93158L-0.0634766 0V0.826316L3.72073 2.93158H5.21021ZM9.63126 2.93158L13.4102 0.826316V0L8.13652 2.93158H9.63126Z" fill="#D80027"/>
</g>
<defs>
<clipPath id="clip0_164_4594">
<rect width="27" height="18" rx="2" fill="white"/>
</clipPath>
</defs>
</svg>
