<svg width="31" height="29" viewBox="0 0 31 29" fill="none" xmlns="http://www.w3.org/2000/svg">
<g id="surface1">
<path id="Vector" fill-rule="evenodd" clip-rule="evenodd" d="M29.6611 8.13948C29.3258 7.10022 28.6986 6.10503 27.7942 5.20336C25.1453 2.55176 20.5334 0.970825 15.4593 0.970825C11.6356 0.970825 8.03085 1.87517 5.3118 3.51689C3.01219 4.90347 1.56283 6.68611 1.12067 8.63173C0.685866 9.93816 0.454102 11.4389 0.454102 14.3183V26.5317C0.454102 26.9404 0.613064 27.3278 0.903604 27.6197C1.19748 27.9102 1.5822 28.0705 1.99229 28.0705H28.9638C29.3745 28.0705 29.7606 27.9102 30.0538 27.6197C30.3443 27.3278 30.5046 26.9404 30.5046 26.5317V14.3183C30.5046 11.0736 30.2087 9.58016 29.6611 8.13948Z" fill="#BA8750"/>
<path id="Vector_2" fill-rule="evenodd" clip-rule="evenodd" d="M3.82173 5.89866C6.25358 3.4668 10.7139 1.95667 15.4594 1.95667C20.2075 1.95667 24.6658 3.4668 27.0997 5.89866C27.8344 6.63469 28.358 7.43151 28.6592 8.25704L28.6499 8.26038C28.6773 8.32316 28.7026 8.38728 28.7247 8.4514C28.8803 8.93096 28.9605 9.4212 28.9605 9.91145C28.9605 14.2989 22.9045 17.8696 15.4594 17.8696C10.7139 17.8696 6.25358 16.3574 3.82173 13.9262C2.60413 12.7066 1.96094 11.3201 1.96094 9.91145C1.96094 9.56748 1.99968 9.2235 2.07649 8.88287C2.14728 8.67248 2.22409 8.4661 2.30625 8.26038L2.2655 8.24435C2.56873 7.42282 3.09104 6.63135 3.82173 5.89866Z" fill="#ED1C24"/>
<path id="Vector_3" fill-rule="evenodd" clip-rule="evenodd" d="M29.5182 26.5317C29.5182 26.8376 29.2711 27.086 28.9638 27.086H1.99235C1.84474 27.086 1.70715 27.0279 1.60229 26.9224C1.49743 26.8176 1.43799 26.68 1.43799 26.5317V14.3183C1.43799 13.5442 1.45602 12.8783 1.49008 12.2899C1.85009 13.1101 2.39911 13.8955 3.12512 14.6236C5.77538 17.2705 10.386 18.8554 15.4594 18.8554C20.5335 18.8554 25.1454 17.2705 27.7943 14.6236C28.5437 13.8748 29.1027 13.0613 29.4647 12.2131C29.5008 12.8195 29.5182 13.5108 29.5182 14.3183V26.5317Z" fill="white"/>
<path id="Vector_4" fill-rule="evenodd" clip-rule="evenodd" d="M10.7582 4.8006H8.36638C6.90432 4.8006 6.50358 5.19266 6.16963 6.78295L4.84717 13.0025H7.806L9.07235 7.05546C9.39829 5.733 9.62872 5.0711 10.7582 4.8006Z" fill="white"/>
<path id="Vector_5" fill-rule="evenodd" clip-rule="evenodd" d="M11.1689 4.79858C11.1689 4.79858 13.4772 4.79858 14.0015 4.79858C15.4629 4.79858 16.5869 7.37938 13.0156 8.48878C16.4327 10.9046 14.2319 15.7536 9.08968 15.417C8.35164 15.3669 7.39653 15.417 5.71875 14.8159C12.2455 14.4004 13.0317 9.30362 9.44501 8.28707C12.645 7.71868 13.6168 5.11584 11.1689 4.79858Z" fill="white"/>
<path id="Vector_6" fill-rule="evenodd" clip-rule="evenodd" d="M25.1614 4.78058C25.1614 4.78058 21.2662 4.78058 20.665 4.78058C18.282 4.78058 16.6028 5.85524 16.0799 7.71871C15.8855 8.40331 15.4453 9.92948 15.3705 10.4284C14.9711 13.1221 16.2174 15.6147 19.9738 15.6147C20.6043 15.6147 22.9613 15.6147 22.9613 15.6147L23.2686 14.5394C23.2686 14.5394 21.514 14.5394 21.1753 14.5394C18.6186 14.5394 18.127 12.0134 18.2659 11.306C18.3354 10.942 18.8063 8.41533 18.8811 8.11945C19.2357 6.71684 20.4193 5.86994 22.0062 5.86994C22.4377 5.86994 23.885 5.86994 24.1609 5.86994C24.8996 5.86994 25.1307 5.23943 25.1614 4.78058Z" fill="white"/>
<path id="Vector_7" fill-rule="evenodd" clip-rule="evenodd" d="M6.88629 24.7116L6.74202 25.98H5.62061L6.48555 19.9962H7.87613L8.7404 25.98H7.62633L7.46937 24.7116H6.88629ZM6.95776 23.9402H7.38923L7.20221 21.5972H7.18752L6.95776 23.9402Z" fill="#005BAA"/>
<path id="Vector_8" fill-rule="evenodd" clip-rule="evenodd" d="M20.4639 24.7116L20.321 25.98H19.1982L20.0639 19.9962H21.4531L22.3194 25.98H21.204L21.0463 24.7116H20.4639ZM20.5354 23.9402H20.9669L20.7812 21.5972H20.7652L20.5354 23.9402Z" fill="#005BAA"/>
<path id="Vector_9" fill-rule="evenodd" clip-rule="evenodd" d="M11.0138 19.9962H11.9956V25.98H10.7974L10.0273 23.1948H10.0133V25.98H9.03076V19.9962H10.243L10.9991 22.9878H11.0138V19.9962Z" fill="#005BAA"/>
<path id="Vector_10" fill-rule="evenodd" clip-rule="evenodd" d="M13.4845 22.8281H13.4992L14.1404 19.9962H15.2692L14.5398 22.9297L15.2906 25.98H14.1618L13.4992 23.0312H13.4845V25.98H12.3438V19.9962H13.4845V22.8281Z" fill="#005BAA"/>
<path id="Vector_11" fill-rule="evenodd" clip-rule="evenodd" d="M18.989 22.0073V20.7022C18.989 20.3175 18.6738 20.0042 18.2904 20.0042H16.807C16.4243 20.0042 16.1104 20.3175 16.1104 20.7022V25.2807C16.1104 25.6621 16.4243 25.98 16.807 25.98H18.2904C18.6738 25.98 18.989 25.6621 18.989 25.2807V23.5321H17.891V24.7383C17.891 24.9133 17.7554 25.0062 17.6058 25.0062C17.4101 25.0062 17.3193 24.9133 17.3193 24.5867V21.3888C17.3193 21.0608 17.4101 20.9713 17.6058 20.9713C17.7554 20.9713 17.891 21.0608 17.891 21.2392V22.0073H18.989Z" fill="#005BAA"/>
<path id="Vector_12" fill-rule="evenodd" clip-rule="evenodd" d="M25.4733 21.9345V21.2232C25.4733 20.264 25.0438 19.9962 24.0794 19.9962H22.6694V25.98H23.7708V23.3999H23.9405C24.1669 23.3999 24.2591 23.4961 24.2591 23.6998V25.98H25.4666V23.9756C25.4666 23.3605 25.4539 23.0238 24.8401 22.8455V22.8281C25.3384 22.7453 25.4733 22.2945 25.4733 21.9345ZM24.3379 22.1322C24.3379 22.4568 24.0827 22.5496 23.8436 22.5496V20.9714C24.0827 20.9714 24.3379 21.0609 24.3379 21.3888V22.1322Z" fill="#005BAA"/>
<path id="Vector_13" fill-rule="evenodd" clip-rule="evenodd" d="M4.72732 22.8455V22.8281C5.28369 22.6438 5.42796 22.4067 5.42796 21.7381V21.2232C5.42796 20.1285 5.15345 19.9962 4.16227 19.9962H2.50586V25.98H4.19433C5.24963 25.98 5.45801 25.7743 5.45801 24.7544V23.8594C5.45801 23.0846 5.29771 22.8455 4.72732 22.8455ZM4.27248 24.5867C4.27248 24.9134 4.016 25.0062 3.77756 25.0062V23.275C4.016 23.275 4.27248 23.3638 4.27248 23.6924V24.5867ZM4.27248 21.9218C4.27248 22.2464 4.016 22.3406 3.77756 22.3406V20.9714C4.016 20.9714 4.27248 21.0609 4.27248 21.3888V21.9218Z" fill="#005BAA"/>
<path id="Vector_14" fill-rule="evenodd" clip-rule="evenodd" d="M27.8856 20.0042H25.8926V25.98H27.8856C28.3324 25.98 28.6878 25.6694 28.6878 25.2092V20.7723C28.6878 20.2781 28.3792 20.0042 27.8856 20.0042ZM27.5109 24.5867C27.5109 24.9133 27.2544 25.0062 27.0173 25.0062V20.9713C27.2544 20.9713 27.5109 21.0608 27.5109 21.3888V24.5867Z" fill="#005BAA"/>
</g>
</svg>
