<svg width="42" height="42" viewBox="0 0 42 42" fill="none" xmlns="http://www.w3.org/2000/svg">
<circle cx="21" cy="21" r="21" fill="url(#paint0_linear_565_1000)"/>
<path d="M14.5729 27.429C14.3132 27.429 14.0953 27.341 13.9193 27.165C13.7439 26.9896 13.6563 26.7721 13.6563 26.5124C13.6563 26.2526 13.7439 26.0351 13.9193 25.8597C14.0953 25.6837 14.3132 25.5957 14.5729 25.5957H15.4896L15.4896 19.179C15.4896 17.911 15.8715 16.7841 16.6354 15.7984C17.3993 14.8133 18.3924 14.1679 19.6146 13.8624L19.6146 13.2207C19.6146 12.8388 19.7484 12.5143 20.0161 12.2472C20.2831 11.9795 20.6076 11.8457 20.9896 11.8457C21.3715 11.8457 21.696 11.9795 21.9631 12.2472C22.2308 12.5143 22.3646 12.8388 22.3646 13.2207L22.3646 13.8624C23.5868 14.1679 24.5799 14.8133 25.3438 15.7984C26.1076 16.7841 26.4896 17.911 26.4896 19.179L26.4896 25.5957H27.4063C27.666 25.5957 27.8835 25.6837 28.0589 25.8597C28.2349 26.0351 28.3229 26.2526 28.3229 26.5124C28.3229 26.7721 28.2349 26.9896 28.0589 27.165C27.8835 27.341 27.666 27.429 27.4063 27.429H14.5729ZM20.9896 30.179C20.4854 30.179 20.054 29.9997 19.6953 29.641C19.3359 29.2816 19.1563 28.8499 19.1563 28.3457H22.8229C22.8229 28.8499 22.6436 29.2816 22.2848 29.641C21.9255 29.9997 21.4938 30.179 20.9896 30.179Z" fill="white"/>
<defs>
<linearGradient id="paint0_linear_565_1000" x1="0" y1="0" x2="48.8938" y2="48.8873" gradientUnits="userSpaceOnUse">
<stop stop-color="#AD00FF"/>
<stop offset="1" stop-color="#007EE0"/>
</linearGradient>
</defs>
</svg>
