<svg width="42" height="42" viewBox="0 0 42 42" fill="none" xmlns="http://www.w3.org/2000/svg">
<circle cx="21" cy="21" r="21" fill="url(#paint0_linear_565_1004)"/>
<path d="M10.5341 31.7971C10.9164 30.9985 11.1785 30.1496 11.3123 29.2768C11.5388 27.7709 11.3651 26.233 10.8081 24.8125C9.48729 21.3067 9.74487 17.9517 11.8823 14.8444C12.9384 13.1977 14.4445 11.8761 16.2287 11.0305C18.0128 10.1849 20.003 9.84938 21.9719 10.0623C24.3966 10.2693 26.6821 11.2634 28.4683 12.8879C30.2544 14.5123 31.4395 16.6747 31.8368 19.0341C32.3221 21.7573 31.7154 24.5593 30.1439 26.8525C28.5724 29.1457 26.1582 30.7518 23.4078 31.334C21.0826 31.8626 18.6443 31.6124 16.4804 30.6232C16.2384 30.4928 15.9594 30.4448 15.6867 30.4867C15.4141 30.5286 15.1632 30.658 14.9733 30.8547C14.378 31.3732 13.6569 31.7323 12.8793 31.8974C12.1018 32.0624 11.2941 32.0279 10.5341 31.7971ZM28.4663 20.8651C28.4664 20.4517 28.3008 20.055 28.0054 19.7607C27.71 19.4664 27.3086 19.2982 26.8879 19.2926C26.4663 19.2911 26.0612 19.4532 25.7605 19.7436C25.4598 20.034 25.2879 20.4293 25.2821 20.8435C25.2835 21.257 25.4494 21.6535 25.7443 21.9483C26.0392 22.2432 26.4399 22.413 26.8605 22.4214C27.2826 22.4215 27.6878 22.2582 27.9883 21.9669C28.2888 21.6756 28.4606 21.2798 28.4663 20.8651ZM22.5967 20.8651C22.5989 20.658 22.559 20.4525 22.4794 20.2608C22.3997 20.069 22.2819 19.8948 22.1329 19.7483C21.9838 19.6019 21.8065 19.4861 21.6114 19.4079C21.4162 19.3296 21.2071 19.2904 20.9964 19.2926C20.5749 19.2926 20.1706 19.4571 19.8725 19.75C19.5745 20.0429 19.407 20.4401 19.407 20.8543C19.407 21.0594 19.4481 21.2625 19.528 21.452C19.6079 21.6414 19.725 21.8136 19.8725 21.9586C20.0201 22.1036 20.1953 22.2187 20.3882 22.2972C20.581 22.3756 20.7877 22.416 20.9964 22.416C21.206 22.4175 21.4139 22.3781 21.608 22.3003C21.8021 22.2224 21.9786 22.1076 22.1273 21.9624C22.2761 21.8173 22.3941 21.6446 22.4747 21.4545C22.5552 21.2643 22.5967 21.0603 22.5967 20.8543V20.8651ZM16.7325 20.8651C16.7347 20.6602 16.6957 20.457 16.6178 20.267C16.5398 20.077 16.4245 19.904 16.2783 19.7579C16.1322 19.6118 15.9582 19.4955 15.7662 19.4157C15.5742 19.3358 15.3681 19.294 15.1596 19.2926C14.9509 19.2912 14.7439 19.3302 14.5506 19.4073C14.3572 19.4845 14.1812 19.5984 14.0326 19.7424C13.884 19.8864 13.7657 20.0578 13.6845 20.2467C13.6033 20.4356 13.5607 20.6384 13.5593 20.8435C13.5571 21.0484 13.5961 21.2516 13.6741 21.4416C13.752 21.6316 13.8674 21.8046 14.0135 21.9507C14.1596 22.0968 14.3337 22.2131 14.5257 22.2929C14.7176 22.3728 14.9238 22.4146 15.1322 22.416C15.3409 22.4175 15.5479 22.3785 15.7413 22.3013C15.9347 22.2241 16.1107 22.1103 16.2593 21.9662C16.4079 21.8222 16.5262 21.6508 16.6074 21.4619C16.6886 21.273 16.7311 21.0702 16.7325 20.8651Z" fill="white"/>
<defs>
<linearGradient id="paint0_linear_565_1004" x1="0" y1="0" x2="48.8938" y2="48.8873" gradientUnits="userSpaceOnUse">
<stop stop-color="#AD00FF"/>
<stop offset="1" stop-color="#007EE0"/>
</linearGradient>
</defs>
</svg>
