<svg width="32" height="32" viewBox="0 0 32 32" fill="none" xmlns="http://www.w3.org/2000/svg">
<rect width="32" height="32" rx="6" fill="url(#paint0_linear_571_1186)"/>
<path opacity="0.598982" d="M23.9046 11.6567L21.9046 8.32333C21.7841 8.12276 21.5673 8 21.3333 8H10.6667C10.4327 8 10.2158 8.12276 10.0953 8.32333L8.09534 11.6567C8.033 11.7603 8 11.879 8 12C7.99743 13.4694 9.18594 14.663 10.6553 14.6667H10.6607C11.3192 14.6683 11.9547 14.4247 12.4433 13.9833C13.4526 14.8955 14.9887 14.8955 15.998 13.9833C17.0078 14.8976 18.5462 14.8976 19.556 13.9833C20.3378 14.6886 21.4618 14.8667 22.4233 14.4376C23.3848 14.0085 24.0029 13.0529 24 12C24 11.879 23.967 11.7603 23.9046 11.6567Z" fill="white"/>
<path d="M21.344 15.6561C20.7243 15.6566 20.1129 15.494 19.558 15.1808L19.548 15.1861C18.6019 15.7217 17.5065 15.8061 16.5053 15.4207C16.3319 15.3546 16.1626 15.2752 15.9987 15.1831L15.9913 15.1869C15.0455 15.7228 13.9502 15.807 12.9493 15.4207C12.7761 15.3546 12.6071 15.2752 12.4433 15.1831C11.8894 15.4954 11.2791 15.6573 10.6607 15.6561C10.4392 15.6537 10.2182 15.6309 10 15.588V23.224C10 23.642 10.2985 23.9808 10.6667 23.9808H14.6667V19.4401H17.3333V23.9808H21.3333C21.7015 23.9808 22 23.642 22 23.224V15.585C21.7834 15.629 21.564 15.6528 21.344 15.6561Z" fill="white"/>
<defs>
<linearGradient id="paint0_linear_571_1186" x1="0" y1="0" x2="37.2524" y2="37.2475" gradientUnits="userSpaceOnUse">
<stop stop-color="#AD00FF"/>
<stop offset="1" stop-color="#007EE0"/>
</linearGradient>
</defs>
</svg>
