<svg width="36" height="25" viewBox="0 0 36 25" fill="none" xmlns="http://www.w3.org/2000/svg">
<g id="Group">
<g id="Group_2">
<path id="Vector" d="M19.5773 17.0445C24.1244 17.0662 28.275 13.3294 28.275 8.7838C28.275 3.81274 24.1244 0.376478 19.5773 0.37793H15.6641C11.0618 0.376478 7.2749 3.81346 7.2749 8.7838C7.2749 13.3301 11.0618 17.0662 15.6633 17.0445H19.5773Z" fill="#4186CD"/>
<path id="Vector_2" d="M15.6067 1.04443C11.3733 1.04589 7.94213 4.47706 7.94141 8.71121C7.94213 12.9454 11.3733 16.3765 15.6075 16.378C19.8423 16.3765 23.2742 12.9454 23.2742 8.71121C23.2742 4.47706 19.8423 1.04589 15.6075 1.04443H15.6067ZM10.9413 8.54495C10.945 6.49176 12.1879 4.7406 13.9412 4.04434V13.0448C12.1879 12.3493 10.945 10.5989 10.9413 8.54495ZM17.2744 13.0448V4.04434C19.027 4.73842 20.2714 6.4903 20.2743 8.54422C20.2714 10.5989 19.027 12.3486 17.2744 13.0448Z" fill="white"/>
<path id="Vector_3" d="M0.984223 19.8092C0.984223 19.1216 0.62194 19.1674 0.274902 19.1594V18.9612C0.575475 18.9757 0.884758 18.9757 1.18533 18.9757C1.50986 18.9757 1.94983 18.9612 2.52121 18.9612C4.51994 18.9612 5.60825 20.2825 5.60825 21.6358C5.60825 22.3924 5.16102 24.2945 2.42828 24.2945C2.03478 24.2945 1.67176 24.28 1.30948 24.28C0.961715 24.28 0.62194 24.2873 0.274902 24.2945V24.0963C0.737377 24.0498 0.961716 24.0346 0.984223 23.5155V19.8092ZM1.6086 23.3282C1.6086 23.8945 2.03042 23.9613 2.4065 23.9613C4.064 23.9613 4.60852 22.7612 4.60852 21.6642C4.60852 20.2883 3.6872 19.2944 2.20684 19.2944C1.89175 19.2944 1.74727 19.3162 1.6086 19.3235V23.3282ZM5.60825 24.105H5.75563C5.97344 24.105 6.12953 24.105 6.12953 23.8633V21.8878C6.12953 21.5669 6.01337 21.5226 5.72441 21.3774V21.2605C6.09032 21.1574 6.52739 21.0202 6.55788 20.9977C6.61306 20.9686 6.65953 20.9614 6.69873 20.9614C6.73721 20.9614 6.75318 21.0049 6.75318 21.0637V23.8633C6.75318 24.105 6.92452 24.105 7.14233 24.105H7.27519V24.2938C7.00947 24.2938 6.73721 24.2793 6.45697 24.2793C6.17672 24.2793 5.89575 24.2865 5.60825 24.2938V24.105ZM6.27474 19.6276C6.18647 19.6238 6.10295 19.5866 6.04108 19.5235C5.97921 19.4604 5.94362 19.3762 5.94149 19.2879C5.94149 19.118 6.10485 18.9612 6.27474 18.9612C6.36207 18.9611 6.44593 18.9953 6.50836 19.0564C6.57078 19.1175 6.60681 19.2006 6.60871 19.2879C6.60872 19.377 6.57372 19.4625 6.51125 19.5261C6.44878 19.5897 6.36384 19.6261 6.27474 19.6276ZM8.08979 21.9313C8.08979 21.6612 8.00992 21.5886 7.66724 21.45V21.312C7.98088 21.2097 8.28 21.1145 8.63067 20.9614C8.65245 20.9614 8.67423 20.9759 8.67423 21.034V21.508C9.09097 21.2096 9.4489 20.9614 9.93896 20.9614C10.559 20.9614 10.7782 21.4137 10.7782 21.9821V23.8633C10.7782 24.105 10.938 24.105 11.1434 24.105H11.2748V24.2938C11.0186 24.2938 10.763 24.2793 10.5009 24.2793C10.2374 24.2793 9.97453 24.2865 9.71172 24.2938V24.105H9.8424C10.0479 24.105 10.1931 24.105 10.1931 23.8633V21.9756C10.1931 21.5589 9.93896 21.3548 9.5215 21.3548C9.28845 21.3548 8.916 21.5443 8.67351 21.7055V23.8633C8.67351 24.105 8.83541 24.105 9.04015 24.105H9.17083V24.2938C8.916 24.2938 8.65971 24.2793 8.39689 24.2793C8.13407 24.2793 7.87053 24.2865 7.60843 24.2938V24.105H7.73984C7.94458 24.105 8.09051 24.105 8.09051 23.8633L8.08979 21.9313ZM11.9137 22.3669C11.897 22.4374 11.897 22.5535 11.9137 22.8185C11.9602 23.5554 12.4481 24.1617 13.0855 24.1617C13.5248 24.1617 13.8689 23.9286 14.1637 23.6411L14.2748 23.75C13.9074 24.2241 13.4529 24.6278 12.7988 24.6278C11.5304 24.6278 11.2748 23.4313 11.2748 22.9347C11.2748 21.4115 12.3276 20.9614 12.8866 20.9614C13.5328 20.9614 14.2276 21.357 14.2348 22.1811C14.2348 22.2275 14.2348 22.274 14.2276 22.3212L14.155 22.3677H11.9137V22.3669ZM13.3781 21.9611C13.5836 21.9611 13.6083 21.887 13.6083 21.8188C13.6083 21.5284 13.3527 21.2946 12.8895 21.2946C12.3871 21.2946 12.0401 21.5502 11.9413 21.9611H13.3781ZM14.2748 24.105H14.4599C14.6508 24.105 14.7873 24.105 14.7873 23.8633V21.8144C14.7873 21.5894 14.5347 21.5443 14.4316 21.4863V21.3774C14.9311 21.1508 15.2055 20.9614 15.2672 20.9614C15.3079 20.9614 15.3282 20.9831 15.3282 21.0557V21.7128H15.3427C15.5133 21.4282 15.8016 20.9614 16.2183 20.9614C16.3897 20.9614 16.6082 21.0848 16.6082 21.3476C16.6082 21.5444 16.4782 21.7201 16.2873 21.7201C16.0738 21.7201 16.0738 21.5444 15.835 21.5444C15.7188 21.5444 15.3355 21.7128 15.3355 22.1506V23.864C15.3355 24.105 15.472 24.105 15.6636 24.105H16.047V24.2938C15.6702 24.2865 15.3841 24.2793 15.0886 24.2793C14.8091 24.2793 14.5209 24.2865 14.2755 24.2938L14.2748 24.105ZM17.0794 23.4313C17.1788 23.9439 17.4845 24.3795 18.0435 24.3795C18.4937 24.3795 18.6628 24.0999 18.6628 23.8277C18.6628 22.9107 16.9952 23.2062 16.9952 21.956C16.9952 21.5204 17.34 20.9614 18.1807 20.9614C18.4254 20.9614 18.7543 21.0318 19.052 21.1864L19.1064 21.9785H18.9307C18.8545 21.4899 18.5866 21.2097 18.0958 21.2097C17.7909 21.2097 17.5005 21.389 17.5005 21.7222C17.5005 22.6319 19.2749 22.3517 19.2749 23.5707C19.2749 24.0832 18.869 24.6278 17.9586 24.6278C17.6529 24.6278 17.2936 24.5189 17.0256 24.3642L16.9414 23.4712L17.0794 23.4313ZM25.9339 20.4873H25.7481C25.6058 19.5768 24.9872 19.2109 24.1523 19.2109C23.2941 19.2109 22.049 19.8099 22.049 21.6772C22.049 23.2505 23.1235 24.3787 24.2713 24.3787C25.009 24.3787 25.6217 23.8495 25.7706 23.032L25.9412 23.0784L25.7706 24.2147C25.4569 24.4179 24.6147 24.6278 24.1225 24.6278C22.3779 24.6278 21.275 23.4523 21.275 21.7019C21.275 20.1054 22.6385 18.9612 24.1 18.9612C24.704 18.9612 25.2856 19.1645 25.8591 19.375L25.9339 20.4873ZM26.2751 24.1014H26.4225C26.6403 24.1014 26.7972 24.1014 26.7972 23.856V19.7257C26.7972 19.2436 26.6803 19.2291 26.3833 19.147V19.0287C26.6955 18.9329 27.0222 18.7985 27.1863 18.7092C27.2712 18.6657 27.3344 18.6279 27.3569 18.6279C27.4048 18.6279 27.4201 18.6729 27.4201 18.7325V23.856C27.4201 24.1014 27.5914 24.1014 27.81 24.1014H27.9414V24.2945C27.6778 24.2945 27.4048 24.28 27.1239 24.28C26.8436 24.28 26.5634 24.2873 26.2744 24.2945L26.2751 24.1014ZM31.1054 23.7834C31.1054 23.9155 31.1867 23.9221 31.3123 23.9221C31.4009 23.9221 31.5112 23.9148 31.6078 23.9148V24.0687C31.2898 24.0978 30.6835 24.2509 30.5427 24.2938L30.5064 24.272V23.6825C30.0635 24.039 29.7223 24.2945 29.1974 24.2945C28.7981 24.2945 28.3842 24.039 28.3842 23.4269V21.5589C28.3842 21.3701 28.3552 21.1872 27.9414 21.1509V21.0122C28.2078 21.0049 28.7981 20.9614 28.8946 20.9614C28.9767 20.9614 28.9767 21.0122 28.9767 21.1719V23.0538C28.9767 23.273 28.9767 23.9003 29.6192 23.9003C29.8704 23.9003 30.2029 23.7108 30.5129 23.456V21.4928C30.5129 21.3476 30.1586 21.2677 29.8929 21.1951V21.063C30.5572 21.0194 30.9725 20.9614 31.0458 20.9614C31.1054 20.9614 31.1054 21.0122 31.1054 21.092V23.7834ZM32.6503 21.5473C32.9633 21.2859 33.3865 20.9926 33.8178 20.9926C34.7268 20.9926 35.2749 21.7709 35.2749 22.6101C35.2749 23.6193 34.5227 24.6278 33.4018 24.6278C32.8224 24.6278 32.5168 24.4426 32.3127 24.3584L32.0782 24.5348L31.9142 24.4506C31.9839 23.9961 32.0231 23.5496 32.0231 23.0799V19.7685C32.0231 19.2675 31.9054 19.2516 31.6078 19.1673V19.0439C31.886 18.9573 32.1562 18.8466 32.4151 18.7129C32.5015 18.6664 32.5639 18.6279 32.5879 18.6279C32.6344 18.6279 32.6503 18.6744 32.6503 18.7368V21.5465V21.5473ZM32.6082 23.5133C32.6082 23.8037 32.8899 24.2945 33.4156 24.2945C34.2548 24.2945 34.6077 23.4901 34.6077 22.8091C34.6077 21.9829 33.9652 21.2946 33.3531 21.2946C33.0627 21.2946 32.8195 21.4783 32.6082 21.6547V23.5133Z" fill="white"/>
</g>
</g>
</svg>
