<svg width="34" height="23" viewBox="0 0 34 23" fill="none" xmlns="http://www.w3.org/2000/svg">
<path id="Vector" d="M4.61892 9.7181C4.61892 10.2272 4.44183 10.6465 4.08767 10.9759C3.80237 11.2355 3.36458 11.3652 2.7743 11.3652H2.52344V8.07098H2.7743C3.37442 8.07098 3.81221 8.20574 4.08767 8.47527C4.44183 8.78472 4.61892 9.199 4.61892 9.7181ZM30.8273 8.74481C30.8273 9.2639 30.5124 9.52344 29.8828 9.52344H29.6024V8.01106H29.8976C30.5174 8.01106 30.8273 8.25564 30.8273 8.74481ZM5.60765 9.71808C5.60765 8.97937 5.36169 8.37792 4.86978 7.91372C4.37789 7.44953 3.74335 7.21743 2.96614 7.21743H1.56423V12.2038H2.96616C3.69416 12.2038 4.27952 12.0141 4.72222 11.6348C5.31251 11.1257 5.60765 10.4868 5.60765 9.71808ZM6.05035 12.2038H7.00954V7.21743H6.05037V12.2038H6.05035ZM10.7726 10.6914C10.7726 10.2921 10.6717 9.98263 10.47 9.763C10.2684 9.54339 9.89699 9.33376 9.3559 9.1341C9.07061 9.03429 8.87632 8.93946 8.77302 8.84961C8.66972 8.75977 8.61807 8.64497 8.61807 8.50521C8.61807 8.34549 8.68448 8.21322 8.81729 8.1084C8.9501 8.00358 9.11981 7.95117 9.32642 7.95117C9.61171 7.95117 9.87241 8.08594 10.1085 8.35547L10.6103 7.69662C10.2069 7.32726 9.72482 7.14258 9.16406 7.14258C8.7312 7.14258 8.36719 7.27985 8.07204 7.55438C7.77691 7.82889 7.62934 8.16581 7.62934 8.56512C7.62934 8.9145 7.71788 9.19151 7.89496 9.39616C8.07205 9.6008 8.38686 9.78299 8.83941 9.94272C9.20342 10.0725 9.42477 10.1673 9.50347 10.2272C9.6904 10.347 9.78386 10.5167 9.78386 10.7363C9.78386 10.936 9.71499 11.1032 9.57724 11.238C9.43952 11.3727 9.26244 11.4401 9.04599 11.4401C8.57377 11.4401 8.22453 11.2205 7.99827 10.7812L7.37847 11.3802C7.81134 12.0191 8.37702 12.3385 9.07551 12.3385C9.57726 12.3385 9.98553 12.1863 10.3003 11.8818C10.6152 11.5774 10.7726 11.1805 10.7726 10.6914ZM14.875 12.0391V10.886C14.511 11.2554 14.1273 11.4401 13.724 11.4401C13.2419 11.4401 12.8459 11.2779 12.536 10.9534C12.2261 10.629 12.0712 10.2172 12.0712 9.71808C12.0712 9.23892 12.2261 8.83213 12.536 8.4977C12.8459 8.16329 13.2272 7.99609 13.6797 7.99609C14.1027 7.99609 14.5012 8.18575 14.875 8.56509V7.41209C14.4815 7.21244 14.088 7.11262 13.6944 7.11262C12.9664 7.11262 12.3491 7.36468 11.8425 7.86881C11.3358 8.37292 11.0825 8.98935 11.0825 9.71808C11.0825 10.4468 11.3333 11.0632 11.8351 11.5674C12.3368 12.0715 12.9517 12.3235 13.6797 12.3235C14.0929 12.3235 14.4913 12.2287 14.875 12.0391ZM33.0556 21.0833V13.1921C32.4161 13.5914 31.7053 14.0106 30.9232 14.4499C30.1411 14.8891 28.9728 15.4731 27.4184 16.2018C25.864 16.9306 24.2432 17.6169 22.556 18.2607C20.8688 18.9046 18.8151 19.576 16.395 20.2747C13.9748 20.9735 11.4957 21.5625 8.95746 22.0417H32.1111C32.3669 22.0417 32.5883 21.9468 32.7752 21.7572C32.9621 21.5675 33.0556 21.3429 33.0556 21.0833ZM20.4974 9.74804C20.4974 8.99933 20.2367 8.36044 19.7153 7.83136C19.1939 7.30229 18.5642 7.03775 17.8264 7.03775C17.0885 7.03775 16.4589 7.30229 15.9375 7.83136C15.4161 8.36044 15.1554 8.99933 15.1554 9.74804C15.1554 10.4967 15.4161 11.1356 15.9375 11.6647C16.4589 12.1938 17.0885 12.4583 17.8264 12.4583C18.5642 12.4583 19.1939 12.1938 19.7153 11.6647C20.2367 11.1356 20.4974 10.4967 20.4974 9.74804ZM22.7405 12.3385L24.8655 7.21743H23.8177L22.4896 10.5716L21.1762 7.21743H20.1285L22.224 12.3385H22.7405ZM25.2934 12.2038H28.0087V11.3652H26.2526V10.0176H27.9497V9.17902H26.2526V8.07096H28.0087V7.21743H25.2934V12.2038H25.2934ZM31.0634 12.2038H32.2439L30.6944 10.1074C31.4421 9.94768 31.816 9.47851 31.816 8.69987C31.816 8.23068 31.6635 7.86631 31.3585 7.60675C31.0535 7.3472 30.6256 7.21743 30.0747 7.21743H28.6432V12.2038H29.6024V10.2122H29.7352L31.0634 12.2038ZM34 2.00652V20.9935C34 21.5525 33.8106 22.0267 33.4319 22.416C33.0531 22.8053 32.5932 23 32.0521 23H1.94792C1.40683 23 0.946903 22.8053 0.568134 22.416C0.189378 22.0267 0 21.5525 0 20.9935V2.00654C0 1.4475 0.189378 0.973309 0.568134 0.583977C0.946903 0.194659 1.40683 0 1.94792 0H32.0521C32.5932 0 33.0531 0.194665 33.4319 0.583997C33.8106 0.973315 34 1.44749 34 2.00652Z" fill="white"/>
</svg>
