<svg width="27" height="19" viewBox="0 0 27 19" fill="none" xmlns="http://www.w3.org/2000/svg">
<g id="flag/ES">
<g clip-path="url(#clip0_164_4640)">
<path id="Vector" d="M0 0.772461H26.9474V18.7725H0V0.772461Z" fill="white"/>
<path id="Vector_2" d="M0 0.772461H26.9474V5.57247H0V0.772461ZM0 13.9725H26.9474V18.7725H0V13.9725Z" fill="#D03433"/>
<path id="Vector_3" d="M0 5.56177H26.9474V13.9828H0V5.56177Z" fill="#FBCA46"/>
<path id="Vector_4" d="M9.3418 9.17236H10.5395V9.77236H9.3418V9.17236Z" fill="white"/>
<path id="Vector_5" d="M8.62289 10.9725C8.62289 11.3325 8.98219 11.5725 9.34149 11.5725C9.70079 11.5725 10.0601 11.3325 10.0601 10.9725L10.1799 9.17251H8.50313L8.62289 10.9725ZM7.9043 9.17251C7.9043 8.81251 8.14383 8.57251 8.38336 8.57251H10.1799C10.5392 8.57251 10.7787 8.81251 10.7787 9.05251V9.17251L10.6589 10.9725C10.5392 11.6925 10.0601 12.1725 9.34149 12.1725C8.62289 12.1725 8.14383 11.6925 8.02406 10.9725L7.9043 9.17251Z" fill="#A41517"/>
<path id="Vector_6" d="M8.14415 9.77246H10.5395V10.3725H9.94064L9.34181 11.5725L8.74298 10.3725H8.14415V9.77246ZM6.34766 7.97246H7.54532V12.1725H6.34766V7.97246ZM11.1383 7.97246H12.336V12.1725H11.1383V7.97246ZM8.14415 7.37246C8.14415 7.01246 8.38368 6.77246 8.74298 6.77246H9.94064C10.2999 6.77246 10.5395 7.01246 10.5395 7.37246V7.61246C10.5395 7.85246 10.4197 7.97246 10.1802 7.97246H8.38368C8.26392 7.97246 8.14415 7.85246 8.14415 7.73246V7.37246Z" fill="#A41517"/>
</g>
</g>
<defs>
<clipPath id="clip0_164_4640">
<rect y="0.759766" width="27" height="18" rx="2" fill="white"/>
</clipPath>
</defs>
</svg>
