<svg width="96" height="96" viewBox="0 0 96 96" fill="none" xmlns="http://www.w3.org/2000/svg">
<g clip-path="url(#clip0_200_16578)">
<path d="M7.15692 0.980087C7.00643 0.827552 6.82715 0.706435 6.62948 0.623769C6.43181 0.541104 6.2197 0.498535 6.00545 0.498535C5.7912 0.498535 5.57908 0.541104 5.38141 0.623769C5.18374 0.706435 5.00446 0.827552 4.85397 0.980087L0.700195 5.12773H11.2966L7.15692 0.980087Z" fill="url(#paint0_linear_200_16578)"/>
<path d="M95.1985 91.3454C95.351 91.1949 95.4721 91.0155 95.5547 90.8178C95.6374 90.6201 95.6799 90.4079 95.6799 90.1936C95.6799 89.9793 95.6374 89.7672 95.5547 89.5695C95.4721 89.3718 95.351 89.1924 95.1985 89.0419L91.0518 84.8872V95.4859L95.1985 91.3454Z" fill="url(#paint1_linear_200_16578)"/>
<path d="M7.15671 0.980476C7.01364 0.831829 6.84266 0.712874 6.65355 0.630426C6.46445 0.547977 6.26094 0.503656 6.05469 0.5L37.9074 0.5C38.7619 0.500983 39.5817 0.838605 40.1891 1.43975L94.7604 56.0303C95.3623 56.6344 95.7002 57.4526 95.7 58.3055V90.1724C95.6945 89.7568 95.5242 89.3603 95.2267 89.0701L7.15671 0.980476Z" fill="url(#paint2_linear_200_16578)"/>
<path d="M33.7101 18.7746L40.9172 11.5824L45.5949 16.2698L44.5005 17.362L41.1256 13.9802L39.169 15.9327L42.3016 19.0718L41.2071 20.1639L38.0746 17.0249L36.1074 18.988L39.5104 22.398L38.4159 23.4902L33.7101 18.7746ZM46.1057 20.3852L45.199 23.4673L48.3006 22.5846L49.6456 23.9324L45.317 25.0002L44.2684 29.3547L42.9304 28.0139L43.7351 24.9282L40.6582 25.7371L39.3097 24.3858L43.6559 23.3356L44.7571 19.0339L46.1057 20.3852ZM47.2681 32.5718C46.7296 32.0322 46.3857 31.4506 46.2364 30.8271C46.0894 30.2059 46.1205 29.5825 46.3297 28.957C46.5436 28.3314 46.9239 27.7459 47.4705 27.2004C48.0195 26.6526 48.6093 26.2747 49.24 26.0668C49.873 25.8565 50.4987 25.8267 51.1173 25.9773C51.7406 26.1279 52.3156 26.4672 52.8423 26.9951C53.2801 27.4338 53.5867 27.9028 53.7619 28.4022C53.9419 28.9016 53.9859 29.3985 53.894 29.8929C53.8044 30.3849 53.579 30.8394 53.2176 31.2562L52.0025 30.0386C52.2138 29.7294 52.3137 29.3956 52.3024 29.037C52.2957 28.6784 52.139 28.3454 51.8323 28.0381C51.5725 27.7777 51.2738 27.6192 50.9364 27.5626C50.6013 27.5036 50.2485 27.549 49.8781 27.6986C49.51 27.8505 49.1441 28.108 48.7805 28.4709C48.4121 28.8384 48.1493 29.2084 47.9919 29.5809C47.8368 29.9511 47.7849 30.3049 47.8361 30.6424C47.892 30.98 48.0522 31.2813 48.3168 31.5464C48.5041 31.7341 48.7067 31.8667 48.9245 31.9443C49.1471 32.0218 49.3768 32.0432 49.6135 32.0083C49.8502 31.9733 50.0847 31.8775 50.3169 31.7207L51.532 32.9383C51.1191 33.2894 50.6677 33.5151 50.1778 33.6154C49.6902 33.7133 49.1958 33.6777 48.6944 33.5084C48.1954 33.3368 47.72 33.0246 47.2681 32.5718ZM59.2067 29.9098L51.9996 37.102L50.7283 35.8281L57.9354 28.6359L59.2067 29.9098ZM59.0183 39.5885L62.1502 36.463L63.4215 37.7369L58.0162 43.131L56.7836 41.8958L57.7443 40.9371L57.6881 40.8808C57.2637 41.0608 56.816 41.1072 56.345 41.02C55.8764 40.9352 55.4396 40.6898 55.0345 40.284C54.681 39.9297 54.4471 39.5381 54.3327 39.1091C54.223 38.6801 54.2433 38.2383 54.3938 37.7838C54.5466 37.327 54.8389 36.8831 55.2705 36.4524L58.7122 33.0178L59.9835 34.2917L56.7389 37.5296C56.3963 37.8714 56.2179 38.2368 56.2034 38.6259C56.1889 39.0149 56.3339 39.3619 56.6382 39.6669C56.8255 39.8546 57.0527 39.9907 57.3198 40.0754C57.5869 40.16 57.8669 40.1685 58.16 40.1009C58.4577 40.0332 58.7438 39.8624 59.0183 39.5885ZM67.5634 44.7448L66.2778 43.71C66.3623 43.5601 66.4152 43.3925 66.4365 43.2074C66.4601 43.0246 66.4357 42.8336 66.3633 42.6343C66.2908 42.435 66.1563 42.2369 65.9596 42.0398C65.6951 41.7747 65.4152 41.6092 65.1199 41.5432C64.8271 41.4797 64.5903 41.5404 64.4096 41.7253C64.2501 41.8798 64.1796 42.0649 64.1981 42.2805C64.219 42.4985 64.3347 42.7764 64.5453 43.1141L65.2683 44.2327C65.6684 44.8542 65.8729 45.4087 65.8818 45.8962C65.893 46.386 65.7062 46.8252 65.3215 47.2139C64.979 47.551 64.5792 47.751 64.1221 47.8138C63.6697 47.8766 63.1975 47.807 62.7056 47.6049C62.2136 47.4028 61.7429 47.0766 61.2934 46.6261C60.6332 45.9646 60.2401 45.2939 60.1143 44.6141C59.9908 43.932 60.1391 43.304 60.5592 42.7303L61.9185 43.8531C61.7307 44.1529 61.6659 44.4563 61.7242 44.7634C61.7825 45.0705 61.9579 45.3706 62.2506 45.6639C62.5526 45.9665 62.8571 46.1473 63.164 46.2062C63.4733 46.2675 63.7195 46.2068 63.9025 46.0242C64.0573 45.8697 64.1255 45.6822 64.107 45.4619C64.0908 45.2439 63.9856 44.9837 63.7914 44.6812L63.0648 43.566C62.6553 42.9398 62.4544 42.3748 62.4619 41.8709C62.4718 41.3647 62.675 40.9161 63.0715 40.5252C63.4023 40.1904 63.781 39.9927 64.2076 39.9322C64.6389 39.8717 65.0853 39.939 65.5468 40.134C66.0129 40.329 66.4614 40.6423 66.8922 41.074C67.5243 41.7074 67.8869 42.3406 67.98 42.9735C68.0755 43.6087 67.9366 44.1991 67.5634 44.7448ZM64.751 49.8797L70.1563 44.4856L71.4276 45.7595L66.0223 51.1537L64.751 49.8797ZM71.5626 44.3605C71.3613 44.1587 71.2549 43.9184 71.2434 43.6395C71.2344 43.3583 71.3248 43.1228 71.5149 42.9332C71.7072 42.7412 71.9429 42.6512 72.2217 42.6632C72.503 42.6729 72.7443 42.7786 72.9456 42.9804C73.1493 43.1845 73.2545 43.426 73.2612 43.7049C73.2727 43.9838 73.1822 44.2192 72.9898 44.4112C72.7998 44.6008 72.5642 44.6908 72.2829 44.6812C72.0064 44.6715 71.7663 44.5646 71.5626 44.3605ZM77.553 51.8977L70.2268 55.3669L68.822 53.9592L72.3064 46.6402L73.662 47.9985L70.8864 53.2477L70.9425 53.304L76.201 50.5428L77.553 51.8977ZM75.1264 60.4878C74.5856 59.9459 74.2311 59.3654 74.063 58.7465C73.8996 58.1277 73.9202 57.5054 74.1247 56.8799C74.3316 56.252 74.7178 55.656 75.2831 55.0917C75.8392 54.5369 76.4325 54.1555 77.0631 53.9475C77.6985 53.7396 78.3243 53.7098 78.9405 53.8581C79.5591 54.004 80.1259 54.3351 80.6409 54.8512C80.9734 55.1843 81.2332 55.5526 81.4202 55.9559C81.612 56.3592 81.71 56.7858 81.7142 57.2358C81.7208 57.6881 81.6172 58.152 81.4034 58.6276C81.192 59.1008 80.8493 59.5738 80.3754 60.0468L79.9848 60.4366L75.5634 56.006L76.4221 55.1492L79.6249 58.3586C79.8665 58.1127 80.0308 57.8434 80.1179 57.5505C80.2072 57.2553 80.2146 56.96 80.1399 56.6647C80.0675 56.3716 79.9096 56.1031 79.6661 55.8591C79.4062 55.5987 79.1146 55.4332 78.7913 55.3625C78.4703 55.2896 78.1527 55.2998 77.8386 55.3932C77.5291 55.4866 77.2524 55.6527 77.0084 55.8915L76.2588 56.6395C75.9445 56.9533 75.732 57.28 75.6215 57.6197C75.5134 57.9571 75.5025 58.2887 75.5889 58.6145C75.6776 58.9381 75.8601 59.2382 76.1363 59.5151C76.3213 59.7004 76.5145 59.8424 76.716 59.941C76.9197 60.0373 77.1283 60.0891 77.3415 60.0964C77.5548 60.1036 77.7658 60.0593 77.9745 59.9634L79.0277 61.2863C78.6384 61.525 78.2211 61.6558 77.7758 61.6788C77.3352 61.7017 76.8877 61.6146 76.4332 61.4172C75.9811 61.2175 75.5455 60.9077 75.1264 60.4878Z" fill="white"/>
</g>
<defs>
<linearGradient id="paint0_linear_200_16578" x1="-1.10825" y1="2.8172" x2="9.41748" y2="2.8172" gradientUnits="userSpaceOnUse">
<stop stop-color="#FF2929"/>
<stop offset="0.24" stop-color="#CC1313"/>
<stop offset="0.42" stop-color="#AB0505"/>
<stop offset="0.52" stop-color="#9E0000"/>
<stop offset="0.61" stop-color="#930000"/>
<stop offset="0.77" stop-color="#740000"/>
<stop offset="0.97" stop-color="#440000"/>
<stop offset="1" stop-color="#3D0000"/>
</linearGradient>
<linearGradient id="paint1_linear_200_16578" x1="93.3618" y1="95.5566" x2="93.3618" y2="87.2048" gradientUnits="userSpaceOnUse">
<stop stop-color="#FF2929"/>
<stop offset="0.24" stop-color="#CC1313"/>
<stop offset="0.42" stop-color="#AB0505"/>
<stop offset="0.52" stop-color="#9E0000"/>
<stop offset="0.61" stop-color="#930000"/>
<stop offset="0.77" stop-color="#740000"/>
<stop offset="0.97" stop-color="#440000"/>
<stop offset="1" stop-color="#3D0000"/>
</linearGradient>
<linearGradient id="paint2_linear_200_16578" x1="68.6792" y1="27.5268" x2="47.8209" y2="48.3804" gradientUnits="userSpaceOnUse">
<stop stop-color="#FF2929"/>
<stop offset="0.24" stop-color="#CC1313"/>
<stop offset="0.42" stop-color="#AB0505"/>
<stop offset="0.52" stop-color="#9E0000"/>
<stop offset="0.81" stop-color="#A90000"/>
<stop offset="1" stop-color="#B30000"/>
</linearGradient>
<clipPath id="clip0_200_16578">
<rect width="95" height="95" fill="white" transform="translate(0.700195 0.5)"/>
</clipPath>
</defs>
</svg>
