<svg width="24" height="24" viewBox="0 0 24 24" fill="none" xmlns="http://www.w3.org/2000/svg">
<g id="Group 1000003945">
<rect id="Rectangle 40400" width="24" height="24" rx="4" fill="url(#paint0_linear_200_8850)"/>
<g id="32. Veiw">
<path id="Vector" d="M17.955 12.21C16.97 14.345 14.75 16.5 12 16.5C9.25 16.5 7.03 14.345 6.045 12.21C6.01534 12.144 6 12.0724 6 12C6 11.9276 6.01534 11.856 6.045 11.79C7.03 9.655 9.25 7.5 12 7.5C14.75 7.5 16.97 9.655 17.955 11.79C17.9847 11.856 18 11.9276 18 12C18 12.0724 17.9847 12.144 17.955 12.21ZM12 9.5C11.5055 9.5 11.0222 9.64662 10.6111 9.92133C10.2 10.196 9.87952 10.5865 9.6903 11.0433C9.50108 11.5001 9.45157 12.0028 9.54804 12.4877C9.6445 12.9727 9.8826 13.4181 10.2322 13.7678C10.5819 14.1174 11.0273 14.3555 11.5123 14.452C11.9972 14.5484 12.4999 14.4989 12.9567 14.3097C13.4135 14.1205 13.804 13.8 14.0787 13.3889C14.3534 12.9778 14.5 12.4945 14.5 12C14.4992 11.3372 14.2356 10.7018 13.7669 10.2331C13.2982 9.76444 12.6628 9.50079 12 9.5Z" fill="white"/>
<path id="Vector_2" d="M12 10.5C12.8284 10.5 13.5 11.1716 13.5 12C13.5 12.8284 12.8284 13.5 12 13.5C11.1716 13.5 10.5 12.8284 10.5 12C10.5 11.1716 11.1716 10.5 12 10.5Z" fill="white"/>
</g>
</g>
<defs>
<linearGradient id="paint0_linear_200_8850" x1="0" y1="0" x2="27.9393" y2="27.9356" gradientUnits="userSpaceOnUse">
<stop stop-color="#AD00FF"/>
<stop offset="1" stop-color="#007EE0"/>
</linearGradient>
</defs>
</svg>
