<svg width="109" height="109" viewBox="0 0 109 109" fill="none" xmlns="http://www.w3.org/2000/svg">
<path d="M54.5 0L62.5994 3.36244L71.3414 2.66742L78.0054 8.36814L86.5343 10.4086L91.1105 17.8895L98.5914 22.4657L100.632 30.9946L106.333 37.6586L105.638 46.4006L109 54.5L105.638 62.5994L106.333 71.3414L100.632 78.0054L98.5914 86.5343L91.1105 91.1105L86.5343 98.5914L78.0054 100.632L71.3414 106.333L62.5994 105.638L54.5 109L46.4006 105.638L37.6586 106.333L30.9946 100.632L22.4657 98.5914L17.8895 91.1105L10.4086 86.5343L8.36814 78.0054L2.66742 71.3414L3.36244 62.5994L0 54.5L3.36244 46.4006L2.66742 37.6586L8.36814 30.9946L10.4086 22.4657L17.8895 17.8895L22.4657 10.4086L30.9946 8.36814L37.6586 2.66742L46.4006 3.36244L54.5 0Z" fill="white"/>
<path d="M74.001 68.0826C75.3842 69.4659 75.3842 71.6177 74.001 73.001C73.3093 73.6926 72.464 74 71.5418 74C70.6196 74 69.7743 73.6926 69.0826 73.001L55.0192 58.9376L40.9558 73.001C40.2642 73.6926 39.4188 74 38.4966 74C37.5744 74 36.7291 73.6926 36.0375 73.001C34.6542 71.6177 34.6542 69.4659 36.0375 68.0826L50.1009 54.0192L36.0375 39.9558C34.6542 38.5725 34.6542 36.4207 36.0375 35.0375C37.4207 33.6542 39.5725 33.6542 40.9558 35.0375L55.0192 49.1009L69.0826 35.0375C70.4659 33.6542 72.6177 33.6542 74.001 35.0375C75.3842 36.4207 75.3842 38.5725 74.001 39.9558L59.9376 54.0192L74.001 68.0826Z" fill="#C9311A"/>
</svg>
