<svg width="27" height="18" viewBox="0 0 27 18" fill="none" xmlns="http://www.w3.org/2000/svg">
<g clip-path="url(#clip0_164_4647)">
<path d="M0 0H27V18H0V0Z" fill="#055E1C"/>
<path d="M9.67929 10.7606C9.67929 11.409 10.1924 11.9346 10.8255 11.9346H14.2642C14.2642 12.4748 14.6919 12.9128 15.2195 12.9128H16.3657C16.8933 12.9128 17.3209 12.4748 17.3209 11.9346V10.7606H9.67929ZM17.4163 5.08667V7.8258C17.4163 8.25733 17.0735 8.60838 16.6521 8.60838V9.7823C17.7055 9.7823 18.5625 8.90464 18.5625 7.8258V5.08667H17.4163ZM9.20167 7.82585C9.20167 8.25738 8.8589 8.60843 8.4375 8.60843V9.78235C9.49092 9.78235 10.3479 8.90469 10.3479 7.82585V5.08672H9.20162V7.82585H9.20167Z" fill="white"/>
<path d="M15.6969 5.08643H16.8432V7.82556H15.6969V5.08643ZM13.9776 6.65185C13.9776 6.75974 13.8919 6.84749 13.7865 6.84749C13.6812 6.84749 13.5955 6.75974 13.5955 6.65185V5.08658H12.4492V6.65185C12.4492 6.75974 12.3636 6.84749 12.2582 6.84749C12.1528 6.84749 12.0671 6.75974 12.0671 6.65185V5.08658H10.9209V6.65185C10.9209 7.407 11.5208 8.02141 12.2581 8.02141C12.5421 8.02141 12.8055 7.93002 13.0223 7.77477C13.2391 7.93002 13.5025 8.02141 13.7865 8.02141C13.8437 8.02141 13.8999 8.0173 13.9552 8.01008C13.874 8.3528 13.5726 8.60835 13.2134 8.60835V9.78227C14.2668 9.78227 15.1237 8.90461 15.1237 7.82577V5.08658H13.9775L13.9776 6.65185Z" fill="white"/>
<path d="M10.9209 8.60815H12.6401V9.78208H10.9209V8.60815Z" fill="white"/>
</g>
<defs>
<clipPath id="clip0_164_4647">
<rect width="27" height="18" rx="2" fill="white"/>
</clipPath>
</defs>
</svg>
