<svg width="39" height="43" viewBox="0 0 39 43" fill="none" xmlns="http://www.w3.org/2000/svg">
<g id="Group 1000003938">
<rect id="Rectangle 40400" x="3.33203" width="34" height="34" rx="6" fill="url(#paint0_linear_200_13303)"/>
<g id="Group 1000003937" filter="url(#filter0_d_200_13303)">
<path id="Vector" d="M15.6777 7.93262H22.4492L22.617 8.0816C24.4507 9.9012 26.2804 11.7248 28.1062 13.5523C28.1964 13.6457 28.2497 13.7685 28.256 13.898C28.256 17.4378 28.256 20.9837 28.256 24.5235C28.2644 25.1128 28.0725 25.6876 27.7114 26.1548C27.3503 26.6221 26.8412 26.9544 26.2665 27.098C25.8723 27.1777 25.4699 27.2097 25.068 27.1933H16.0073C15.3278 27.2023 14.6708 26.9512 14.1722 26.492C13.6736 26.0328 13.3716 25.4006 13.3286 24.7261C13.2807 23.9812 13.3286 23.2244 13.3286 22.4735V22.2292H11.0335C10.9101 22.2425 10.7852 22.228 10.6682 22.1868C10.5512 22.1456 10.445 22.0788 10.3575 21.9912C10.27 21.9036 10.2035 21.7976 10.1628 21.6809C10.1221 21.5643 10.1084 21.44 10.1226 21.3174V16.7882C10.1125 16.667 10.1292 16.5451 10.1715 16.4309C10.2138 16.3168 10.2807 16.2132 10.3675 16.1275C10.4542 16.0418 10.5588 15.9759 10.6739 15.9346C10.7889 15.8933 10.9117 15.8775 11.0335 15.8884H13.2927V15.6262C13.2927 13.9754 13.2927 12.3247 13.2927 10.6799C13.2673 10.1364 13.4146 9.59877 13.7136 9.14314C14.0126 8.68751 14.4481 8.33698 14.9586 8.14119C15.193 8.05484 15.4333 7.98514 15.6777 7.93262ZM13.9219 22.2351C13.9219 22.2947 13.9219 22.3305 13.9219 22.3662C13.9219 23.0754 13.9219 23.7846 13.9219 24.4937C13.9207 24.6437 13.9348 24.7935 13.9638 24.9407C14.0556 25.418 14.3139 25.8478 14.6933 26.1542C15.0726 26.4606 15.5486 26.6239 16.0372 26.6153H25.4575C25.7504 26.6307 26.0433 26.5847 26.3171 26.4803C26.591 26.3758 26.8397 26.2153 27.0471 26.009C27.2545 25.8028 27.416 25.5554 27.521 25.2831C27.626 25.0107 27.6723 24.7195 27.6567 24.4282V14.333C27.6567 14.2615 27.6567 14.1959 27.6567 14.1125H27.417C25.9908 14.1125 24.5646 14.1125 23.1384 14.1125C22.9912 14.1272 22.8426 14.1094 22.7032 14.0602C22.5638 14.011 22.4371 13.9317 22.3323 13.8279C22.2274 13.7242 22.147 13.5987 22.0967 13.4603C22.0465 13.322 22.0277 13.1743 22.0417 13.0279C22.0417 11.6036 22.0417 10.1793 22.0417 8.75501V8.52855H15.9653C15.8139 8.52872 15.663 8.54673 15.5159 8.58219C15.0471 8.68885 14.6306 8.95513 14.3384 9.33493C14.0463 9.71474 13.8968 10.1842 13.9159 10.662C13.9159 12.3366 13.9159 14.0052 13.9159 15.6798C13.9159 15.7394 13.9159 15.793 13.9159 15.8645H23.7196C23.8525 15.8435 23.9884 15.8538 24.1165 15.8947C24.2445 15.9356 24.3611 16.0058 24.4568 16.0998C24.5525 16.1938 24.6246 16.3089 24.6672 16.4357C24.7099 16.5626 24.722 16.6976 24.7024 16.83C24.7024 18.3079 24.7024 19.8097 24.7024 21.2697C24.7115 21.399 24.6923 21.5288 24.6463 21.6501C24.6002 21.7714 24.5284 21.8814 24.4356 21.9725C24.3428 22.0637 24.2314 22.1338 24.1088 22.1781C23.9863 22.2223 23.8556 22.2398 23.7256 22.2292C20.5436 22.2292 17.3616 22.2292 14.1736 22.2292L13.9219 22.2351ZM17.4215 17.1339H17.1159C16.8527 17.1483 16.6035 17.2561 16.4133 17.4375C16.2231 17.619 16.1046 17.8623 16.0792 18.1232C16.0569 18.2523 16.0604 18.3846 16.0896 18.5124C16.1188 18.6402 16.1731 18.761 16.2494 18.8678C16.3257 18.9747 16.4224 19.0655 16.5341 19.1351C16.6458 19.2047 16.7702 19.2517 16.9002 19.2733C17.1099 19.3125 17.3222 19.3364 17.5354 19.3448C17.6618 19.3519 17.7811 19.4051 17.8706 19.4941C17.9602 19.5831 18.0136 19.7018 18.0208 19.8275C18.026 19.9546 17.9825 20.0788 17.8991 20.1751C17.8156 20.2714 17.6984 20.3325 17.5713 20.346C17.4256 20.355 17.2795 20.355 17.1339 20.346C16.8282 20.346 16.7324 20.2626 16.6724 19.9706C16.6663 19.891 16.6289 19.817 16.5684 19.7646C16.5078 19.7122 16.429 19.6855 16.3488 19.6905C16.308 19.6948 16.2685 19.7074 16.2327 19.7273C16.1968 19.7472 16.1654 19.7741 16.1402 19.8063C16.115 19.8386 16.0967 19.8756 16.0862 19.915C16.0757 19.9545 16.0733 19.9957 16.0792 20.0361C16.0826 20.2512 16.1629 20.458 16.3056 20.6196C16.4483 20.7812 16.6442 20.887 16.8582 20.9181C17.1209 20.9509 17.3866 20.9509 17.6492 20.9181C17.9279 20.8894 18.1848 20.7552 18.3666 20.5433C18.5485 20.3314 18.6413 20.058 18.626 19.7799C18.6116 19.5048 18.4952 19.2447 18.2993 19.0499C18.1034 18.8551 17.842 18.7394 17.5653 18.725C17.4027 18.7232 17.2405 18.7093 17.0799 18.6833C17.0193 18.682 16.9597 18.6674 16.9054 18.6405C16.8511 18.6137 16.8034 18.5754 16.7657 18.5282C16.7279 18.481 16.7011 18.4261 16.687 18.3674C16.673 18.3088 16.6721 18.2477 16.6844 18.1887C16.6874 18.0658 16.7374 17.9486 16.8243 17.8611C16.9111 17.7737 17.0283 17.7224 17.1518 17.7179H17.6253C17.6746 17.712 17.7246 17.7166 17.772 17.7312C17.8195 17.7459 17.8633 17.7703 17.9006 17.8029C17.9379 17.8355 17.9679 17.8756 17.9886 17.9205C18.0093 17.9654 18.0203 18.0142 18.0208 18.0636C18.0567 18.2721 18.1766 18.3794 18.3563 18.3615C18.3986 18.3565 18.4394 18.343 18.4762 18.3217C18.513 18.3004 18.545 18.2718 18.5702 18.2378C18.5955 18.2037 18.6135 18.1649 18.6231 18.1236C18.6327 18.0824 18.6337 18.0396 18.626 17.998C18.6123 17.8059 18.5393 17.6227 18.4171 17.4734C18.2948 17.3241 18.1292 17.2159 17.9429 17.1637C17.7703 17.1387 17.5958 17.1287 17.4215 17.1339ZM13.011 19.0528C13.011 19.2852 13.011 19.5176 13.011 19.7501C13.0236 20.033 13.1306 20.3038 13.3151 20.5196C13.4995 20.7354 13.751 20.884 14.0297 20.9419C14.3129 21.0007 14.6077 20.9612 14.865 20.83C15.1224 20.6988 15.3267 20.4838 15.444 20.2208C15.5056 20.064 15.5459 19.8996 15.5638 19.7322C15.5688 19.6933 15.5659 19.6539 15.5553 19.6162C15.5446 19.5785 15.5265 19.5433 15.5019 19.5127C15.4773 19.4821 15.4467 19.4568 15.4121 19.4382C15.3774 19.4196 15.3394 19.4081 15.3002 19.4044C15.2594 19.3995 15.218 19.4029 15.1786 19.4145C15.1392 19.4261 15.1026 19.4457 15.0712 19.4719C15.0397 19.4982 15.014 19.5306 14.9957 19.5672C14.9773 19.6038 14.9667 19.6437 14.9646 19.6845C14.9646 19.7143 14.9646 19.7441 14.9646 19.7799C14.9464 19.9517 14.8619 20.1097 14.7289 20.2209C14.5959 20.332 14.4248 20.3875 14.2515 20.3758C14.0841 20.3579 13.9296 20.2781 13.8186 20.1523C13.7076 20.0265 13.6482 19.8638 13.6522 19.6964C13.6522 19.2733 13.6522 18.8442 13.6522 18.4211C13.6647 18.2602 13.7252 18.1066 13.826 17.9801C13.9038 17.8791 14.0121 17.8055 14.1351 17.7701C14.258 17.7347 14.3891 17.7394 14.5091 17.7835C14.6418 17.8211 14.7596 17.8985 14.8465 18.0052C14.9334 18.1118 14.9851 18.2425 14.9945 18.3794C14.9945 18.5939 15.1384 18.7012 15.3181 18.6893C15.3624 18.6845 15.4052 18.6704 15.4436 18.6481C15.4821 18.6258 15.5154 18.5956 15.5414 18.5597C15.5674 18.5237 15.5855 18.4827 15.5945 18.4393C15.6036 18.3959 15.6033 18.3512 15.5938 18.3079C15.5753 17.9978 15.4431 17.7052 15.2222 17.4856C15.0013 17.2659 14.7071 17.1344 14.3953 17.116C14.0773 17.087 13.7602 17.1811 13.5102 17.3787C13.2601 17.5762 13.0964 17.8621 13.053 18.1768C13.0162 18.4673 13.0021 18.7602 13.011 19.0528ZM20.4597 19.7143L20.214 18.9873C20.0402 18.4569 19.8665 17.9265 19.6867 17.4021C19.5968 17.1458 19.3451 17.0624 19.1713 17.2292C19.1235 17.2843 19.0933 17.3523 19.0848 17.4245C19.0762 17.4968 19.0897 17.5699 19.1234 17.6345C19.467 18.6476 19.8065 19.6627 20.1421 20.6797C20.196 20.8406 20.2679 20.9717 20.4597 20.9717C20.6515 20.9717 20.7294 20.8347 20.7773 20.6738L21.3766 18.886C21.5264 18.439 21.6762 17.992 21.82 17.5451C21.8362 17.5077 21.8443 17.4674 21.8439 17.4267C21.8435 17.3861 21.8345 17.3459 21.8176 17.3089C21.8006 17.2719 21.7761 17.2388 21.7456 17.2117C21.7151 17.1847 21.6792 17.1642 21.6402 17.1518C21.6013 17.1389 21.5602 17.134 21.5193 17.1373C21.4784 17.1406 21.4386 17.152 21.4023 17.1709C21.3659 17.1898 21.3338 17.2158 21.3077 17.2473C21.2817 17.2788 21.2623 17.3153 21.2507 17.3544L21.2028 17.4974L20.4597 19.7143Z" fill="white"/>
<path id="Vector_2" d="M13.9225 22.2355H14.1862C17.3742 22.2355 20.5562 22.2355 23.7383 22.2355C23.8682 22.2461 23.9989 22.2287 24.1215 22.1844C24.244 22.1401 24.3555 22.07 24.4482 21.9788C24.541 21.8877 24.6129 21.7777 24.6589 21.6564C24.705 21.5351 24.7241 21.4054 24.715 21.276C24.715 19.7981 24.715 18.2963 24.715 16.8363C24.7317 16.7047 24.7173 16.5711 24.6729 16.4461C24.6286 16.3211 24.5555 16.2081 24.4595 16.1161C24.3635 16.0241 24.2472 15.9556 24.1199 15.9161C23.9926 15.8767 23.8579 15.8673 23.7263 15.8887H13.9225C13.9225 15.8172 13.9225 15.7636 13.9225 15.704C13.9225 14.0294 13.9225 12.3608 13.9225 10.6862C13.9034 10.2084 14.0529 9.73892 14.3451 9.35912C14.6373 8.97931 15.0538 8.71303 15.5225 8.60637C15.6697 8.57091 15.8206 8.5529 15.972 8.55273H22.0484V8.77919C22.0484 10.2035 22.0484 11.6278 22.0484 13.0521C22.0402 13.194 22.0627 13.336 22.1144 13.4685C22.166 13.6011 22.2457 13.7211 22.3479 13.8204C22.4501 13.9198 22.5725 13.9963 22.7069 14.0446C22.8413 14.093 22.9845 14.1122 23.127 14.1009C24.5532 14.1009 25.9795 14.1009 27.4057 14.1009H27.6454C27.6454 14.1843 27.6454 14.2499 27.6454 14.3214V24.4106C27.6634 24.7023 27.6194 24.9945 27.5163 25.2681C27.4131 25.5418 27.2532 25.7907 27.0468 25.9988C26.8404 26.2068 26.5923 26.3693 26.3186 26.4755C26.0448 26.5818 25.7516 26.6296 25.4581 26.6156H16.0379C15.5508 26.6264 15.0754 26.4663 14.6952 26.1634C14.3149 25.8604 14.0541 25.434 13.9585 24.9589C13.9294 24.8117 13.9154 24.662 13.9165 24.5119C13.9165 23.8028 13.9165 23.0936 13.9165 22.3845C13.9106 22.3308 13.9165 22.2951 13.9225 22.2355Z" fill="url(#paint1_linear_200_13303)"/>
<path id="Vector_3" d="M17.4232 17.1348C17.5984 17.1394 17.7728 17.1594 17.9445 17.1944C18.1309 17.2466 18.2965 17.3548 18.4188 17.5041C18.541 17.6534 18.614 17.8366 18.6277 18.0287C18.6354 18.0703 18.6344 18.1131 18.6248 18.1543C18.6152 18.1955 18.5972 18.2344 18.5719 18.2684C18.5467 18.3025 18.5147 18.3311 18.4779 18.3523C18.4411 18.3736 18.4003 18.3872 18.358 18.3922C18.1783 18.3922 18.0584 18.3028 18.0224 18.0942C18.022 18.0448 18.011 17.9961 17.9903 17.9512C17.9696 17.9063 17.9396 17.8662 17.9023 17.8336C17.865 17.801 17.8212 17.7766 17.7737 17.7619C17.7263 17.7473 17.6763 17.7427 17.6269 17.7486H17.1535C17.03 17.7531 16.9128 17.8043 16.826 17.8918C16.7391 17.9793 16.6891 18.0965 16.6861 18.2194C16.6738 18.2784 16.6747 18.3394 16.6887 18.3981C16.7028 18.4568 16.7296 18.5116 16.7673 18.5588C16.8051 18.606 16.8528 18.6444 16.9071 18.6712C16.9614 18.698 17.021 18.7126 17.0816 18.714C17.2421 18.74 17.4044 18.7539 17.567 18.7557C17.8436 18.7701 18.1051 18.8858 18.301 19.0806C18.4969 19.2754 18.6133 19.5354 18.6277 19.8105C18.6443 20.0935 18.5488 20.3716 18.3618 20.5855C18.1748 20.7993 17.911 20.9318 17.6269 20.9547C17.3643 20.9875 17.0986 20.9875 16.8359 20.9547C16.6243 20.9182 16.4324 20.8084 16.2943 20.6449C16.1561 20.4813 16.0805 20.2744 16.0809 20.0608C16.075 20.0204 16.0774 19.9792 16.0879 19.9398C16.0983 19.9003 16.1167 19.8633 16.1419 19.831C16.1671 19.7988 16.1985 19.7719 16.2344 19.752C16.2702 19.7321 16.3097 19.7196 16.3505 19.7152C16.4307 19.7102 16.5095 19.7369 16.5701 19.7893C16.6306 19.8417 16.668 19.9157 16.6741 19.9953C16.7341 20.2873 16.8299 20.3707 17.1356 20.3707C17.2812 20.3797 17.4273 20.3797 17.573 20.3707C17.7001 20.3572 17.8173 20.2961 17.9008 20.1998C17.9842 20.1035 18.0277 19.9793 18.0224 19.8522C18.0153 19.7265 17.9619 19.6079 17.8723 19.5188C17.7828 19.4298 17.6635 19.3766 17.5371 19.3695C17.3238 19.3611 17.1116 19.3372 16.9018 19.298C16.7719 19.2764 16.6475 19.2294 16.5358 19.1598C16.4241 19.0902 16.3274 18.9994 16.2511 18.8925C16.1748 18.7857 16.1205 18.6649 16.0913 18.5371C16.0621 18.4093 16.0585 18.277 16.0809 18.1479C16.1063 17.887 16.2248 17.6437 16.415 17.4623C16.6051 17.2808 16.8544 17.1731 17.1176 17.1586H17.4232V17.1348Z" fill="url(#paint2_linear_200_13303)"/>
<path id="Vector_4" d="M13.0157 19.0527C12.9948 18.773 12.9948 18.4921 13.0157 18.2124C13.0592 17.8978 13.2229 17.6119 13.473 17.4143C13.723 17.2167 14.04 17.1226 14.3581 17.1517C14.6699 17.1701 14.9641 17.3015 15.185 17.5212C15.4058 17.7409 15.5381 18.0334 15.5566 18.3435C15.5661 18.3868 15.5663 18.4316 15.5573 18.475C15.5483 18.5183 15.5302 18.5593 15.5042 18.5953C15.4782 18.6313 15.4449 18.6614 15.4064 18.6837C15.368 18.7061 15.3252 18.7201 15.2809 18.7249C15.1011 18.7249 14.9813 18.6296 14.9573 18.415C14.9478 18.2781 14.8961 18.1475 14.8093 18.0408C14.7224 17.9342 14.6046 17.8568 14.4719 17.8191C14.3519 17.775 14.2208 17.7704 14.0978 17.8058C13.9749 17.8411 13.8666 17.9147 13.7888 18.0158C13.688 18.1423 13.6275 18.2958 13.615 18.4568C13.615 18.8799 13.615 19.3089 13.615 19.7321C13.611 19.8994 13.6704 20.0621 13.7814 20.1879C13.8924 20.3138 14.0469 20.3935 14.2142 20.4114C14.3876 20.4232 14.5587 20.3676 14.6917 20.2565C14.8247 20.1454 14.9091 19.9873 14.9274 19.8155C14.9274 19.7797 14.9274 19.7499 14.9274 19.7201C14.9295 19.6793 14.9401 19.6394 14.9584 19.6028C14.9768 19.5663 15.0025 19.5339 15.0339 19.5076C15.0654 19.4813 15.102 19.4618 15.1414 19.4501C15.1808 19.4385 15.2222 19.4351 15.2629 19.4401C15.3021 19.4437 15.3402 19.4552 15.3749 19.4738C15.4095 19.4924 15.44 19.5178 15.4646 19.5484C15.4892 19.5789 15.5074 19.6141 15.518 19.6518C15.5287 19.6895 15.5316 19.729 15.5266 19.7678C15.5087 19.9353 15.4684 20.0996 15.4068 20.2565C15.2863 20.5058 15.0866 20.7086 14.8385 20.8335C14.5904 20.9585 14.3078 20.9987 14.0345 20.9478C13.7557 20.8898 13.5042 20.7412 13.3198 20.5254C13.1353 20.3096 13.0284 20.0389 13.0157 19.7559C13.0157 19.5235 13.0157 19.2911 13.0157 19.0587V19.0527Z" fill="url(#paint3_linear_200_13303)"/>
<path id="Vector_5" d="M20.4615 19.7145L21.1986 17.5096L21.2466 17.3665C21.2581 17.3274 21.2775 17.291 21.3036 17.2595C21.3296 17.228 21.3617 17.202 21.3981 17.1831C21.4344 17.1641 21.4742 17.1527 21.5151 17.1494C21.556 17.1461 21.5971 17.1511 21.6361 17.1639C21.675 17.1764 21.7109 17.1968 21.7414 17.2239C21.772 17.2509 21.7965 17.284 21.8134 17.3211C21.8303 17.3581 21.8393 17.3982 21.8397 17.4389C21.8401 17.4796 21.832 17.5199 21.8159 17.5572C21.672 18.0042 21.5222 18.4512 21.3724 18.8981L20.7732 20.6859C20.7252 20.8468 20.6473 20.9839 20.4556 20.9839C20.2638 20.9839 20.1919 20.8528 20.138 20.6919C19.8024 19.6708 19.4628 18.6558 19.1192 17.6466C19.0855 17.5821 19.0721 17.5089 19.0806 17.4367C19.0892 17.3645 19.1193 17.2964 19.1672 17.2414C19.3409 17.0745 19.5926 17.158 19.6825 17.4142C19.8623 17.9386 20.0361 18.469 20.2099 18.9994L20.4615 19.7145Z" fill="url(#paint4_linear_200_13303)"/>
</g>
</g>
<defs>
<filter id="filter0_d_200_13303" x="0.117188" y="2.93262" width="38.1392" height="39.2649" filterUnits="userSpaceOnUse" color-interpolation-filters="sRGB">
<feFlood flood-opacity="0" result="BackgroundImageFix"/>
<feColorMatrix in="SourceAlpha" type="matrix" values="0 0 0 0 0 0 0 0 0 0 0 0 0 0 0 0 0 0 127 0" result="hardAlpha"/>
<feOffset dy="5"/>
<feGaussianBlur stdDeviation="5"/>
<feComposite in2="hardAlpha" operator="out"/>
<feColorMatrix type="matrix" values="0 0 0 0 0 0 0 0 0 0 0 0 0 0 0 0 0 0 0.25 0"/>
<feBlend mode="normal" in2="BackgroundImageFix" result="effect1_dropShadow_200_13303"/>
<feBlend mode="normal" in="SourceGraphic" in2="effect1_dropShadow_200_13303" result="shape"/>
</filter>
<linearGradient id="paint0_linear_200_13303" x1="3.33203" y1="0" x2="42.9127" y2="39.5755" gradientUnits="userSpaceOnUse">
<stop stop-color="#AD00FF"/>
<stop offset="1" stop-color="#007EE0"/>
</linearGradient>
<linearGradient id="paint1_linear_200_13303" x1="13.9141" y1="8.55273" x2="31.4764" y2="21.3769" gradientUnits="userSpaceOnUse">
<stop stop-color="#600FAF"/>
<stop offset="1" stop-color="#0061AC"/>
</linearGradient>
<linearGradient id="paint2_linear_200_13303" x1="16.0664" y1="17.1348" x2="19.632" y2="19.4207" gradientUnits="userSpaceOnUse">
<stop stop-color="#600FAF"/>
<stop offset="1" stop-color="#0061AC"/>
</linearGradient>
<linearGradient id="paint3_linear_200_13303" x1="13" y1="17.1465" x2="16.5524" y2="19.4347" gradientUnits="userSpaceOnUse">
<stop stop-color="#600FAF"/>
<stop offset="1" stop-color="#0061AC"/>
</linearGradient>
<linearGradient id="paint4_linear_200_13303" x1="19.0781" y1="17.1484" x2="22.7406" y2="19.6811" gradientUnits="userSpaceOnUse">
<stop stop-color="#600FAF"/>
<stop offset="1" stop-color="#0061AC"/>
</linearGradient>
</defs>
</svg>
