<svg width="35" height="40" viewBox="0 0 35 40" fill="none" xmlns="http://www.w3.org/2000/svg">
<g id="Group 1000003936">
<rect id="Rectangle 40400" width="34" height="34" rx="6" fill="url(#paint0_linear_200_13298)"/>
<g id="Group 1000003926" filter="url(#filter0_d_200_13298)">
<path id="Vector" d="M17.2508 8.96875C16.9849 8.96902 16.7301 9.07474 16.5421 9.26271C16.3541 9.45068 16.2484 9.70554 16.2481 9.97137V17.4305L14.9118 16.0942C14.4478 15.643 13.8513 15.7579 13.5052 16.1045C13.1586 16.4511 13.0432 17.0456 13.4974 17.5143L16.5389 20.5563C16.72 20.743 16.9683 20.8475 17.2373 20.8501H17.2461C17.5151 20.8501 17.7748 20.7441 17.9595 20.5589L21.0067 17.5117C21.4573 17.045 21.3425 16.4506 20.9964 16.104C20.6502 15.7574 20.0558 15.6436 19.5866 16.0968L18.2529 17.4305V9.97085C18.2525 9.7052 18.1467 9.45055 17.9589 9.26271C17.7711 9.07487 17.5164 8.96916 17.2508 8.96875Z" fill="white"/>
<path id="Vector_2" d="M11.1589 18.8467C10.8931 18.847 10.6383 18.9526 10.4504 19.1405C10.2624 19.3283 10.1567 19.583 10.1562 19.8488V20.958C10.1562 23.1898 11.9716 25.0052 14.2035 25.0052H20.2926C22.5245 25.0052 24.3398 23.1893 24.3398 20.958V19.8488C24.3394 19.5831 24.2337 19.3285 24.0459 19.1406C23.858 18.9528 23.6034 18.8471 23.3377 18.8467C23.072 18.847 22.8172 18.9526 22.6293 19.1405C22.4413 19.3283 22.3355 19.583 22.3351 19.8488V20.958C22.3346 21.4995 22.1192 22.0187 21.7363 22.4016C21.3534 22.7845 20.8342 22.9999 20.2926 23.0005H14.2035C13.6619 22.9999 13.1427 22.7845 12.7598 22.4016C12.3769 22.0187 12.1615 21.4995 12.161 20.958V19.8488C12.1606 19.583 12.0548 19.3283 11.8668 19.1405C11.6789 18.9526 11.4246 18.847 11.1589 18.8467Z" fill="white"/>
</g>
</g>
<defs>
<filter id="filter0_d_200_13298" x="0.15625" y="3.96875" width="34.1836" height="36.0364" filterUnits="userSpaceOnUse" color-interpolation-filters="sRGB">
<feFlood flood-opacity="0" result="BackgroundImageFix"/>
<feColorMatrix in="SourceAlpha" type="matrix" values="0 0 0 0 0 0 0 0 0 0 0 0 0 0 0 0 0 0 127 0" result="hardAlpha"/>
<feOffset dy="5"/>
<feGaussianBlur stdDeviation="5"/>
<feComposite in2="hardAlpha" operator="out"/>
<feColorMatrix type="matrix" values="0 0 0 0 0 0 0 0 0 0 0 0 0 0 0 0 0 0 0.25 0"/>
<feBlend mode="normal" in2="BackgroundImageFix" result="effect1_dropShadow_200_13298"/>
<feBlend mode="normal" in="SourceGraphic" in2="effect1_dropShadow_200_13298" result="shape"/>
</filter>
<linearGradient id="paint0_linear_200_13298" x1="0" y1="0" x2="39.5807" y2="39.5755" gradientUnits="userSpaceOnUse">
<stop stop-color="#AD00FF"/>
<stop offset="1" stop-color="#007EE0"/>
</linearGradient>
</defs>
</svg>
