<svg width="315" height="49" viewBox="0 0 315 49" fill="none" xmlns="http://www.w3.org/2000/svg">
<path fill-rule="evenodd" clip-rule="evenodd" d="M109.639 24.3095C109.639 22.0836 110.318 19.9077 111.591 18.0574C112.863 16.2071 114.672 14.7656 116.788 13.9153C118.903 13.0651 121.231 12.8444 123.476 13.2812C125.721 13.7179 127.782 14.7926 129.398 16.369C131.014 17.9453 132.113 19.9526 132.555 22.1366C132.998 24.3206 132.764 26.5831 131.883 28.6376C131.002 30.6921 129.514 32.4463 127.607 33.6779C125.7 34.9096 123.46 35.5634 121.17 35.5565C119.649 35.5705 118.14 35.2888 116.732 34.7281C115.324 34.1674 114.046 33.3389 112.972 32.2913C111.898 31.2436 111.049 29.998 110.477 28.6273C109.905 27.2567 109.62 25.7887 109.639 24.3095ZM127.648 24.3095C127.62 23.0701 127.217 21.8662 126.488 20.8488C125.759 19.8315 124.738 19.0458 123.552 18.5902C122.367 18.1347 121.069 18.0295 119.822 18.2879C118.575 18.5464 117.434 19.1569 116.542 20.043C115.65 20.9291 115.047 22.0514 114.809 23.2692C114.57 24.487 114.707 25.7463 115.201 26.8891C115.695 28.0319 116.525 29.0075 117.587 29.6937C118.649 30.3798 119.895 30.746 121.17 30.7463C122.04 30.7713 122.906 30.6208 123.713 30.3044C124.52 29.9879 125.251 29.5123 125.86 28.9075C126.468 28.3028 126.941 27.582 127.249 26.7907C127.557 25.9993 127.693 25.1545 127.648 24.3095ZM92.8543 31.4881C93.2259 30.6884 93.4264 29.8237 93.4435 28.9463C93.5166 27.9587 93.3177 26.97 92.8673 26.0819C92.4169 25.1939 91.7312 24.4386 90.8809 23.8938C91.5108 23.3769 92.0137 22.7294 92.3524 21.9988C92.6912 21.2682 92.8572 20.473 92.8384 19.6718C92.8179 18.8029 92.6136 17.9474 92.2383 17.1586C91.863 16.3697 91.3248 15.6644 90.6571 15.0866C89.9893 14.5088 89.2064 14.0708 88.357 13.7999C87.5077 13.5289 86.6101 13.4309 85.7201 13.5119H77V35.2793H86.3251C87.2254 35.3404 88.1291 35.2229 88.9812 34.9339C89.8333 34.6449 90.6161 34.1903 91.2819 33.598C91.9478 33.0056 92.4828 32.2878 92.8543 31.4881ZM82.0185 22.0251V18.3222L85.5777 18.2184C85.8359 18.2083 86.0934 18.2509 86.3337 18.3434C86.574 18.436 86.7916 18.5764 86.9727 18.7557C87.1537 18.935 87.2941 19.1492 87.3849 19.3845C87.4757 19.6197 87.5148 19.8709 87.4996 20.1217C87.5148 20.3726 87.4757 20.6237 87.3849 20.859C87.2941 21.0942 87.1537 21.3084 86.9727 21.4877C86.7916 21.667 86.574 21.8074 86.3337 21.9C86.0934 21.9925 85.8359 22.0351 85.5777 22.0251H82.0185ZM88.3545 28.4305C88.3609 28.5214 88.3607 28.6128 88.3538 28.7041V28.4272L88.3545 28.4305ZM88.3264 29.3128C88.4055 29.0247 88.415 28.7228 88.3545 28.4305C88.3417 28.2478 88.3022 28.0673 88.2369 27.8945C88.1392 27.6358 87.9859 27.4003 87.7872 27.2038C87.5884 27.0073 87.3489 26.8542 87.0845 26.7549C86.8201 26.6556 86.5369 26.6122 86.2539 26.6277H82.0185V30.7458H86.2539C86.5609 30.7679 86.8689 30.7205 87.1539 30.6074C87.4389 30.4942 87.693 30.3185 87.8964 30.0939C88.0998 29.8693 88.247 29.6019 88.3264 29.3128ZM109.317 35.106V30.3649H101.38V13.5116H96.2899V35.106H109.317ZM135.735 19.9985C135.176 21.369 134.908 22.8353 134.946 24.3092C134.903 25.7859 135.168 27.2559 135.724 28.6305C136.281 30.005 137.119 31.2556 138.187 32.3067C139.255 33.3578 140.53 34.1876 141.937 34.7461C143.344 35.3046 144.852 35.5802 146.371 35.5562C148.266 35.5865 150.136 35.1405 151.801 34.2614C153.466 33.3822 154.869 32.0997 155.874 30.5383L151.497 28.0813C150.964 28.9294 150.208 29.6237 149.307 30.0923C148.406 30.5608 147.392 30.7865 146.371 30.7459C144.704 30.6268 143.145 29.8988 142.007 28.708C140.869 27.5173 140.236 25.952 140.236 24.3265C140.236 22.701 140.869 21.1357 142.007 19.9449C143.145 18.7541 144.704 18.0261 146.371 17.907C147.389 17.8629 148.4 18.0834 149.301 18.5456C150.202 19.0079 150.96 19.6953 151.497 20.5371L155.874 18.08C154.862 16.5273 153.457 15.2536 151.793 14.381C150.129 13.5083 148.262 13.0661 146.371 13.0967C144.855 13.0729 143.35 13.3475 141.945 13.9038C140.541 14.4602 139.267 15.2869 138.2 16.3343C137.133 17.3817 136.294 18.6281 135.735 19.9985ZM170.89 35.106L163.772 25.1047V35.106H158.717V13.5116H163.772V22.8899L170.57 13.5116H176.335L168.861 23.8935L176.656 34.9675L170.89 35.106ZM196.197 35.106H201.109L201.287 13.5116H196.197L190.182 23.0976L184.132 13.5116H179.078V35.106H184.132V22.5439L189.898 31.7145H190.467L196.197 22.5439V35.106ZM219.189 30.3649V35.106H205.236V13.5116H219.046V18.2527H210.433V21.7133H218.37V26.5236H210.433V30.3649H219.189ZM241.354 28.4094C241.865 27.1015 242.098 25.7067 242.041 24.3088C242.098 22.9109 241.865 21.5161 241.354 20.2082C240.843 18.9003 240.066 17.7062 239.068 16.6977C238.071 15.6893 236.874 14.8872 235.55 14.3397C234.226 13.7922 232.802 13.5105 231.363 13.5116H222.465V35.106H231.363C232.802 35.1071 234.226 34.8254 235.55 34.2779C236.874 33.7304 238.071 32.9283 239.068 31.9198C240.066 30.9114 240.843 29.7173 241.354 28.4094ZM236.867 21.9856C237.134 22.7308 237.236 23.5226 237.164 24.3088C237.236 25.095 237.134 25.8868 236.867 26.632C236.599 27.3771 236.172 28.0585 235.614 28.6311C235.055 29.2037 234.378 29.6543 233.626 29.9532C232.875 30.2521 232.067 30.3924 231.256 30.3649H227.448V18.2527H231.256C232.067 18.2252 232.875 18.3655 233.626 18.6644C234.378 18.9633 235.055 19.4139 235.614 19.9865C236.172 20.5591 236.599 21.2405 236.867 21.9856Z" fill="url(#paint0_linear_164_4451)"/>
<path d="M268.998 20.3419C269.017 21.2104 268.856 22.0736 268.524 22.8785C268.193 23.6834 267.698 24.413 267.07 25.0225C266.442 25.6319 265.694 26.1084 264.872 26.4226C264.05 26.7368 263.172 26.8821 262.291 26.8495H256.616V34.9163H255V13.7665H262.291C263.177 13.7385 264.059 13.8891 264.883 14.2092C265.707 14.5293 266.456 15.012 267.084 15.6278C267.712 16.2436 268.206 16.9794 268.535 17.7901C268.864 18.6007 269.022 19.4691 268.998 20.3419ZM267.347 20.3419C267.376 19.6784 267.265 19.0163 267.022 18.397C266.778 17.7778 266.407 17.2149 265.933 16.7437C265.458 16.2725 264.889 15.9033 264.262 15.6593C263.636 15.4152 262.965 15.3016 262.291 15.3256H256.616V25.4938H262.291C262.971 25.5096 263.647 25.3853 264.275 25.1288C264.904 24.8723 265.471 24.4893 265.94 24.0043C266.41 23.5193 266.771 22.943 267.002 22.3123C267.232 21.6817 267.326 21.0105 267.278 20.3419H267.347Z" fill="#141414"/>
<path d="M282.39 26.2382H274.817V34.9163H273V13.7634H282.314C284.012 13.7517 285.657 14.2958 286.938 15.2934C288.22 16.291 289.051 17.6734 289.274 19.1807C289.497 20.688 289.098 22.2164 288.151 23.4786C287.204 24.7408 285.774 25.6498 284.131 26.0348L290 34.9163H287.918L282.39 26.2382ZM274.817 24.7466H282.39C283.713 24.6462 284.947 24.1045 285.845 23.2287C286.744 22.353 287.243 21.207 287.243 20.0177C287.243 18.8284 286.744 17.6824 285.845 16.8067C284.947 15.9309 283.713 15.3892 282.39 15.2888H274.817V24.7466Z" fill="#141414"/>
<path d="M293 24.8204C293 22.6335 293.651 20.4957 294.872 18.6774C296.092 16.859 297.827 15.4418 299.856 14.6049C301.885 13.768 304.119 13.549 306.273 13.9757C308.427 14.4023 310.406 15.4554 311.96 17.0018C313.513 18.5482 314.358 20.5184 314.787 22.6633C315.215 24.8082 314.995 27.0314 314.155 29.0519C313.314 31.0723 312.103 32.7992 310.277 34.0142C308.45 35.2292 306.303 35.8777 304.106 35.8777C302.646 35.8823 301.2 35.5993 299.851 35.0453C298.501 34.4912 297.275 33.6769 296.243 32.6492C295.211 31.6216 294.393 30.4008 293.836 29.0572C293.28 27.7137 292.995 26.2738 293 24.8204ZM313.384 24.8204C313.378 22.9528 313.125 21.129 312.077 19.5799C311.029 18.0307 309.543 16.8257 307.808 16.1173C306.072 15.4088 304.164 15.2287 302.325 15.5997C300.487 15.9708 298.8 16.8763 297.478 18.2017C296.157 19.5272 295.26 21.2131 294.9 23.0462C294.541 24.8794 294.736 26.7774 295.46 28.5003C296.184 30.2232 297.405 31.6937 298.969 32.7257C300.532 33.7577 302.368 34.3049 304.244 34.2981C306.711 34.2262 309.052 33.1928 310.761 31.4202C312.471 29.6476 313.413 27.2777 313.384 24.8204Z" fill="#141414"/>
<path d="M33.9617 20.9805L33.8927 24.4001L30.9619 22.8244V19.5054L33.9617 20.9805Z" fill="#B0B0B0"/>
<path d="M49.7536 33.1831L37.3407 40.1228L32.9272 42.6372V37.7425L37.3407 35.2617L47.5813 29.5288L49.7536 33.1831Z" fill="#141414"/>
<path d="M48.1664 16.1865L33.8916 24.4002L33.9606 20.9806L46.1321 14.1079L48.1664 16.1865Z" fill="#141414"/>
<path d="M46.1332 14.1073L33.9617 20.98L30.9619 19.5384L43.2024 12.6992L46.1332 14.1073Z" fill="#6D6D6D"/>
<path d="M30.6513 4.35186L20.5141 10.0176L15.8593 12.6326L11.4458 10.3194L16.0661 7.63734L28.479 0.664062L30.6513 4.35186Z" fill="#6D6D6D"/>
<path d="M45.4426 14.5431L23.9614 3.24502L28.5818 0.562988L49.8561 11.9616L45.4426 14.5431Z" fill="#6D6D6D"/>
<path d="M45.4429 35.5968L49.8563 33.1495V11.9614L45.4429 14.5429V35.5968Z" fill="#141414"/>
<path d="M22.3405 27.5848L0.859375 16.2867L5.5142 13.6382L26.7885 25.0368L22.3405 27.5848Z" fill="#6D6D6D"/>
<path d="M22.3408 48.6385L26.7888 46.2247V25.0366L22.3408 27.5846V48.6385Z" fill="#141414"/>
<defs>
<linearGradient id="paint0_linear_164_4451" x1="71.2793" y1="13.2819" x2="75.1247" y2="60.6044" gradientUnits="userSpaceOnUse">
<stop stop-color="#AD00FF"/>
<stop offset="1" stop-color="#007EE0"/>
</linearGradient>
</defs>
</svg>
