<svg width="37" height="23" viewBox="0 0 37 23" fill="none" xmlns="http://www.w3.org/2000/svg">
<path d="M23.503 2.526H13.498V20.5051H23.503V2.526Z" fill="#FF5F00"/>
<path d="M14.133 11.5162C14.1314 9.78472 14.5238 8.07554 15.2805 6.51808C16.0371 4.96062 17.1381 3.5957 18.5002 2.52667C16.8135 1.20082 14.7877 0.376296 12.6544 0.147334C10.5212 -0.0816272 8.3666 0.294215 6.43688 1.2319C4.50715 2.16959 2.88017 3.63128 1.7419 5.44992C0.603633 7.26856 0 9.37076 0 11.5162C0 13.6617 0.603633 15.7639 1.7419 17.5826C2.88017 19.4012 4.50715 20.8629 6.43688 21.8006C8.3666 22.7383 10.5212 23.1141 12.6544 22.8852C14.7877 22.6562 16.8135 21.8317 18.5002 20.5058C17.1381 19.4368 16.0371 18.0719 15.2805 16.5144C14.5238 14.957 14.1315 13.2478 14.133 11.5162V11.5162Z" fill="#EB001B"/>
<path d="M36.9997 11.5162C36.9997 13.6617 36.3962 15.7639 35.258 17.5825C34.1198 19.4012 32.4928 20.8629 30.5632 21.8006C28.6335 22.7383 26.4789 23.1141 24.3457 22.8852C22.2125 22.6562 20.1867 21.8317 18.5 20.5058C19.8609 19.4357 20.9611 18.0706 21.7176 16.5134C22.4741 14.9561 22.8672 13.2475 22.8672 11.5162C22.8672 9.78499 22.4741 8.07635 21.7176 6.51913C20.9611 4.96192 19.8609 3.59678 18.5 2.52667C20.1867 1.20082 22.2125 0.376291 24.3457 0.147332C26.4789 -0.0816264 28.6335 0.294223 30.5632 1.23192C32.4928 2.16962 34.1198 3.63132 35.258 5.44996C36.3962 7.2686 36.9997 9.37079 36.9997 11.5162V11.5162Z" fill="#F79E1B"/>
<path d="M35.9093 18.6012V18.2331H36.0577V18.1581H35.6797V18.2331H35.8282V18.6012H35.9093ZM36.6431 18.6012V18.1573H36.5272L36.394 18.4626L36.2607 18.1573H36.1447V18.6012H36.2266V18.2664L36.3515 18.555H36.4364L36.5614 18.2657V18.6012H36.6431Z" fill="#F79E1B"/>
</svg>
