<svg width="38" height="27" viewBox="0 0 38 27" fill="none" xmlns="http://www.w3.org/2000/svg">
<g id="Menu" clip-path="url(#clip0_940_3566)">
<path id="Vector" d="M18.7904 15.7299L2.19038 15.7299C1.91475 15.7384 1.63916 15.7116 1.37038 15.6499C0.954472 15.5196 0.597145 15.2481 0.360138 14.8823C0.123131 14.5166 0.0213281 14.0795 0.072323 13.6466C0.123318 13.2138 0.323899 12.8124 0.63942 12.5117C0.954941 12.211 1.36557 12.03 1.80038 11.9999L35.3404 11.9999C35.6321 11.988 35.9243 12.0115 36.2104 12.0699C36.6459 12.1894 37.0231 12.4634 37.2715 12.8406C37.52 13.2178 37.6226 13.6725 37.5604 14.1199C37.5035 14.5534 37.2942 14.9525 36.9699 15.2457C36.6455 15.5389 36.2274 15.707 35.7904 15.7199C34.2904 15.7199 32.7904 15.7199 31.3004 15.7199L18.7904 15.7299Z" fill="url(#paint0_linear_940_3566)"/>
<path id="Vector_2" d="M14.1209 23.2601L26.1209 23.2601C26.605 23.2209 27.0853 23.3726 27.459 23.6828C27.8327 23.993 28.0703 24.4371 28.1209 24.9201C28.1841 25.4019 28.0562 25.8892 27.7647 26.2779C27.4732 26.6666 27.0411 26.9258 26.5609 27.0001C26.3844 27.0101 26.2074 27.0101 26.0309 27.0001L2.14092 27.0001C1.87851 27.0087 1.61612 26.9818 1.36092 26.9201C0.925972 26.7983 0.550613 26.5216 0.305616 26.1421C0.0606195 25.7626 -0.0370844 25.3066 0.030924 24.8601C0.0860426 24.4268 0.29517 24.0277 0.620127 23.7358C0.945084 23.4439 1.36419 23.2786 1.80092 23.2701C3.53092 23.2701 5.26092 23.2701 7.00092 23.2701L14.1209 23.2601Z" fill="url(#paint1_linear_940_3566)"/>
<path id="Vector_3" d="M10.3203 4.45998L1.96025 4.45998C1.65784 4.473 1.35681 4.41202 1.08331 4.28233C0.809801 4.15264 0.572079 3.95816 0.390778 3.71577C0.209477 3.47337 0.0900708 3.1904 0.0429269 2.89139C-0.00421698 2.59239 0.0223276 2.2864 0.120251 1.99998C0.237383 1.65054 0.457848 1.34489 0.752476 1.12347C1.0471 0.902051 1.40201 0.7753 1.77025 0.759984C2.28025 0.759984 2.77025 0.759984 3.31025 0.759984L18.4502 0.759985C18.7426 0.74598 19.0354 0.772907 19.3203 0.839985C19.7528 0.962135 20.1265 1.2368 20.3723 1.61319C20.618 1.98957 20.7191 2.44221 20.6569 2.88738C20.5947 3.33255 20.3734 3.74014 20.0339 4.03475C19.6944 4.32937 19.2597 4.49108 18.8103 4.48998C15.9803 4.48998 13.1503 4.48998 10.3203 4.48998L10.3203 4.45998Z" fill="url(#paint2_linear_940_3566)"/>
</g>
<defs>
<linearGradient id="paint0_linear_940_3566" x1="37.5781" y1="15.7314" x2="36.721" y2="7.12167" gradientUnits="userSpaceOnUse">
<stop stop-color="#AD00FF"/>
<stop offset="1" stop-color="#007EE0"/>
</linearGradient>
<linearGradient id="paint1_linear_940_3566" x1="28.1367" y1="27.0076" x2="26.9907" y2="18.4212" gradientUnits="userSpaceOnUse">
<stop stop-color="#AD00FF"/>
<stop offset="1" stop-color="#007EE0"/>
</linearGradient>
<linearGradient id="paint2_linear_940_3566" x1="20.6748" y1="4.48999" x2="19.153" y2="-3.92774" gradientUnits="userSpaceOnUse">
<stop stop-color="#AD00FF"/>
<stop offset="1" stop-color="#007EE0"/>
</linearGradient>
<clipPath id="clip0_940_3566">
<rect width="37.56" height="26.29" fill="white" transform="translate(37.5605 27) rotate(-180)"/>
</clipPath>
</defs>
</svg>
