<svg width="68" height="72" viewBox="0 0 68 72" fill="none" xmlns="http://www.w3.org/2000/svg">
<g id="Group 40360">
<path id="Vector (Stroke)" fill-rule="evenodd" clip-rule="evenodd" d="M44.7711 60.6772C44.0211 60.6772 43.3556 61.0186 42.9348 61.5518C42.647 61.9179 42.4762 62.3715 42.4762 62.8628C42.4762 63.3543 42.6472 63.808 42.9351 64.1739C43.3556 64.707 44.0211 65.0485 44.7711 65.0485C46.0391 65.0485 47.0661 64.0704 47.0661 62.8628C47.0661 61.6552 46.0392 60.6772 44.7711 60.6772ZM41.7016 60.6693C42.4011 59.7827 43.5155 59.208 44.7711 59.208C46.8912 59.208 48.6087 60.8439 48.6087 62.8628C48.6087 64.8818 46.891 66.5176 44.7711 66.5176C43.5155 66.5176 42.4009 65.9429 41.7015 65.0561L41.7011 65.0556C41.221 64.4457 40.9336 63.6849 40.9336 62.8628C40.9336 62.0409 41.2208 61.2802 41.7011 60.6699L41.7016 60.6693Z" fill="#969696"/>
<path id="Vector (Stroke)_2" fill-rule="evenodd" clip-rule="evenodd" d="M19.0054 60.6772C18.2911 60.6772 17.6572 61.0186 17.2565 61.5518C16.9824 61.9179 16.8197 62.3715 16.8197 62.8628C16.8197 63.3543 16.9826 63.808 17.2567 64.1739C17.6572 64.707 18.2911 65.0485 19.0054 65.0485C20.213 65.0485 21.191 64.0704 21.191 62.8628C21.191 61.6552 20.2131 60.6772 19.0054 60.6772ZM16.082 60.6693C16.7483 59.7827 17.8095 59.208 19.0054 59.208C21.0245 59.208 22.6602 60.8439 22.6602 62.8628C22.6602 64.8818 21.0243 66.5176 19.0054 66.5176C17.8096 66.5176 16.7481 65.9429 16.0819 65.0561L16.0816 65.0556C15.6243 64.4457 15.3506 63.6849 15.3506 62.8628C15.3506 62.0409 15.6241 61.2802 16.0815 60.6699L16.082 60.6693Z" fill="#969696"/>
<path id="Vector (Stroke)_3" fill-rule="evenodd" clip-rule="evenodd" d="M20.5449 60.7224C20.6703 60.4664 20.9265 60.3047 21.2068 60.3047H42.3864C42.6666 60.3047 42.9228 60.4663 43.0482 60.7223C43.1736 60.9782 43.1466 61.2846 42.9786 61.5136C42.7021 61.8904 42.5381 62.3574 42.5381 62.8631C42.5381 63.369 42.7021 63.8358 42.9786 64.2123C43.1467 64.4413 43.1737 64.7477 43.0484 65.0037C42.923 65.2597 42.6668 65.4214 42.3866 65.4214H21.2068C20.9265 65.4214 20.6703 65.2597 20.5449 65.0036C20.4196 64.7476 20.4466 64.4412 20.6148 64.2122C20.8911 63.836 21.0551 63.3692 21.0551 62.8631C21.0551 62.3572 20.8912 61.8903 20.6148 61.5138C20.4466 61.2848 20.4196 60.9784 20.5449 60.7224ZM22.3899 61.8161C22.4843 62.1487 22.535 62.5002 22.535 62.8631C22.535 63.2261 22.4843 63.5774 22.3899 63.9099H41.2033C41.1089 63.5775 41.0582 63.2261 41.0582 62.8631C41.0582 62.5001 41.109 62.1487 41.2034 61.8161H22.3899Z" fill="#969696"/>
<path id="Vector (Stroke)_4" fill-rule="evenodd" clip-rule="evenodd" d="M10.5986 33.9807C10.5986 33.582 10.9278 33.2588 11.3339 33.2588H34.2028C34.6089 33.2588 34.938 33.582 34.938 33.9807C34.938 34.3794 34.6089 34.7027 34.2028 34.7027H12.0691V45.7031H51.5238V34.7027H48.8816C48.4755 34.7027 48.1464 34.3794 48.1464 33.9807C48.1464 33.582 48.4755 33.2588 48.8816 33.2588H52.259C52.6651 33.2588 52.9943 33.582 52.9943 33.9807V46.4251C52.9943 46.8238 52.6651 47.147 52.259 47.147H11.3339C10.9278 47.147 10.5986 46.8238 10.5986 46.4251V33.9807Z" fill="#969696"/>
<path id="Vector (Stroke)_5" fill-rule="evenodd" clip-rule="evenodd" d="M10.3268 46.1997C10.427 45.8929 10.7111 45.6855 11.0313 45.6855H52.1963C52.5165 45.6855 52.8006 45.8929 52.9008 46.1997L55.5153 54.2054C55.5898 54.4334 55.5513 54.6837 55.4118 54.8782C55.2724 55.0728 55.0488 55.188 54.8108 55.188H8.41657C8.17858 55.188 7.95505 55.0728 7.81556 54.8782C7.67608 54.6837 7.63759 54.4334 7.71208 54.2053L10.3268 46.1997Z" fill="#696969"/>
<path id="Vector (Stroke)_6" fill-rule="evenodd" clip-rule="evenodd" d="M10.4301 33.6637C10.5556 33.4156 10.8123 33.2588 11.093 33.2588H52.5004C52.7812 33.2588 53.0378 33.4156 53.1634 33.6637L63.5152 54.1274C63.6301 54.3545 63.6178 54.6241 63.4827 54.8401C63.3477 55.0561 63.1091 55.1876 62.8523 55.1876H0.741164C0.484293 55.1876 0.245738 55.0561 0.110693 54.8401C-0.0243519 54.6241 -0.0366285 54.3545 0.0782475 54.1274L10.4301 33.6637ZM11.5511 34.7239L1.94039 53.7224H61.653L52.0424 34.7239H11.5511Z" fill="#969696"/>
<path id="Vector (Stroke)_7" fill-rule="evenodd" clip-rule="evenodd" d="M0 54.4655C0 54.0569 0.33183 53.7256 0.741163 53.7256H62.8523C63.2616 53.7256 63.5934 54.0569 63.5934 54.4655V71.2596C63.5934 71.6683 63.2616 71.9996 62.8523 71.9996H0.741163C0.33183 71.9996 0 71.6683 0 71.2596V54.4655ZM1.48233 55.2055V70.5197H62.1111V55.2055H1.48233Z" fill="#747474"/>
<g id="Group">
<path id="Vector (Stroke)_8" fill-rule="evenodd" clip-rule="evenodd" d="M4.58017 25.8475C4.87583 25.6048 5.32595 25.6824 5.58555 26.0208L8.12383 29.3297C8.38343 29.6681 8.3542 30.1392 8.05855 30.3818C7.7629 30.6245 7.31277 30.5469 7.05317 30.2085L4.51489 26.8996C4.25529 26.5612 4.28452 26.0901 4.58017 25.8475Z" fill="white"/>
<path id="Vector (Stroke)_9" fill-rule="evenodd" clip-rule="evenodd" d="M9.92684 24.4246C10.3192 24.4923 10.6166 24.88 10.591 25.2906L10.4145 28.1295C10.3889 28.5401 10.0502 28.8181 9.65782 28.7504C9.26547 28.6827 8.9681 28.295 8.99364 27.8844L9.17018 25.0455C9.19572 24.6349 9.53448 24.3569 9.92684 24.4246Z" fill="white"/>
<path id="Vector (Stroke)_10" fill-rule="evenodd" clip-rule="evenodd" d="M1.98227 30.8221C2.00788 30.394 2.35525 30.104 2.75814 30.1743L5.54364 30.6607C5.94653 30.731 6.25238 31.1351 6.22677 31.5632C6.20117 31.9913 5.8538 32.2813 5.45091 32.211L2.66541 31.7246C2.26251 31.6543 1.95667 31.2502 1.98227 30.8221Z" fill="white"/>
</g>
<g id="Group_2">
<path id="Vector" d="M20.2671 43.4374C20.2552 43.4374 20.2433 43.4371 20.2313 43.4365C19.6844 43.4105 19.1514 43.3419 18.6471 43.2329C18.2481 43.1467 17.9944 42.7533 18.0808 42.3543C18.1671 41.9553 18.5604 41.7017 18.9594 41.7881C19.3844 41.8799 19.8359 41.9377 20.3015 41.9599C20.7093 41.9792 21.0242 42.3256 21.0046 42.7334C20.986 43.1292 20.6591 43.4374 20.2671 43.4374ZM23.2053 43.1975C22.8589 43.1975 22.5496 42.9528 22.4807 42.6C22.4022 42.1994 22.6634 41.811 23.0641 41.7326C23.5087 41.6457 23.9711 41.5335 24.4383 41.3994C24.8308 41.2863 25.2402 41.5134 25.3529 41.9059C25.4655 42.2983 25.2387 42.7078 24.8463 42.8205C24.3382 42.9662 23.8342 43.0885 23.3481 43.1837C23.3002 43.1929 23.2525 43.1975 23.2053 43.1975ZM16.1137 42.0759C15.9642 42.0759 15.8133 42.0307 15.6827 41.9368C15.2391 41.6178 14.8297 41.2484 14.4661 40.8392C14.195 40.5341 14.2226 40.0667 14.5278 39.7954C14.8329 39.5243 15.3003 39.5521 15.5714 39.8571C15.8628 40.1852 16.1906 40.481 16.546 40.7366C16.8775 40.9749 16.9529 41.4368 16.7145 41.7684C16.5701 41.969 16.3436 42.0759 16.1137 42.0759ZM13.7966 38.4631C13.4286 38.4631 13.1098 38.1885 13.0638 37.8139C12.9997 37.2922 12.9538 36.7796 12.9278 36.2907C12.9061 35.8829 13.2189 35.5349 13.6267 35.5132C14.0315 35.4897 14.3825 35.8043 14.4042 36.2119C14.4286 36.6669 14.4713 37.1452 14.5312 37.6334C14.581 38.0386 14.293 38.4075 13.8878 38.4573C13.8572 38.4612 13.8266 38.4631 13.7966 38.4631ZM13.7793 34.0423C13.7433 34.0423 13.707 34.0396 13.6703 34.0343C13.2664 33.9747 12.9874 33.5989 13.047 33.195C13.1271 32.6525 13.2418 32.1323 13.3881 31.6485C13.506 31.2578 13.9188 31.0363 14.3094 31.1547C14.7003 31.2729 14.9213 31.6854 14.8032 32.0761C14.6778 32.4908 14.5791 32.9398 14.5096 33.411C14.4553 33.7782 14.1397 34.0423 13.7793 34.0423ZM42.2308 32.4487C42.2099 32.4487 42.1891 32.4478 42.1679 32.446C41.6919 32.4059 41.1777 32.3391 40.6395 32.2473C40.2371 32.1786 39.9666 31.7967 40.0353 31.3943C40.1041 30.9918 40.4849 30.7207 40.8885 30.79C41.3853 30.8749 41.8575 30.9364 42.2918 30.9729C42.6987 31.007 43.0007 31.3645 42.9664 31.7714C42.9341 32.157 42.611 32.4487 42.2308 32.4487ZM45.1668 32.2729C44.8379 32.2729 44.5379 32.0517 44.4517 31.7185C44.3495 31.3233 44.5871 30.92 44.9823 30.8178C45.4124 30.7066 45.8006 30.5449 46.1364 30.3372C46.4832 30.1224 46.939 30.2294 47.154 30.5765C47.3689 30.9237 47.2617 31.3793 46.9146 31.5941C46.4524 31.8804 45.9269 32.1008 45.3526 32.2492C45.2904 32.2652 45.2282 32.2729 45.1668 32.2729ZM37.8809 31.6037C37.8169 31.6037 37.752 31.5953 37.6871 31.5779C37.2365 31.4558 36.7656 31.3214 36.2471 31.1667C35.8559 31.0501 35.6334 30.6383 35.7499 30.2471C35.8666 29.8559 36.2777 29.6331 36.6697 29.7499C37.176 29.9009 37.6354 30.032 38.0739 30.1507C38.4679 30.2575 38.7007 30.6635 38.5941 31.0576C38.5047 31.3869 38.2065 31.6037 37.8809 31.6037ZM33.637 30.3138C33.5617 30.3138 33.4853 30.3023 33.4099 30.2779L32.0027 29.8231C31.6142 29.6978 31.4007 29.2811 31.5261 28.8927C31.6514 28.5042 32.068 28.2906 32.4564 28.4161L33.8637 28.8709C34.2521 28.9962 34.4656 29.4129 34.3402 29.8014C34.2394 30.1144 33.9492 30.3138 33.637 30.3138ZM15.4698 30.0124C15.3 30.0124 15.1294 29.9541 14.9901 29.8352C14.6796 29.57 14.643 29.1034 14.9082 28.7931C15.2646 28.3759 15.6724 28.0001 16.1203 27.676C16.4509 27.4368 16.9132 27.5107 17.1524 27.8416C17.3918 28.1723 17.3176 28.6345 16.9869 28.8737C16.6338 29.1291 16.3125 29.425 16.0322 29.7532C15.8862 29.9244 15.6786 30.0124 15.4698 30.0124ZM48.3555 29.4498C48.2622 29.4498 48.1674 29.4321 48.0758 29.3945C47.8713 29.3108 47.7246 29.1463 47.6574 28.9529C47.4798 28.8914 47.3033 28.8224 47.1284 28.7462C46.7542 28.583 46.5831 28.1475 46.7462 27.7731C46.9093 27.3989 47.3451 27.2276 47.7192 27.391C47.8073 27.4294 47.8955 27.4653 47.9842 27.499C48.0225 27.3689 48.0583 27.2406 48.0916 27.1148C48.196 26.72 48.6 26.4842 48.9952 26.5891C49.3899 26.6934 49.6253 27.0979 49.5209 27.4927C49.4772 27.658 49.4297 27.8268 49.3786 27.9979C49.5294 28.1617 49.6048 28.3914 49.5631 28.6277C49.5022 28.973 49.2105 29.2198 48.8746 29.2375C48.7365 29.3731 48.5495 29.4498 48.3555 29.4498ZM29.406 28.9741C29.3358 28.9741 29.2645 28.964 29.1938 28.9429C28.6925 28.793 28.2328 28.6606 27.7883 28.5384C27.3946 28.4301 27.1633 28.0233 27.2716 27.6296C27.3798 27.236 27.7865 27.0048 28.1804 27.1129C28.6354 27.2381 29.1054 27.3734 29.6174 27.5264C30.0086 27.6435 30.2308 28.0554 30.1139 28.4464C30.0181 28.7669 29.7241 28.9741 29.406 28.9741ZM51.7155 28.8673C51.4473 28.8673 51.1886 28.7208 51.0575 28.4658C50.8709 28.1027 51.014 27.6571 51.3771 27.4705C51.7285 27.29 52.0486 27.0417 52.3286 26.7326C52.6027 26.4301 53.0701 26.4066 53.3728 26.6809C53.6755 26.955 53.6985 27.4224 53.4246 27.7251C53.0247 28.1665 52.5632 28.5233 52.053 28.7856C51.9447 28.841 51.8292 28.8673 51.7155 28.8673ZM25.1142 27.8509C25.068 27.8509 25.0211 27.8465 24.9739 27.8374C24.5069 27.7477 24.0348 27.6766 23.5709 27.626C23.1651 27.5818 22.8719 27.2169 22.9161 26.8111C22.9605 26.4053 23.3255 26.1127 23.731 26.1563C24.2347 26.2113 24.7467 26.2883 25.2528 26.3856C25.6537 26.4626 25.9163 26.8501 25.8393 27.2511C25.7714 27.6049 25.4617 27.8509 25.1142 27.8509ZM19.2385 27.8253C18.9038 27.8253 18.6006 27.5966 18.52 27.2567C18.4257 26.8595 18.6712 26.461 19.0685 26.3667C19.5608 26.2498 20.0858 26.1647 20.6291 26.1139C21.0336 26.0747 21.396 26.3744 21.434 26.781C21.4721 27.1874 21.1735 27.5478 20.7669 27.5858C20.292 27.6303 19.8354 27.7041 19.4099 27.8051C19.3525 27.819 19.295 27.8253 19.2385 27.8253ZM45.0695 27.0635C44.8543 27.0635 44.6409 26.9699 44.4947 26.7897C44.1031 26.3062 43.8254 25.8012 43.6696 25.2885L43.6563 25.2435C43.5413 24.8519 43.7654 24.441 44.1572 24.3259C44.549 24.2108 44.9598 24.4353 45.0747 24.8268L45.0843 24.8588C45.1842 25.1879 45.3723 25.5243 45.6433 25.8589C45.9003 26.1761 45.8515 26.6415 45.5343 26.8986C45.3974 27.0095 45.2329 27.0635 45.0695 27.0635ZM54.1985 25.3577C54.136 25.3577 54.0723 25.3497 54.009 25.3328C53.6143 25.2283 53.379 24.8238 53.4834 24.4291C53.5933 24.0139 53.6795 23.5589 53.7395 23.0764C53.7901 22.6714 54.161 22.3845 54.5643 22.4342C54.9695 22.4846 55.2571 22.8539 55.2067 23.2592C55.1384 23.8074 55.0395 24.3282 54.9128 24.8075C54.825 25.1386 54.5259 25.3577 54.1985 25.3577ZM49.1685 25.1211C48.7819 25.1211 48.4568 24.8206 48.4316 24.4294C48.4022 23.9721 48.3125 23.58 48.1649 23.2641C47.9924 22.8942 48.1522 22.4542 48.5223 22.2816C48.892 22.1091 49.3321 22.2689 49.5048 22.639C49.7303 23.1224 49.8657 23.693 49.9069 24.3346C49.9333 24.742 49.6241 25.0935 49.2168 25.1198C49.2006 25.1207 49.1844 25.1211 49.1685 25.1211ZM45.106 23.0794C44.9025 23.0794 44.7001 22.9959 44.554 22.8321C44.2823 22.5272 44.3092 22.06 44.6139 21.7883C45.0883 21.3655 45.664 21.081 46.2787 20.9657C46.6804 20.8903 47.0661 21.1546 47.1415 21.5559C47.2169 21.9571 46.9527 22.3434 46.5514 22.4187C46.206 22.4834 45.8673 22.6515 45.5978 22.8919C45.4567 23.0176 45.2809 23.0794 45.106 23.0794ZM54.6172 21.0389C54.2943 21.0389 54.1101 20.8909 53.9988 20.6947C53.8968 20.5745 53.8322 20.4206 53.8244 20.2509C53.8205 20.1694 53.8162 20.0872 53.8113 20.0041C53.8109 19.9975 53.8105 19.9908 53.8102 19.9842C53.8037 19.8687 53.8013 19.7927 53.8013 19.7467C53.8013 19.2362 54.1845 18.9609 54.5449 18.9609C55.2096 18.9609 55.2914 19.6144 55.3222 19.8603C55.3359 19.97 55.3588 20.1703 55.3588 20.2806C55.359 20.7553 54.982 21.0389 54.6172 21.0389Z" fill="#B4B4B4"/>
</g>
<g id="Group_3">
<path id="Vector (Stroke)_11" fill-rule="evenodd" clip-rule="evenodd" d="M51.5123 5.35549L52.8338 14.6063C52.8385 14.6391 52.841 14.6722 52.8412 14.7053C52.8412 14.7059 52.8413 14.7071 52.8413 14.7086C52.8415 14.7145 52.842 14.7266 52.8433 14.744C52.8458 14.7789 52.8511 14.8336 52.8624 14.9012C52.8855 15.0399 52.9303 15.2135 53.0127 15.3782C53.0936 15.54 53.2033 15.6793 53.3541 15.7798C53.5002 15.8772 53.7283 15.9675 54.0979 15.9675C54.4675 15.9675 54.6956 15.8772 54.8417 15.7798C54.9925 15.6793 55.1022 15.54 55.1831 15.3782C55.2655 15.2135 55.3103 15.0399 55.3335 14.9012C55.3447 14.8336 55.3501 14.7789 55.3526 14.744C55.3538 14.7266 55.3543 14.7145 55.3545 14.7086C55.3546 14.7071 55.3546 14.706 55.3546 14.7053C55.3548 14.6722 55.3573 14.6391 55.362 14.6063L56.6836 5.35549C56.6829 5.34194 56.6819 5.32553 56.6806 5.30647C56.6755 5.23517 56.6649 5.12848 56.6433 4.99851C56.5993 4.73506 56.5129 4.3951 56.3474 4.06409C56.1833 3.73598 55.9489 3.43035 55.611 3.2051C55.2777 2.98293 54.8002 2.80949 54.0979 2.80949C53.3956 2.80949 52.9181 2.98293 52.5848 3.2051C52.247 3.43035 52.0125 3.73598 51.8484 4.06409C51.6829 4.3951 51.5965 4.73506 51.5526 4.99851C51.5309 5.12848 51.5204 5.23517 51.5153 5.30647C51.5139 5.32553 51.513 5.34195 51.5123 5.35549ZM57.4244 5.39674C58.1636 5.39674 58.1636 5.39637 58.1636 5.39598L58.1636 5.39514L58.1636 5.39323L58.1636 5.38846C58.1635 5.38636 58.1635 5.38398 58.1635 5.38132C58.1635 5.37944 58.1634 5.37743 58.1634 5.37528C58.1632 5.36489 58.1629 5.35131 58.1624 5.33476C58.1613 5.30167 58.1592 5.25657 58.1552 5.20114C58.1473 5.09053 58.1319 4.93734 58.1016 4.75545C58.0415 4.39518 57.9201 3.90353 57.6698 3.40292C57.418 2.89942 57.0288 2.37343 56.4311 1.97497C55.8288 1.57342 55.0589 1.33105 54.0979 1.33105C53.1369 1.33105 52.3671 1.57342 51.7648 1.97497C51.1671 2.37343 50.7778 2.89942 50.5261 3.40292C50.2758 3.90353 50.1543 4.39518 50.0943 4.75545C50.0639 4.93734 50.0485 5.09053 50.0406 5.20114C50.0366 5.25657 50.0346 5.30167 50.0334 5.33476C50.0329 5.35131 50.0326 5.36489 50.0324 5.37528C50.0323 5.38047 50.0323 5.38488 50.0323 5.38846L50.0322 5.39323L50.0322 5.39514L50.0322 5.39598C50.0322 5.39637 50.0322 5.39674 50.7714 5.39674H50.0322C50.0322 5.43172 50.0347 5.46666 50.0397 5.50128L51.3643 14.7738C51.3652 14.7947 51.3665 14.82 51.3686 14.8493C51.3739 14.9235 51.3841 15.0247 51.4041 15.1442C51.4433 15.3798 51.5232 15.7051 51.6903 16.0394C51.8589 16.3766 52.1234 16.7362 52.534 17.0099C52.9492 17.2868 53.4696 17.446 54.0979 17.446C54.7262 17.446 55.2466 17.2868 55.6618 17.0099C56.0724 16.7362 56.3369 16.3766 56.5055 16.0394C56.6726 15.7051 56.7525 15.3798 56.7918 15.1442C56.8117 15.0247 56.8219 14.9235 56.8272 14.8493C56.8293 14.82 56.8307 14.7947 56.8315 14.7738L58.1562 5.50128C58.1611 5.46666 58.1636 5.43172 58.1636 5.39674H57.4244Z" fill="url(#paint0_linear_200_17068)"/>
<path id="Vector (Stroke)_12" fill-rule="evenodd" clip-rule="evenodd" d="M41.8199 9.03037C41.8465 9.10801 41.883 9.20709 41.9307 9.32168C42.0577 9.62635 42.2599 10.0296 42.5595 10.4289C43.1496 11.2155 44.1012 11.9755 45.6533 11.9755C47.8103 11.9755 49.6514 10.922 50.7045 10.1516L50.3486 7.66022C49.2554 6.92352 47.5785 6.0839 45.6533 6.0839C44.1013 6.0839 43.1497 6.84411 42.5596 7.63105C42.26 8.03057 42.0578 8.434 41.9308 8.73883C41.883 8.85351 41.8465 8.95267 41.8199 9.03037ZM41.0468 9.03041L40.3297 9.20978C40.3003 9.09204 40.3003 8.96886 40.3297 8.85112L41.0468 9.03041ZM41.3768 6.74405C42.1687 5.68812 43.5204 4.60547 45.6533 4.60547C48.1809 4.60547 50.2774 5.78477 51.4654 6.63624C51.6293 6.75368 51.7381 6.93296 51.7666 7.13254L52.2294 10.3718C52.2665 10.6316 52.163 10.8917 51.9575 11.055C50.9053 11.8912 48.5633 13.4539 45.6533 13.4539C43.5205 13.4539 42.1688 12.3717 41.3769 11.3162C40.9855 10.7944 40.727 10.2766 40.5661 9.89048C40.4852 9.69644 40.4278 9.53292 40.3899 9.41501C40.3709 9.35598 40.3567 9.30816 40.3469 9.27339C40.342 9.25599 40.3381 9.24185 40.3353 9.23118C40.3338 9.22584 40.3327 9.22137 40.3317 9.21779L40.3305 9.21311L40.3301 9.21127L40.3299 9.21048C40.3298 9.21013 40.3297 9.20978 41.0468 9.03041C40.3297 8.85112 40.3298 8.85077 40.3299 8.85041L40.3301 8.84963L40.3305 8.84779L40.3317 8.8431C40.3327 8.83953 40.3338 8.83506 40.3352 8.82972C40.3381 8.81905 40.3419 8.8049 40.3469 8.7875C40.3567 8.75272 40.3709 8.70488 40.3899 8.64583C40.4278 8.52789 40.4852 8.36432 40.566 8.17021C40.727 7.78396 40.9854 7.26596 41.3768 6.74405ZM57.8479 7.66022L57.492 10.1516C58.545 10.922 60.3862 11.9755 62.5431 11.9755C64.0948 11.9755 65.046 11.2156 65.6359 10.429C65.9354 10.0297 66.1375 9.62646 66.2644 9.32179C66.3122 9.20716 66.3487 9.10804 66.3752 9.03038C66.3486 8.95267 66.3122 8.85347 66.2644 8.73873C66.1374 8.4339 65.9352 8.03048 65.6357 7.63096C65.0458 6.84403 64.0946 6.0839 62.5431 6.0839C60.618 6.0839 58.941 6.92352 57.8479 7.66022ZM67.1482 9.03041C67.8654 8.8512 67.8653 8.85085 67.8652 8.85049L67.865 8.84971L67.8646 8.84787L67.8634 8.84318C67.8625 8.83961 67.8613 8.83514 67.8599 8.8298C67.857 8.81913 67.8532 8.80498 67.8482 8.78759C67.8384 8.75281 67.8242 8.70497 67.8053 8.64592C67.7674 8.52798 67.71 8.36441 67.6292 8.17031C67.4683 7.78406 67.2099 7.26606 66.8187 6.74414C66.0271 5.68821 64.6757 4.60547 62.5431 4.60547C60.0157 4.60547 57.919 5.78477 56.731 6.63624C56.5671 6.75368 56.4583 6.93296 56.4298 7.13254L55.9671 10.3718C55.9299 10.6316 56.0334 10.8917 56.2389 11.055C57.2911 11.8912 59.6331 13.4539 62.5431 13.4539C64.6756 13.4539 66.027 12.3717 66.8186 11.3161C67.2099 10.7943 67.4683 10.2765 67.6292 9.89037C67.71 9.69633 67.7674 9.53281 67.8052 9.4149C67.8242 9.35587 67.8384 9.30804 67.8482 9.27328C67.8532 9.25589 67.857 9.24174 67.8599 9.23107C67.8613 9.22573 67.8624 9.22126 67.8634 9.21769L67.8646 9.213L67.8652 9.21038C67.8653 9.21002 67.8654 9.20967 67.1482 9.03041ZM67.1482 9.03041L67.8654 9.20967C67.8948 9.09199 67.8948 8.96888 67.8654 8.8512L67.1482 9.03041Z" fill="url(#paint1_linear_200_17068)"/>
<path id="Vector (Stroke)_13" fill-rule="evenodd" clip-rule="evenodd" d="M56.3858 0.0601397C56.7609 0.221194 56.9345 0.655871 56.7734 1.03102L56.1081 2.58071C55.9471 2.95586 55.5124 3.12942 55.1372 2.96836C54.7621 2.80731 54.5885 2.37263 54.7496 1.99748L55.4149 0.447792C55.5759 0.0726436 56.0106 -0.100914 56.3858 0.0601397Z" fill="url(#paint2_linear_200_17068)"/>
<path id="Vector (Stroke)_14" fill-rule="evenodd" clip-rule="evenodd" d="M51.8111 0.0601397C52.1862 -0.100914 52.6209 0.0726436 52.782 0.447792L53.4472 1.99748C53.6083 2.37263 53.4347 2.80731 53.0596 2.96836C52.6844 3.12942 52.2498 2.95586 52.0887 2.58071L51.4234 1.03102C51.2624 0.655871 51.4359 0.221194 51.8111 0.0601397Z" fill="url(#paint3_linear_200_17068)"/>
<path id="Vector (Stroke)_15" fill-rule="evenodd" clip-rule="evenodd" d="M51.2686 13.665C51.2686 13.2567 51.5995 12.9258 52.0078 12.9258H56.2433C56.6516 12.9258 56.9825 13.2567 56.9825 13.665C56.9825 14.0733 56.6516 14.4042 56.2433 14.4042H52.0078C51.5995 14.4042 51.2686 14.0733 51.2686 13.665Z" fill="url(#paint4_linear_200_17068)"/>
<path id="Vector (Stroke)_16" fill-rule="evenodd" clip-rule="evenodd" d="M50.9082 11.0986C50.9082 10.6903 51.2392 10.3594 51.6474 10.3594H56.6093C57.0176 10.3594 57.3485 10.6903 57.3485 11.0986C57.3485 11.5068 57.0176 11.8378 56.6093 11.8378H51.6474C51.2392 11.8378 50.9082 11.5068 50.9082 11.0986Z" fill="url(#paint5_linear_200_17068)"/>
</g>
</g>
<defs>
<linearGradient id="paint0_linear_200_17068" x1="50.0322" y1="1.33105" x2="65.1211" y2="8.9437" gradientUnits="userSpaceOnUse">
<stop stop-color="#AD00FF"/>
<stop offset="1" stop-color="#007EE0"/>
</linearGradient>
<linearGradient id="paint1_linear_200_17068" x1="40.3076" y1="4.60547" x2="46.301" y2="23.2839" gradientUnits="userSpaceOnUse">
<stop stop-color="#AD00FF"/>
<stop offset="1" stop-color="#007EE0"/>
</linearGradient>
<linearGradient id="paint2_linear_200_17068" x1="54.6895" y1="0" x2="58.0146" y2="2.35383" gradientUnits="userSpaceOnUse">
<stop stop-color="#AD00FF"/>
<stop offset="1" stop-color="#007EE0"/>
</linearGradient>
<linearGradient id="paint3_linear_200_17068" x1="51.3633" y1="0" x2="54.6885" y2="2.35383" gradientUnits="userSpaceOnUse">
<stop stop-color="#AD00FF"/>
<stop offset="1" stop-color="#007EE0"/>
</linearGradient>
<linearGradient id="paint4_linear_200_17068" x1="51.2686" y1="12.9258" x2="52.1034" y2="16.1519" gradientUnits="userSpaceOnUse">
<stop stop-color="#AD00FF"/>
<stop offset="1" stop-color="#007EE0"/>
</linearGradient>
<linearGradient id="paint5_linear_200_17068" x1="50.9082" y1="10.3594" x2="51.6589" y2="13.6292" gradientUnits="userSpaceOnUse">
<stop stop-color="#AD00FF"/>
<stop offset="1" stop-color="#007EE0"/>
</linearGradient>
</defs>
</svg>
