<svg width="53" height="53" viewBox="0 0 53 53" fill="none" xmlns="http://www.w3.org/2000/svg">
<rect width="53" height="53" rx="10" fill="url(#paint0_linear_200_8911)"/>
<path d="M26.5 12C18.525 12 12 18.525 12 26.5C12 34.475 18.525 41 26.5 41C34.475 41 41 34.475 41 26.5C41 18.525 34.475 12 26.5 12ZM26.4094 25.5938C28.4031 25.5938 30.125 27.225 30.125 29.2188C30.125 30.9406 29.2188 32.3 27.4062 32.7531V33.75C27.4062 34.2938 27.0437 34.6562 26.5 34.6562C25.9563 34.6562 25.5938 34.2938 25.5938 33.75V32.7531C24.6875 32.3906 22.875 30.9406 22.875 29.2188C22.875 28.675 23.3281 28.3125 23.8719 28.3125C24.4156 28.3125 24.7781 28.675 24.7781 29.2188C24.7781 30.2156 25.5938 31.0312 26.5906 31.0312C27.5875 31.0312 28.4031 30.2156 28.4031 29.2188C28.4031 28.2219 27.5875 27.4062 26.5906 27.4062C24.5969 27.4062 23.0562 25.775 23.0562 23.7812C23.0562 22.0594 24.8688 20.7 25.775 20.2469V19.25C25.775 18.7063 26.1375 18.3438 26.6813 18.3438C27.225 18.3438 27.5875 18.7063 27.5875 19.25V20.2469C29.4 20.6094 30.3063 22.0594 30.3063 23.7812C30.3063 24.325 29.9437 24.6875 29.4906 24.6875C29.0375 24.6875 28.5844 24.325 28.5844 23.7812C28.5844 22.7844 27.7687 21.9688 26.7719 21.9688C25.775 21.9688 24.9594 22.7844 24.9594 23.7812C24.9594 24.7781 25.4125 25.5938 26.4094 25.5938Z" fill="white"/>
<defs>
<linearGradient id="paint0_linear_200_8911" x1="0" y1="0" x2="61.6993" y2="61.6912" gradientUnits="userSpaceOnUse">
<stop stop-color="#AD00FF"/>
<stop offset="1" stop-color="#007EE0"/>
</linearGradient>
</defs>
</svg>
