<svg width="63" height="63" viewBox="0 0 63 63" fill="none" xmlns="http://www.w3.org/2000/svg">
<g id="Group 1000003891">
<rect id="Rectangle 40400" width="62.9846" height="62.9846" rx="10" fill="url(#paint0_linear_200_12983)"/>
<g id="Group 1000003944">
<path id="Vector" d="M36.6207 46.9995C36.2006 46.846 35.848 46.5492 35.6253 46.1612C35.0228 45.2313 34.3942 44.3145 33.7917 43.3846C33.7543 43.3117 33.6951 43.2523 33.6223 43.2147C33.5495 43.1772 33.4667 43.1633 33.3857 43.175C32.6522 43.175 31.9319 43.175 31.1984 43.175C30.851 43.175 30.5179 43.0371 30.2723 42.7914C30.0267 42.5458 29.8887 42.2127 29.8887 41.8653C29.8887 41.5179 30.0267 41.1848 30.2723 40.9392C30.5179 40.6936 30.851 40.5556 31.1984 40.5556H34.2894C34.5198 40.5497 34.7478 40.6047 34.9501 40.7151C35.1525 40.8254 35.3222 40.9873 35.4419 41.1842C35.8611 41.8129 36.2933 42.494 36.7517 43.1227L37.0136 42.6119L39.5283 37.5956C39.6166 37.3506 39.7759 37.1376 39.9859 36.9836C40.1959 36.8297 40.4469 36.7418 40.7071 36.7311C40.9642 36.7229 41.2181 36.7905 41.4371 36.9256C41.656 37.0607 41.8303 37.2572 41.9382 37.4908C42.9991 39.2982 44.0862 41.0795 45.1471 42.8738C45.185 42.9537 45.2473 43.0195 45.3249 43.0618C45.4026 43.1042 45.4916 43.1209 45.5793 43.1096C46.208 43.1096 46.889 43.1096 47.4653 43.1096C47.8072 43.0557 48.1569 43.1303 48.4471 43.3189C48.7373 43.5075 48.9474 43.7968 49.037 44.1311V44.6681C48.9292 45.0011 48.707 45.2852 48.4096 45.4698C48.1123 45.6544 47.7592 45.7277 47.4129 45.6766C46.5354 45.6766 45.6579 45.6766 44.7935 45.6766C44.5093 45.6929 44.2263 45.6275 43.978 45.4883C43.7297 45.3491 43.5264 45.1417 43.392 44.8908C42.6193 43.5811 41.8335 42.2713 41.0476 40.9616C41.0476 40.883 40.9297 40.7913 40.8643 40.6734L40.6809 41.014C39.8165 42.7428 38.952 44.3276 38.1924 45.9648C38.1023 46.2003 37.9636 46.4141 37.7853 46.5924C37.607 46.7707 37.3932 46.9094 37.1577 46.9995H36.6207Z" fill="white"/>
<path id="Vector_2" d="M40.0946 34.3095C39.904 34.3507 39.7159 34.4032 39.5315 34.4667C39.0444 34.6168 38.5933 34.8651 38.2058 35.1962C37.8184 35.5274 37.5029 35.9343 37.2787 36.392L36.3357 38.2649L36.1785 38.5531C35.2744 38.1211 34.2653 37.9574 33.2709 38.0816H31.2015C30.2006 38.0461 29.2261 38.4074 28.4902 39.0868C27.7543 39.7663 27.3166 40.7089 27.2723 41.7095C27.2833 42.2014 27.3314 42.6918 27.4164 43.1765H19.5056C19.3513 43.1988 19.194 43.1847 19.0462 43.1351C18.8984 43.0856 18.7643 43.002 18.6547 42.8912C18.5451 42.7803 18.4631 42.6452 18.4152 42.4969C18.3674 42.3485 18.3551 42.191 18.3792 42.037V38.1078C18.3595 36.5791 18.8895 35.0942 19.8727 33.9234C20.856 32.7527 22.2269 31.9741 23.7361 31.7294C24.0829 31.6772 24.4331 31.6509 24.7838 31.6508H34.9212C35.8612 31.6403 36.7915 31.8408 37.6438 32.2375C38.4961 32.6342 39.2485 33.2169 39.8458 33.9428L40.0946 34.3095Z" fill="white"/>
<path id="Vector_3" d="M29.8608 29.1357C28.5987 29.1357 27.365 28.7613 26.3158 28.0599C25.2666 27.3584 24.4491 26.3615 23.9667 25.1952C23.4843 24.0289 23.3588 22.7458 23.6059 21.5081C23.8531 20.2705 24.4619 19.134 25.3553 18.2425C26.2486 17.351 27.3864 16.7445 28.6245 16.4999C29.8627 16.2552 31.1456 16.3834 32.3108 16.8682C33.4761 17.353 34.4714 18.1726 35.1707 19.2232C35.8699 20.2738 36.2418 21.5083 36.2392 22.7704C36.2289 24.4577 35.5532 26.0727 34.3588 27.2646C33.1645 28.4564 31.5481 29.1289 29.8608 29.1357Z" fill="white"/>
</g>
</g>
<defs>
<linearGradient id="paint0_linear_200_12983" x1="0" y1="0" x2="73.3227" y2="73.3131" gradientUnits="userSpaceOnUse">
<stop stop-color="#AD00FF"/>
<stop offset="1" stop-color="#007EE0"/>
</linearGradient>
</defs>
</svg>
