<svg width="63" height="63" viewBox="0 0 63 63" fill="none" xmlns="http://www.w3.org/2000/svg">
<rect width="62.9846" height="62.9846" rx="10" fill="url(#paint0_linear_200_12996)"/>
<g clip-path="url(#clip0_200_12996)">
<path d="M42.4445 46.0151H19.5693C18.8194 45.9109 18.1369 45.5257 17.6599 44.9375C17.1828 44.3492 16.9468 43.6017 16.9994 42.846V27.0156H44.9994V34.1161C44.9994 37.1058 44.9994 40.0955 44.9994 42.9955C45.0021 43.6205 44.809 44.2305 44.4472 44.74C44.0854 45.2494 43.5731 45.6326 42.9823 45.8357L42.4445 46.0151ZM26.009 32.995V31.9935C26.0014 31.7316 25.893 31.4829 25.7065 31.2991C25.52 31.1153 25.2697 31.0106 25.008 31.0069C24.3356 31.0069 23.6782 31.0069 23.0058 31.0069C22.7429 31.0068 22.4905 31.1103 22.3032 31.2949C22.1159 31.4795 22.0087 31.7304 22.0048 31.9935V33.9966C22.0027 34.1299 22.0276 34.2623 22.0782 34.3858C22.1287 34.5092 22.2037 34.6211 22.2987 34.7147C22.3936 34.8084 22.5066 34.8817 22.6307 34.9304C22.7548 34.9791 22.8875 35.0022 23.0208 34.9981C23.6782 34.9981 24.3356 34.9981 24.993 34.9981C25.1263 35.0022 25.259 34.9791 25.3831 34.9304C25.5072 34.8817 25.6202 34.8084 25.7151 34.7147C25.8101 34.6211 25.8851 34.5092 25.9356 34.3858C25.9861 34.2623 26.0111 34.1299 26.009 33.9966V32.995ZM31.0144 34.9981C31.3431 34.9981 31.6718 34.9981 32.0154 34.9981C32.2758 34.9942 32.5244 34.8891 32.7085 34.7049C32.8926 34.5207 32.9977 34.272 33.0016 34.0115C33.0016 33.3388 33.0016 32.6661 33.0016 32.0084C33.0036 31.875 32.9787 31.7426 32.9282 31.6192C32.8776 31.4958 32.8026 31.3838 32.7077 31.2902C32.6127 31.1966 32.4997 31.1232 32.3756 31.0745C32.2515 31.0258 32.1188 31.0028 31.9855 31.0069C31.3281 31.0069 30.6707 31.0069 30.0133 31.0069C29.88 31.0048 29.7476 31.0298 29.6243 31.0803C29.5009 31.1308 29.389 31.2059 29.2955 31.3009C29.2019 31.3959 29.1285 31.5089 29.0799 31.6331C29.0312 31.7573 29.0082 31.89 29.0122 32.0234C29.0122 32.6811 29.0122 33.3388 29.0122 33.9816C29.0082 34.1149 29.0312 34.2477 29.0799 34.3719C29.1285 34.496 29.2019 34.609 29.2955 34.7041C29.389 34.7991 29.5009 34.8741 29.6243 34.9247C29.7476 34.9752 29.88 35.0002 30.0133 34.9981C30.342 35.013 30.6707 34.9981 31.0144 34.9981ZM36.0048 32.9801V34.0115C36.0047 34.1423 36.0307 34.2719 36.0812 34.3925C36.1317 34.5132 36.2057 34.6227 36.2988 34.7145C36.392 34.8063 36.5025 34.8786 36.6239 34.9273C36.7452 34.976 36.8751 35.0001 37.0058 34.9981C37.6632 34.9981 38.3356 34.9981 38.993 34.9981C39.1243 35.0022 39.2551 34.9795 39.3774 34.9316C39.4997 34.8836 39.611 34.8113 39.7046 34.7191C39.7982 34.6269 39.8721 34.5166 39.9218 34.395C39.9716 34.2734 39.9962 34.1429 39.9941 34.0115C39.9941 33.3338 39.9941 32.6612 39.9941 31.9935C39.9961 31.8646 39.9724 31.7366 39.9245 31.617C39.8766 31.4974 39.8054 31.3885 39.715 31.2967C39.6246 31.2049 39.5169 31.132 39.398 31.0822C39.2792 31.0325 39.1517 31.0069 39.0229 31.0069C38.3505 31.0069 37.6782 31.0069 36.9909 31.0069C36.728 31.0108 36.4772 31.118 36.2927 31.3054C36.1081 31.4928 36.0047 31.7454 36.0048 32.0084V32.9801ZM24.0517 41.9491H25.0528C25.1868 41.9511 25.3198 41.9262 25.444 41.8759C25.5681 41.8255 25.681 41.7507 25.7757 41.6559C25.8705 41.5611 25.9452 41.4482 25.9956 41.324C26.0459 41.1998 26.0708 41.0667 26.0688 40.9326V39.0192C26.0708 38.8852 26.0459 38.7521 25.9956 38.6279C25.9452 38.5036 25.8705 38.3908 25.7757 38.296C25.681 38.2012 25.5681 38.1264 25.444 38.076C25.3198 38.0256 25.1868 38.0007 25.0528 38.0027H23.0058C22.7415 38.0066 22.4891 38.1134 22.3022 38.3003C22.1153 38.4873 22.0086 38.7399 22.0048 39.0043V41.0074C22.0047 41.2704 22.1081 41.5229 22.2927 41.7103C22.4772 41.8977 22.728 42.005 22.9909 42.0089L24.0517 41.9491ZM31.0293 41.9491C31.3879 41.9491 31.7465 41.9491 32.0901 41.9491C32.3429 41.9418 32.5834 41.8391 32.7636 41.6617C32.9437 41.4842 33.0501 41.2451 33.0613 40.9924C33.0613 40.3048 33.0613 39.6172 33.0613 38.9295C33.0613 38.8007 33.0357 38.6731 32.986 38.5542C32.9363 38.4353 32.8634 38.3276 32.7716 38.2371C32.6798 38.1467 32.571 38.0755 32.4514 38.0275C32.3319 37.9796 32.204 37.9559 32.0752 37.9579H29.9834C29.8553 37.9559 29.7281 37.9796 29.6094 38.0277C29.4906 38.0759 29.3828 38.1474 29.2922 38.238C29.2016 38.3286 29.1301 38.4365 29.082 38.5553C29.034 38.6741 29.0102 38.8014 29.0122 38.9295C29.0122 39.5972 29.0122 40.2699 29.0122 40.9476C29.0102 41.0784 29.0343 41.2083 29.083 41.3297C29.1316 41.4512 29.204 41.5617 29.2957 41.6549C29.3875 41.7481 29.4969 41.8221 29.6175 41.8726C29.7381 41.9231 29.8676 41.9491 29.9984 41.9491H31.0293Z" fill="white"/>
<path d="M27.9975 18.0166H33.974C33.974 18.6145 33.974 19.1975 33.974 19.7805C33.9761 20.1178 34.0162 20.4538 34.0935 20.7821C34.2809 21.4752 34.7113 22.0778 35.3061 22.4796C35.9009 22.8814 36.6204 23.0556 37.3331 22.9703C38.0457 22.885 38.7038 22.546 39.1872 22.0152C39.6705 21.4844 39.9468 20.7973 39.9655 20.0795C39.9655 19.4068 39.9655 18.7341 39.9655 18.0316H40.1746C40.9516 18.0316 41.6688 18.0316 42.5055 18.0316C43.1676 18.1294 43.7743 18.457 44.2195 18.957C44.6647 19.4571 44.9201 20.0978 44.9409 20.7671C44.9409 22.0527 44.9409 23.3532 44.9409 24.6388V24.9527H17.0156C17.0156 24.863 17.0156 24.7584 17.0156 24.6537V21.0661C17.0156 20.2732 17.3305 19.5127 17.8909 18.9521C18.4513 18.3914 19.2113 18.0764 20.0039 18.0764H21.9463C21.9463 18.6893 21.9463 19.2723 21.9463 19.8553C21.9483 20.1925 21.9884 20.5285 22.0658 20.8568C22.2531 21.55 22.6835 22.1525 23.2784 22.5543C23.8732 22.9561 24.5927 23.1303 25.3053 23.045C26.0179 22.9598 26.6761 22.6207 27.1594 22.0899C27.6428 21.5591 27.9191 20.872 27.9377 20.1542C28.0124 19.4068 27.9975 18.7341 27.9975 18.0166Z" fill="white"/>
<path d="M26.0099 19.0183V19.99C26.0099 20.2556 25.9045 20.5104 25.7167 20.6982C25.529 20.886 25.2744 20.9915 25.0089 20.9915C24.7434 20.9915 24.4888 20.886 24.301 20.6982C24.1133 20.5104 24.0078 20.2556 24.0078 19.99C24.0078 19.3173 24.0078 18.6596 24.0078 17.9869C24.0078 17.7238 24.1112 17.4713 24.2957 17.2839C24.4802 17.0965 24.731 16.9893 24.9939 16.9854C25.2634 16.9854 25.5218 17.0924 25.7124 17.2831C25.9029 17.4737 26.0099 17.7323 26.0099 18.0018V19.0183Z" fill="white"/>
<path d="M36.0059 18.9283V17.9566C36.0059 17.691 36.1113 17.4363 36.2991 17.2484C36.4868 17.0606 36.7414 16.9551 37.0069 16.9551C37.2724 16.9551 37.5271 17.0606 37.7148 17.2484C37.9025 17.4363 38.008 17.691 38.008 17.9566V19.9896C38.008 20.2552 37.9025 20.51 37.7148 20.6978C37.5271 20.8856 37.2724 20.9912 37.0069 20.9912C36.7414 20.9912 36.4868 20.8856 36.2991 20.6978C36.1113 20.51 36.0059 20.2552 36.0059 19.9896V18.9283Z" fill="white"/>
</g>
<defs>
<linearGradient id="paint0_linear_200_12996" x1="0" y1="0" x2="73.3227" y2="73.3131" gradientUnits="userSpaceOnUse">
<stop stop-color="#AD00FF"/>
<stop offset="1" stop-color="#007EE0"/>
</linearGradient>
<clipPath id="clip0_200_12996">
<rect width="28" height="29" fill="white" transform="translate(17 17)"/>
</clipPath>
</defs>
</svg>
