<svg width="53" height="53" viewBox="0 0 53 53" fill="none" xmlns="http://www.w3.org/2000/svg">
<rect width="53" height="53" rx="10" fill="url(#paint0_linear_200_8959)"/>
<path d="M26.0539 14C25.6395 14.0004 25.2423 14.1652 24.9493 14.4582C24.6562 14.7512 24.4914 15.1485 24.491 15.5629V27.1903L22.408 25.1073C21.6846 24.404 20.7547 24.5831 20.2152 25.1234C19.6749 25.6637 19.4951 26.5903 20.2031 27.321L24.9442 32.0629C25.2265 32.354 25.6136 32.5169 26.033 32.521H26.0467C26.466 32.521 26.8709 32.3557 27.1588 32.0669L31.9088 27.3169C32.6112 26.5895 32.4322 25.6629 31.8926 25.1226C31.3531 24.5823 30.4265 24.4048 29.6951 25.1113L27.616 27.1903V15.5621C27.6154 15.148 27.4506 14.751 27.1578 14.4582C26.865 14.1654 26.468 14.0006 26.0539 14Z" fill="white"/>
<path d="M16.5629 29.3999C16.1487 29.4003 15.7515 29.565 15.4585 29.8579C15.1655 30.1507 15.0006 30.5478 15 30.962V32.691C15 36.1701 17.8298 38.9999 21.3089 38.9999H30.8008C34.2799 38.9999 37.1097 36.1693 37.1097 32.691V30.962C37.1091 30.5479 36.9443 30.1509 36.6515 29.8581C36.3586 29.5653 35.9617 29.4005 35.5476 29.3999C35.1334 29.4003 34.7362 29.565 34.4432 29.8579C34.1502 30.1507 33.9853 30.5478 33.9847 30.962V32.691C33.9838 33.5352 33.6481 34.3445 33.0512 34.9414C32.4543 35.5383 31.645 35.8741 30.8008 35.8749H21.3089C20.4647 35.8741 19.6554 35.5383 19.0585 34.9414C18.4616 34.3445 18.1259 33.5352 18.125 32.691V30.962C18.1244 30.5478 17.9595 30.1507 17.6665 29.8579C17.3735 29.565 16.9771 29.4003 16.5629 29.3999Z" fill="white"/>
<defs>
<linearGradient id="paint0_linear_200_8959" x1="0" y1="0" x2="61.6993" y2="61.6912" gradientUnits="userSpaceOnUse">
<stop stop-color="#AD00FF"/>
<stop offset="1" stop-color="#007EE0"/>
</linearGradient>
</defs>
</svg>
