<svg width="42" height="42" viewBox="0 0 42 42" fill="none" xmlns="http://www.w3.org/2000/svg">
<circle cx="21.0001" cy="21.0011" r="18.5714" fill="url(#paint0_linear_565_1008)"/>
<path d="M18.9508 24.3824C20.3219 24.2719 21.6994 24.2719 23.0705 24.3824C23.8171 24.4259 24.5602 24.5193 25.2951 24.662C26.8853 24.984 27.9234 25.5093 28.3683 26.3566C28.7025 27.0179 28.7025 27.8051 28.3683 28.4664C27.9234 29.3137 26.9265 29.873 25.2786 30.1611C24.5443 30.3091 23.801 30.4054 23.054 30.4491C22.3619 30.5254 21.6698 30.5254 20.9695 30.5254H19.7088C19.4452 30.4915 19.1898 30.4746 18.9426 30.4746C18.1955 30.4361 17.4521 30.3427 16.718 30.195C15.1278 29.8899 14.0896 29.3476 13.6447 28.5003C13.473 28.1721 13.3824 27.8054 13.381 27.4327C13.3775 27.0577 13.4653 26.6878 13.6365 26.3566C14.0732 25.5093 15.1113 24.9585 16.718 24.662C17.4553 24.5173 18.2013 24.4238 18.9508 24.3824ZM21.0024 11.4778C23.7645 11.4778 26.0037 13.7805 26.0037 16.621C26.0037 19.4615 23.7645 21.7642 21.0024 21.7642C18.2403 21.7642 16.0012 19.4615 16.0012 16.621C16.0012 13.7805 18.2403 11.4778 21.0024 11.4778Z" fill="white"/>
<circle cx="21" cy="21" r="20.5" stroke="url(#paint1_linear_565_1008)"/>
<defs>
<linearGradient id="paint0_linear_565_1008" x1="2.42871" y1="2.42969" x2="45.6681" y2="45.6634" gradientUnits="userSpaceOnUse">
<stop stop-color="#AD00FF"/>
<stop offset="1" stop-color="#007EE0"/>
</linearGradient>
<linearGradient id="paint1_linear_565_1008" x1="0" y1="0" x2="48.8938" y2="48.8873" gradientUnits="userSpaceOnUse">
<stop stop-color="#AD00FF"/>
<stop offset="1" stop-color="#007EE0"/>
</linearGradient>
</defs>
</svg>
