<svg width="32" height="32" viewBox="0 0 32 32" fill="none" xmlns="http://www.w3.org/2000/svg">
<rect width="32" height="32" rx="6" fill="white"/>
<path d="M21.379 23.6678L17.8128 19.322C17.421 19.566 16.995 19.772 16.5386 19.9328C13.2369 21.0945 9.58677 19.4488 8.38537 16.2562C7.18376 13.0645 8.8859 9.53428 12.1877 8.37256C15.4886 7.21085 19.1389 8.85655 20.3412 12.0491C21.1565 14.2152 20.634 16.5368 19.1826 18.1686C19.199 18.1857 19.215 18.2036 19.2303 18.2222L22.803 22.5749C23.1153 22.9553 23.049 23.5081 22.6556 23.8094C22.4888 23.9377 22.2896 24 22.0917 24C21.8239 24 21.5585 23.8861 21.379 23.6678ZM12.8091 10.0238C10.4545 10.8526 9.236 13.3784 10.0931 15.6552C10.9501 17.932 13.5626 19.1095 15.9172 18.2807C18.271 17.4528 19.4897 14.9261 18.6326 12.6501C17.9615 10.8676 16.2145 9.75891 14.3579 9.75883C13.8432 9.75881 13.3203 9.84404 12.8091 10.0238Z" fill="url(#paint0_linear_570_3711)"/>
<defs>
<linearGradient id="paint0_linear_570_3711" x1="8" y1="8" x2="26.5873" y2="25.4233" gradientUnits="userSpaceOnUse">
<stop stop-color="#AD00FF"/>
<stop offset="1" stop-color="#007EE0"/>
</linearGradient>
</defs>
</svg>
