<svg width="211" height="37" viewBox="0 0 211 37" fill="none" xmlns="http://www.w3.org/2000/svg">
<path fill-rule="evenodd" clip-rule="evenodd" d="M67.7565 17.9998C67.7565 16.385 68.2303 14.8066 69.118 13.4643C70.0057 12.122 71.2672 11.0763 72.743 10.4595C74.2187 9.84269 75.8423 9.68259 77.408 9.99944C78.9738 10.3163 80.4114 11.0959 81.5388 12.2394C82.6661 13.383 83.4326 14.8391 83.7411 16.4235C84.0496 18.0078 83.8863 19.6491 83.2719 21.1395C82.6574 22.63 81.6194 23.9025 80.2893 24.796C78.9592 25.6895 77.3968 26.1637 75.8 26.1588C74.7388 26.1689 73.6864 25.9646 72.7043 25.5578C71.7223 25.1511 70.8305 24.55 70.0813 23.79C69.332 23.0301 68.7405 22.1264 68.3412 21.1321C67.942 20.1378 67.7432 19.0728 67.7565 17.9998ZM80.3183 17.9998C80.2987 17.1007 80.0172 16.2274 79.509 15.4893C79.0008 14.7513 78.2885 14.1813 77.4614 13.8508C76.6342 13.5203 75.729 13.4441 74.8592 13.6315C73.9894 13.819 73.1937 14.2619 72.5717 14.9047C71.9497 15.5475 71.5291 16.3617 71.3627 17.2451C71.1962 18.1286 71.2913 19.0421 71.636 19.8711C71.9807 20.7002 72.5597 21.4079 73.3004 21.9056C74.0411 22.4034 74.9106 22.669 75.8 22.6692C76.4067 22.6874 77.0105 22.5782 77.5734 22.3487C78.1363 22.1191 78.6461 21.7741 79.0706 21.3354C79.4951 20.8967 79.8251 20.3738 80.0399 19.7997C80.2546 19.2256 80.3494 18.6128 80.3183 17.9998ZM56.0488 23.208C56.308 22.6279 56.4478 22.0005 56.4597 21.3641C56.5107 20.6476 56.372 19.9304 56.0578 19.2862C55.7437 18.642 55.2654 18.094 54.6723 17.6988C55.1116 17.3239 55.4624 16.8541 55.6987 16.3241C55.935 15.7941 56.0508 15.2173 56.0377 14.6361C56.0233 14.0057 55.8808 13.3851 55.6191 12.8129C55.3573 12.2406 54.9819 11.729 54.5161 11.3098C54.0504 10.8906 53.5043 10.5729 52.9119 10.3763C52.3194 10.1798 51.6933 10.1087 51.0725 10.1674H44.9902V25.9582H51.4946C52.1225 26.0026 52.7528 25.9174 53.3472 25.7077C53.9416 25.498 54.4876 25.1683 54.952 24.7386C55.4164 24.3089 55.7896 23.7881 56.0488 23.208ZM48.4907 16.3432V13.657L50.9732 13.5817C51.1533 13.5743 51.333 13.6052 51.5006 13.6724C51.6681 13.7395 51.82 13.8414 51.9463 13.9715C52.0726 14.1015 52.1705 14.2569 52.2338 14.4276C52.2971 14.5983 52.3244 14.7804 52.3138 14.9624C52.3244 15.1444 52.2971 15.3266 52.2338 15.4972C52.1705 15.6679 52.0726 15.8233 51.9463 15.9534C51.82 16.0834 51.6681 16.1853 51.5006 16.2525C51.333 16.3196 51.1533 16.3505 50.9732 16.3432H48.4907ZM52.9101 20.9899C52.9145 21.0558 52.9144 21.1221 52.9096 21.1884V20.9875L52.9101 20.9899ZM52.8905 21.6299C52.9456 21.4209 52.9523 21.2019 52.9101 20.9899C52.9011 20.8573 52.8736 20.7264 52.8281 20.6011C52.7599 20.4134 52.653 20.2426 52.5144 20.1C52.3757 19.9575 52.2086 19.8464 52.0242 19.7744C51.8398 19.7023 51.6423 19.6708 51.4449 19.6821H48.4907V22.6695H51.4449C51.659 22.6855 51.8739 22.6511 52.0727 22.5691C52.2714 22.487 52.4487 22.3595 52.5906 22.1966C52.7325 22.0337 52.8351 21.8397 52.8905 21.6299ZM67.5335 25.8323V22.3929H61.9974V10.167H58.4473V25.8323H67.5335ZM85.9578 14.8731C85.5678 15.8673 85.3806 16.931 85.4075 18.0002C85.3772 19.0715 85.5618 20.1379 85.9503 21.135C86.3388 22.1322 86.923 23.0394 87.6678 23.8019C88.4125 24.5644 89.3024 25.1664 90.2835 25.5715C91.2647 25.9767 92.3169 26.1766 93.3766 26.1592C94.6979 26.1812 96.0025 25.8576 97.1638 25.2199C98.3251 24.5821 99.3038 23.6518 100.005 22.519L96.9515 20.7366C96.5802 21.3519 96.0529 21.8556 95.4243 22.1955C94.7957 22.5353 94.0887 22.6991 93.3766 22.6697C92.2136 22.5833 91.1261 22.0551 90.3323 21.1913C89.5385 20.3275 89.0973 19.192 89.0973 18.0128C89.0973 16.8336 89.5385 15.698 90.3323 14.8342C91.1261 13.9704 92.2136 13.4423 93.3766 13.3559C94.0863 13.3239 94.7917 13.4838 95.4201 13.8192C96.0484 14.1545 96.577 14.6532 96.9515 15.2638L100.005 13.4814C99.299 12.355 98.3186 11.431 97.1579 10.7979C95.9972 10.1649 94.6951 9.8441 93.3766 9.86631C92.319 9.84904 91.269 10.0482 90.2895 10.4518C89.31 10.8554 88.4214 11.4552 87.677 12.215C86.9326 12.9748 86.3478 13.8789 85.9578 14.8731ZM110.481 25.8323L105.515 18.577V25.8323H101.99V10.167H105.515V16.9703L110.257 10.167H114.279L109.066 17.6984L114.502 25.7318L110.481 25.8323ZM128.133 25.8323H131.558L131.683 10.167H128.133L123.937 17.121L119.717 10.167H116.191V25.8323H119.717V16.7193L123.738 23.372H124.136L128.133 16.7193V25.8323ZM144.169 22.3929V25.8323H134.438V10.167H144.07V13.6063H138.062V16.1168H143.598V19.6063H138.062V22.3929H144.169ZM159.628 20.9744C159.984 20.0256 160.147 19.0137 160.107 17.9996C160.147 16.9855 159.984 15.9737 159.628 15.0249C159.272 14.0761 158.73 13.2099 158.034 12.4783C157.338 11.7467 156.504 11.1649 155.58 10.7677C154.657 10.3705 153.663 10.1662 152.66 10.167H146.453V25.8323H152.66C153.663 25.8331 154.657 25.6288 155.58 25.2316C156.504 24.8344 157.338 24.2525 158.034 23.5209C158.73 22.7894 159.272 21.9232 159.628 20.9744ZM156.498 16.3143C156.685 16.8549 156.756 17.4293 156.706 17.9996C156.756 18.5699 156.685 19.1444 156.498 19.6849C156.312 20.2255 156.014 20.7198 155.624 21.1352C155.235 21.5505 154.762 21.8775 154.238 22.0943C153.714 22.3111 153.151 22.4129 152.585 22.3929H149.929V13.6063H152.585C153.151 13.5863 153.714 13.6881 154.238 13.905C154.762 14.1218 155.235 14.4487 155.624 14.8641C156.014 15.2795 156.312 15.7738 156.498 16.3143Z" fill="url(#paint0_linear_558_1185)"/>
<path d="M179.025 15.0375C179.039 15.6808 178.923 16.3202 178.683 16.9163C178.444 17.5125 178.087 18.0529 177.633 18.5043C177.18 18.9558 176.64 19.3087 176.047 19.5414C175.454 19.7741 174.82 19.8817 174.184 19.8576H170.088V25.8325H168.921V10.1672H174.184C174.823 10.1465 175.46 10.2581 176.055 10.4951C176.65 10.7322 177.19 11.0898 177.644 11.5459C178.097 12.002 178.454 12.547 178.691 13.1474C178.929 13.7479 179.042 14.3911 179.025 15.0375ZM177.833 15.0375C177.854 14.5461 177.774 14.0556 177.599 13.597C177.423 13.1383 177.155 12.7214 176.812 12.3724C176.47 12.0234 176.059 11.75 175.607 11.5692C175.155 11.3884 174.67 11.3043 174.184 11.3221H170.088V18.8534H174.184C174.675 18.8652 175.163 18.7731 175.616 18.5831C176.07 18.3931 176.479 18.1094 176.818 17.7502C177.157 17.391 177.418 16.9641 177.584 16.497C177.75 16.0299 177.818 15.5328 177.784 15.0375H177.833Z" fill="#141414"/>
<path d="M188.21 19.4059H183.245V25.8326H182.054V10.1674H188.161C189.274 10.1587 190.353 10.5616 191.193 11.3004C192.033 12.0392 192.578 13.063 192.724 14.1793C192.871 15.2956 192.609 16.4275 191.988 17.3622C191.367 18.297 190.43 18.9702 189.352 19.2552L193.2 25.8326H191.835L188.21 19.4059ZM183.245 18.3013H188.21C189.078 18.2269 189.887 17.8257 190.476 17.1772C191.066 16.5286 191.393 15.6799 191.393 14.7992C191.393 13.9184 191.066 13.0697 190.476 12.4212C189.887 11.7726 189.078 11.3715 188.21 11.2971H183.245V18.3013Z" fill="#141414"/>
<path d="M195.161 17.9997C195.161 16.4009 195.63 14.838 196.508 13.5086C197.387 12.1793 198.635 11.1432 200.096 10.5314C201.557 9.91952 203.164 9.75944 204.715 10.0713C206.265 10.3833 207.69 11.1532 208.808 12.2837C209.926 13.4142 210.534 14.8546 210.842 16.4227C211.151 17.9907 210.993 19.6161 210.387 21.0932C209.782 22.5703 208.911 23.8328 207.596 24.721C206.282 25.6093 204.736 26.0834 203.155 26.0834C202.104 26.0867 201.063 25.8799 200.092 25.4748C199.121 25.0697 198.238 24.4744 197.495 23.7231C196.752 22.9718 196.164 22.0794 195.763 21.0971C195.362 20.1149 195.158 19.0622 195.161 17.9997ZM209.833 17.9997C209.828 16.6343 209.646 15.301 208.892 14.1684C208.138 13.0359 207.069 12.155 205.819 11.637C204.57 11.1191 203.197 10.9874 201.873 11.2587C200.55 11.5299 199.336 12.1919 198.385 13.1609C197.433 14.1299 196.788 15.3625 196.529 16.7026C196.27 18.0428 196.41 19.4304 196.932 20.69C197.453 21.9495 198.332 23.0245 199.457 23.779C200.583 24.5335 201.904 24.9335 203.254 24.9286C205.03 24.876 206.715 24.1205 207.945 22.8246C209.175 21.5287 209.853 19.7961 209.833 17.9997Z" fill="#141414"/>
<path d="M24.8017 16.2889L24.7512 18.8496L22.6045 17.6697V15.1843L24.8017 16.2889Z" fill="#B0B0B0"/>
<path d="M36.3675 25.4268L27.2756 30.6235L24.043 32.5063V28.8411L27.2756 26.9833L34.7765 22.6904L36.3675 25.4268Z" fill="#141414"/>
<path d="M35.2057 12.6993L24.75 18.8499L24.8005 16.2893L33.7156 11.1428L35.2057 12.6993Z" fill="#141414"/>
<path d="M33.7168 11.1428L24.8017 16.2892L22.6045 15.2097L31.5701 10.0884L33.7168 11.1428Z" fill="#6D6D6D"/>
<path d="M22.3758 3.83744L14.9507 8.08013L11.5413 10.0383L8.30859 8.30607L11.6928 6.2977L20.7847 1.07593L22.3758 3.83744Z" fill="#6D6D6D"/>
<path d="M33.2096 11.4686L17.4756 3.00837L20.8598 1L36.4423 9.53558L33.2096 11.4686Z" fill="#6D6D6D"/>
<path d="M33.2109 27.2337L36.4436 25.4011V9.53491L33.2109 11.468V27.2337Z" fill="#141414"/>
<path d="M16.2887 21.2346L0.554688 12.7743L3.96415 10.791L19.5466 19.3266L16.2887 21.2346Z" fill="#6D6D6D"/>
<path d="M16.2881 36.9994L19.546 35.1918V19.3257L16.2881 21.2336V36.9994Z" fill="#141414"/>
<defs>
<linearGradient id="paint0_linear_558_1185" x1="44.9902" y1="9.84082" x2="50.271" y2="47.0883" gradientUnits="userSpaceOnUse">
<stop stop-color="#AD00FF"/>
<stop offset="1" stop-color="#007EE0"/>
</linearGradient>
</defs>
</svg>
