<svg width="53" height="53" viewBox="0 0 53 53" fill="none" xmlns="http://www.w3.org/2000/svg">
<rect width="53" height="53" rx="10" fill="url(#paint0_linear_619_3676)"/>
<path d="M15.3148 26.9726C15.6005 25.6849 16.3012 24.5158 17.3181 23.6302C18.1918 22.8404 19.2814 22.3038 20.4604 22.0828C20.5788 22.0725 20.6911 22.0276 20.7821 21.9543C20.8731 21.881 20.9384 21.7827 20.9693 21.6727C21.5393 20.2704 22.538 19.0656 23.8346 18.2158C25.1313 17.3661 26.6656 16.911 28.2367 16.9102C29.8078 16.9093 31.3427 17.3628 32.6403 18.2111C33.938 19.0595 34.938 20.2633 35.5096 21.665C35.655 21.99 35.857 22.0054 36.1397 22.0054C38.0789 21.9972 39.9522 22.6795 41.3958 23.9197C42.8393 25.16 43.7502 26.8698 43.9515 28.7172C44.1529 30.5645 43.6303 32.4177 42.4853 33.9167C41.3402 35.4158 39.6545 36.4539 37.7553 36.8294C37.2232 36.9316 36.6823 36.986 36.1397 36.9919C29.1711 36.9919 22.1972 36.9919 15.2179 36.9919C13.9838 36.9945 12.7888 36.5775 11.8458 35.8151C10.9027 35.0528 10.2728 33.9946 10.0682 32.829C9.86361 31.6634 10.0976 30.4661 10.7285 29.4502C11.3594 28.4344 12.3463 27.6661 13.5134 27.282C13.8014 27.1925 14.0956 27.1226 14.3939 27.0731C14.6847 27.0267 14.9836 27.0035 15.3148 26.9726Z" fill="white"/>
<defs>
<linearGradient id="paint0_linear_619_3676" x1="0" y1="0" x2="61.6993" y2="61.6912" gradientUnits="userSpaceOnUse">
<stop stop-color="#AD00FF"/>
<stop offset="1" stop-color="#007EE0"/>
</linearGradient>
</defs>
</svg>
