<svg width="53" height="53" viewBox="0 0 53 53" fill="none" xmlns="http://www.w3.org/2000/svg">
<rect width="53" height="53" rx="10" fill="url(#paint0_linear_619_3677)"/>
<path d="M41.9998 23.3479V23.7872C41.9998 23.7872 41.9582 23.8278 41.9499 23.8522C41.8987 24.1469 41.7357 24.4119 41.4934 24.5944C41.2511 24.7768 40.9473 24.8633 40.6427 24.8366H38.378V37.5681C38.378 37.6902 38.378 37.8122 38.378 37.9261C38.3703 38.1973 38.2594 38.456 38.0669 38.6515C37.8744 38.8471 37.6143 38.9655 37.3372 38.9837C37.2041 38.9918 37.0706 38.9918 36.9375 38.9837H17.7124C17.4267 38.9733 17.1559 38.856 16.956 38.6562C16.7561 38.4564 16.6424 38.1892 16.6384 37.9098C16.6384 37.8041 16.6384 37.6902 16.6384 37.5763V24.8366H14.3736C14.0878 24.8593 13.8026 24.7852 13.5661 24.6266C13.3295 24.4681 13.156 24.2349 13.0748 23.9661C12.9772 23.7165 12.9777 23.4404 13.0761 23.191C13.1745 22.9417 13.3638 22.7368 13.6076 22.6157L26.6048 13.3904C26.7172 13.2685 26.8546 13.1709 27.0081 13.1042C27.1616 13.0374 27.3277 13.0029 27.4957 13.0029C27.6637 13.0029 27.8298 13.0374 27.9833 13.1042C28.1367 13.1709 28.2741 13.2685 28.3866 13.3904L41.3837 22.6157C41.6617 22.7915 41.877 23.0473 41.9998 23.3479ZM34.7478 29.555C34.7494 28.1525 34.325 26.7811 33.5284 25.6145C32.7318 24.4478 31.5988 23.5384 30.2728 23.0013C28.9469 22.4642 27.4876 22.3237 26.0798 22.5975C24.6721 22.8713 23.3791 23.5471 22.3647 24.5394C21.3503 25.5317 20.6601 26.7957 20.3815 28.1715C20.1029 29.5473 20.2484 30.9729 20.7996 32.2679C21.3508 33.5628 22.2829 34.6688 23.4779 35.4458C24.6729 36.2228 26.0769 36.6358 27.5123 36.6326C29.428 36.6177 31.2608 35.867 32.6146 34.5426C33.9685 33.2183 34.7347 31.4267 34.7478 29.555Z" fill="white"/>
<path d="M25.6809 24.2432H29.2861V27.7657H32.908V31.3045H29.3277V34.8189H25.6975V31.337H22.084V27.7901H25.6809V24.2432Z" fill="white"/>
<defs>
<linearGradient id="paint0_linear_619_3677" x1="0" y1="0" x2="61.6993" y2="61.6912" gradientUnits="userSpaceOnUse">
<stop stop-color="#AD00FF"/>
<stop offset="1" stop-color="#007EE0"/>
</linearGradient>
</defs>
</svg>
