<svg width="53" height="53" viewBox="0 0 53 53" fill="none" xmlns="http://www.w3.org/2000/svg">
<rect width="53" height="53" rx="10" fill="url(#paint0_linear_619_3678)"/>
<path d="M26.5281 12C29.3995 12.0056 32.2045 12.8635 34.5877 14.4651C36.9709 16.0667 38.825 18.3398 39.9149 20.9962C41.0047 23.6527 41.2814 26.5729 40.7097 29.3868C40.1381 32.2007 38.7438 34.7815 36.7038 36.8021C34.6637 38.8227 32.0697 40.1921 29.2504 40.7367C26.4312 41.2814 23.5138 40.9768 20.8679 39.8615C18.222 38.7462 15.9668 36.8704 14.3881 34.472C12.8095 32.0735 11.9785 29.2604 12.0004 26.3891C12.0312 22.5584 13.576 18.8953 16.2978 16.1995C19.0196 13.5037 22.6973 11.994 26.5281 12Z" fill="white"/>
<path d="M31.5942 25.451C31.3723 25.2633 31.1012 25.1516 30.8174 25.131C30.5337 25.1104 30.2507 25.1817 30.0064 25.3356C29.7121 25.5146 29.4913 25.8027 29.387 26.1439C29.2827 26.4851 29.3024 26.855 29.4422 27.1817C29.4514 27.2396 29.4723 27.2947 29.5034 27.3433C29.6484 27.6137 29.8724 27.8274 30.142 27.9525C30.1805 27.9624 30.2138 27.9876 30.235 28.0229C30.2563 28.0582 30.2637 28.1008 30.2558 28.1417C30.2558 28.3217 30.2558 28.4971 30.2558 28.6771V29.6002C29.9521 29.2742 29.5899 29.0153 29.1904 28.8386C28.7909 28.6618 28.362 28.5708 27.9288 28.5708C27.4956 28.5708 27.0667 28.6618 26.6672 28.8386C26.2676 29.0153 25.9055 29.2742 25.6018 29.6002V27.9894C25.6018 27.8463 25.5624 27.6571 25.6324 27.5648C25.7024 27.4725 25.8861 27.5002 26.0217 27.4679C26.894 27.2771 27.6834 26.7909 28.2699 26.0833L28.3662 25.9771C28.7652 25.4651 29.0479 24.8636 29.1929 24.2187C29.2065 24.184 29.2182 24.1486 29.2279 24.1125C29.3267 23.413 29.356 22.7046 29.3153 21.9987C29.3153 21.3525 29.3153 20.711 29.3153 20.0694C29.3148 19.9774 29.2969 19.8864 29.2628 19.8017C29.2562 19.7597 29.2474 19.7181 29.2366 19.6771C29.1199 19.3333 28.8856 19.0479 28.5796 18.8771C28.2737 18.7063 27.9183 18.6624 27.5832 18.754C27.3405 18.8155 27.1188 18.9468 26.9427 19.1334C26.7666 19.32 26.6431 19.5546 26.5859 19.811C26.4874 20.1135 26.5046 20.4447 26.634 20.734C26.743 21.0267 26.9384 21.2745 27.1913 21.4407C27.4442 21.607 27.7411 21.6829 28.0381 21.6571C28.3749 21.6571 28.3749 21.6571 28.3924 21.9987C28.3924 22.1048 28.3924 22.211 28.3924 22.3217C28.4371 22.9584 28.3869 23.5984 28.2437 24.2187C28.1562 24.4171 28.0906 24.6294 27.99 24.8233C27.7361 25.2948 27.3884 25.7026 26.9708 26.0187L26.879 26.074C26.1813 26.5406 25.3402 26.7058 24.5301 26.5356C24.096 26.4439 23.682 26.267 23.3098 26.014C23.2092 25.9264 23.0998 25.8387 22.9992 25.7463C22.5552 25.3348 22.2231 24.8059 22.0369 24.214C21.9975 24.0156 21.9451 23.8171 21.9144 23.614C21.8619 23.2033 21.9144 22.7925 21.8838 22.3817C21.8838 22.2848 21.8838 22.1879 21.8838 22.091C21.8838 21.994 21.827 21.7587 21.9101 21.6664C21.9932 21.574 22.1813 21.634 22.3212 21.634C22.6086 21.6299 22.888 21.5337 23.1224 21.3581C23.3568 21.1825 23.535 20.9359 23.6334 20.651C23.73 20.4056 23.7514 20.1345 23.6947 19.8756C23.6423 19.6001 23.5166 19.346 23.3322 19.1433C23.1478 18.9405 22.9124 18.7975 22.6537 18.731C22.3866 18.6672 22.1077 18.6864 21.8508 18.7864C21.5938 18.8863 21.3698 19.0626 21.2058 19.294C20.9729 19.677 20.8796 20.1363 20.9434 20.5864V22.3817C20.9434 22.7233 20.9434 23.0694 20.9434 23.4064C20.9451 23.7205 20.9953 24.0323 21.0921 24.3294C21.2564 25.0515 21.6095 25.7103 22.1113 26.231C22.6895 26.8708 23.4413 27.3061 24.2633 27.4771C24.3989 27.5094 24.587 27.4771 24.6526 27.5787C24.7182 27.6802 24.6788 27.8556 24.6832 27.9987V32.194C24.6761 32.248 24.6853 32.3029 24.7095 32.351C24.7417 32.8442 24.8922 33.3206 25.1469 33.7356C25.1444 33.7462 25.1444 33.7573 25.1469 33.7679C25.5372 34.4508 26.1402 34.9696 26.8527 35.2356C27.0846 35.3233 27.3295 35.351 27.5613 35.4294H28.2743C28.2743 35.3971 28.3137 35.4017 28.3399 35.4017C29.0019 35.3148 29.6221 35.0133 30.1149 34.5388C30.6076 34.0643 30.9488 33.4402 31.0912 32.7525C31.131 32.6629 31.1519 32.5653 31.1524 32.4663C31.2181 31.6817 31.1524 30.8925 31.1787 30.1033V28.654C31.1787 28.4648 31.1787 28.2756 31.1787 28.0863C31.1753 28.0555 31.1821 28.0243 31.1981 27.9982C31.214 27.9721 31.2381 27.9527 31.2662 27.9433C31.5915 27.7811 31.8507 27.501 31.9966 27.154C32.0138 27.1215 32.0285 27.0876 32.0404 27.0525C32.1278 26.7692 32.1319 26.4647 32.0523 26.1788C31.9727 25.893 31.813 25.6393 31.5942 25.451ZM28.353 20.4617C28.353 20.5679 28.3049 20.6048 28.2131 20.6002H27.9506C27.8796 20.5979 27.8101 20.5774 27.7482 20.5403C27.6864 20.5033 27.634 20.4509 27.5957 20.3877C27.5573 20.3246 27.5341 20.2525 27.5282 20.1777C27.5222 20.1029 27.5336 20.0277 27.5613 19.9587C27.5613 19.9079 27.6182 19.8571 27.5963 19.7971C27.6048 19.8029 27.6147 19.8059 27.6248 19.8059C27.6349 19.8059 27.6447 19.8029 27.6532 19.7971C27.734 19.7398 27.8292 19.7091 27.9266 19.7091C28.024 19.7091 28.1191 19.7398 28.2 19.7971C28.2088 19.8016 28.2185 19.804 28.2284 19.804C28.2382 19.804 28.2479 19.8016 28.2568 19.7971C28.2494 19.8137 28.2456 19.8318 28.2456 19.8502C28.2456 19.8685 28.2494 19.8867 28.2568 19.9033C28.3326 20.078 28.3657 20.27 28.353 20.4617ZM21.9407 20.1433C21.9517 20.0403 21.9952 19.9443 22.0643 19.8706C22.1333 19.797 22.2238 19.7499 22.3212 19.7371C22.4183 19.7327 22.5139 19.7626 22.5931 19.8219C22.6723 19.8812 22.7306 19.9667 22.7586 20.0648C22.7765 20.1388 22.7766 20.2164 22.7591 20.2905C22.7415 20.3646 22.7068 20.433 22.658 20.4894C22.6362 20.5264 22.5749 20.554 22.6055 20.6048C22.5938 20.5993 22.5812 20.5965 22.5684 20.5965C22.5556 20.5965 22.5429 20.5993 22.5312 20.6048C22.3229 20.644 22.1096 20.644 21.9013 20.6048C21.9293 20.5582 21.9402 20.5024 21.9319 20.4479C21.9363 20.3233 21.9276 20.2217 21.9407 20.1433ZM30.0546 32.8817C29.8983 33.2926 29.6362 33.6491 29.2978 33.911C28.8587 34.2629 28.3135 34.4348 27.7633 34.395C27.2132 34.3551 26.6954 34.106 26.306 33.694C26.2682 33.6425 26.2205 33.6001 26.166 33.5694C26.166 33.5002 26.1223 33.454 26.0873 33.4079C25.833 33.0288 25.6817 32.5835 25.6499 32.1202C25.6499 32.074 25.6499 32.0279 25.6105 31.9956C25.6543 31.9494 25.6455 31.8894 25.6499 31.834C25.6851 31.2417 25.9247 30.6834 26.3235 30.2648C26.3648 30.2325 26.3954 30.1873 26.411 30.1356C26.4897 30.1356 26.5422 30.0756 26.5991 30.034C26.9976 29.7316 27.4779 29.5727 27.9688 29.5811C28.4597 29.5894 28.9349 29.7644 29.3241 30.0802C29.3722 30.1171 29.4159 30.1725 29.4816 30.1679C29.4816 30.274 29.5734 30.3202 29.6303 30.3848C29.8522 30.6432 30.0175 30.95 30.1143 31.2835C30.211 31.6169 30.237 31.9688 30.1901 32.314C30.1901 32.4248 30.1114 32.5402 30.1595 32.6556C30.1092 32.7219 30.0733 32.7991 30.0546 32.8817ZM30.4089 26.3002C30.4495 26.2569 30.4979 26.2226 30.5512 26.1992C30.6045 26.1757 30.6617 26.1637 30.7194 26.1637C30.7772 26.1637 30.8343 26.1757 30.8876 26.1992C30.9409 26.2226 30.9893 26.2569 31.03 26.3002C31.0696 26.3436 31.1001 26.3953 31.1195 26.4519C31.1389 26.5086 31.1468 26.5689 31.1427 26.6289C31.1385 26.689 31.1225 26.7475 31.0955 26.8006C31.0686 26.8537 31.0313 26.9002 30.9862 26.9371C30.9469 26.974 30.9031 26.9971 30.8638 27.034C30.8553 27.0359 30.8474 27.0398 30.8405 27.0454C30.8337 27.051 30.8282 27.0582 30.8244 27.0663C30.792 27.0394 30.7519 27.0247 30.7107 27.0247C30.6694 27.0247 30.6293 27.0394 30.5969 27.0663C30.5976 27.0543 30.5951 27.0423 30.5897 27.0317C30.5843 27.0211 30.5762 27.0123 30.5663 27.0063C30.5317 26.9761 30.4952 26.9483 30.457 26.9233C30.4136 26.8867 30.3778 26.8412 30.3517 26.7895C30.3256 26.7378 30.3098 26.6811 30.3053 26.6227C30.3008 26.5643 30.3077 26.5056 30.3255 26.4502C30.3433 26.3947 30.3717 26.3437 30.4089 26.3002Z" fill="url(#paint1_linear_619_3678)"/>
<path d="M28.64 32.0563C28.5918 32.0056 28.5875 31.9733 28.64 31.9225L28.9024 31.6456C28.9452 31.5998 28.979 31.5456 29.002 31.486C29.0249 31.4265 29.0365 31.3628 29.0361 31.2985C29.0357 31.2342 29.0233 31.1706 28.9996 31.1114C28.9759 31.0521 28.9414 30.9984 28.898 30.9533C28.8547 30.9081 28.8033 30.8724 28.7468 30.8482C28.6904 30.824 28.63 30.8118 28.5691 30.8122C28.5081 30.8126 28.4479 30.8257 28.3918 30.8507C28.3356 30.8757 28.2847 30.9121 28.2419 30.9579C28.1369 31.064 28.0363 31.244 27.927 31.2533C27.8176 31.2625 27.7127 31.0594 27.5989 30.9579C27.5471 30.9065 27.4857 30.8669 27.4188 30.8415C27.3518 30.8161 27.2807 30.8054 27.2096 30.8102C27.1284 30.8183 27.0509 30.8503 26.986 30.9025C26.921 30.9547 26.8712 31.0251 26.8422 31.1056C26.7996 31.1976 26.7872 31.302 26.807 31.4022C26.8268 31.5025 26.8777 31.593 26.9516 31.6594C27.0478 31.7656 27.214 31.8625 27.2228 31.9779C27.2315 32.0933 27.0522 32.1994 26.9559 32.3102C26.9111 32.357 26.8755 32.4127 26.8512 32.4741C26.8269 32.5355 26.8144 32.6013 26.8144 32.6679C26.8144 32.7344 26.8269 32.8003 26.8512 32.8617C26.8755 32.9231 26.9111 32.9788 26.9559 33.0256C26.9997 33.074 27.0522 33.1126 27.1105 33.139C27.1688 33.1653 27.2315 33.1789 27.2949 33.1789C27.3583 33.1789 27.4211 33.1653 27.4793 33.139C27.5376 33.1126 27.5902 33.074 27.6339 33.0256C27.7345 32.9287 27.8308 32.7533 27.9401 32.744C28.0495 32.7348 28.1501 32.9286 28.2507 33.0302C28.2954 33.0776 28.3485 33.1153 28.4071 33.141C28.4656 33.1667 28.5284 33.1799 28.5918 33.1799C28.6553 33.1799 28.718 33.1667 28.7766 33.141C28.8351 33.1153 28.8883 33.0776 28.933 33.0302C28.9771 32.9839 29.012 32.9289 29.0358 32.8683C29.0597 32.8077 29.072 32.7427 29.072 32.6771C29.072 32.6115 29.0597 32.5465 29.0358 32.486C29.012 32.4254 28.9771 32.3703 28.933 32.324C28.828 32.2317 28.7406 32.144 28.64 32.0563Z" fill="url(#paint2_linear_619_3678)"/>
<defs>
<linearGradient id="paint0_linear_619_3678" x1="0" y1="0" x2="61.6993" y2="61.6912" gradientUnits="userSpaceOnUse">
<stop stop-color="#AD00FF"/>
<stop offset="1" stop-color="#007EE0"/>
</linearGradient>
<linearGradient id="paint1_linear_619_3678" x1="20.9238" y1="18.6941" x2="38.9241" y2="30.7232" gradientUnits="userSpaceOnUse">
<stop stop-color="#AD00FF"/>
<stop offset="1" stop-color="#007EE0"/>
</linearGradient>
<linearGradient id="paint2_linear_619_3678" x1="26.7979" y1="30.8091" x2="29.5554" y2="33.4538" gradientUnits="userSpaceOnUse">
<stop stop-color="#AD00FF"/>
<stop offset="1" stop-color="#007EE0"/>
</linearGradient>
</defs>
</svg>
