<svg width="39" height="13" viewBox="0 0 39 13" fill="none" xmlns="http://www.w3.org/2000/svg">
<g id="Group 1000004172">
<path id="Vector" d="M14.3813 11.9844L16.3313 1.01562H19.3782L17.4892 11.9844H14.3813Z" fill="white"/>
<path id="Vector_2" d="M14.3813 11.9844L16.8798 1.01562H19.3782L17.4892 11.9844H14.3813Z" fill="white"/>
<path id="Vector_3" d="M28.5187 1.13753C27.9094 0.893775 26.9344 0.650024 25.7156 0.650024C22.6688 0.650024 20.475 2.17346 20.475 4.36721C20.475 6.01252 21.9984 6.86565 23.2172 7.41409C24.4359 7.96252 24.8016 8.32815 24.8016 8.81565C24.8016 9.5469 23.8266 9.91252 22.9734 9.91252C21.7547 9.91252 21.0844 9.72971 20.0484 9.30315L19.6219 9.12034L19.1953 11.6188C19.9266 11.9235 21.2672 12.2282 22.6688 12.2282C25.8984 12.2282 28.0312 10.7047 28.0312 8.38909C28.0312 7.1094 27.2391 6.1344 25.4109 5.34221C24.3141 4.79377 23.6437 4.48909 23.6437 3.94065C23.6437 3.45315 24.1922 2.96565 25.4109 2.96565C26.4469 2.96565 27.1781 3.14846 27.7266 3.39221L28.0312 3.51409L28.5187 1.13753Z" fill="white"/>
<path id="Vector_4" d="M28.5187 1.13753C27.9094 0.893775 26.9344 0.650024 25.7156 0.650024C22.6688 0.650024 21.0234 2.17346 21.0234 4.36721C21.0234 6.01252 21.9984 6.86565 23.2172 7.41409C24.4359 7.96252 24.8016 8.32815 24.8016 8.81565C24.8016 9.5469 23.8266 9.91252 22.9734 9.91252C21.7547 9.91252 21.0844 9.72971 20.0484 9.30315L19.6219 9.12034L19.1953 11.6188C19.9266 11.9235 21.2672 12.2282 22.6688 12.2282C25.8984 12.2282 28.0312 10.7047 28.0312 8.38909C28.0312 7.1094 27.2391 6.1344 25.4109 5.34221C24.3141 4.79377 23.6437 4.48909 23.6437 3.94065C23.6437 3.45315 24.1922 2.96565 25.4109 2.96565C26.4469 2.96565 27.1781 3.14846 27.7266 3.39221L28.0312 3.51409L28.5187 1.13753Z" fill="white"/>
<path id="Vector_5" d="M33.7592 1.01562C33.0279 1.01562 32.4795 1.07656 32.1748 1.80781L27.6045 11.9844H30.8951L31.5045 10.1562H35.4045L35.7701 11.9844H38.6951L36.1357 1.01562H33.7592ZM32.3576 8.32812C32.5404 7.77969 33.5764 5.09844 33.5764 5.09844C33.5764 5.09844 33.8201 4.42812 34.0029 4.00156L34.1857 5.0375C34.1857 5.0375 34.7951 7.77969 34.917 8.38906H32.3576V8.32812Z" fill="white"/>
<path id="Vector_6" d="M34.4904 1.01562C33.7592 1.01562 33.2107 1.07656 32.9061 1.80781L27.6045 11.9844H30.8951L31.5045 10.1562H35.4045L35.7701 11.9844H38.6951L36.1357 1.01562H34.4904ZM32.3576 8.32812C32.6014 7.71875 33.5764 5.09844 33.5764 5.09844C33.5764 5.09844 33.8201 4.42812 34.0029 4.00156L34.1857 5.0375C34.1857 5.0375 34.7951 7.77969 34.917 8.38906H32.3576V8.32812Z" fill="white"/>
<path id="Vector_7" d="M8.7749 8.69372L8.47021 7.10935C7.92178 5.28123 6.15459 3.27029 4.20459 2.29529L6.94678 12.0453H10.2374L15.1733 1.07654H11.8827L8.7749 8.69372Z" fill="white"/>
<path id="Vector_8" d="M8.7749 8.69372L8.47021 7.10935C7.92178 5.28123 6.15459 3.27029 4.20459 2.29529L6.94678 12.0453H10.2374L15.1733 1.07654H12.4921L8.7749 8.69372Z" fill="white"/>
<path id="Vector_9" d="M0.304688 1.01562L0.853125 1.1375C4.75313 2.05156 7.43437 4.36719 8.47031 7.10938L7.37344 1.92969C7.19063 1.19844 6.64219 1.01562 5.97188 1.01562H0.304688Z" fill="#FFBC00"/>
<path id="Vector_10" d="M0.304688 1.01562C4.20469 1.92969 7.43437 4.30625 8.47031 7.04844L7.43437 2.72187C7.25156 1.99062 6.64219 1.56406 5.97188 1.56406L0.304688 1.01562Z" fill="#F7981D"/>
<path id="Vector_11" d="M0.304688 1.01562C4.20469 1.92969 7.43437 4.30625 8.47031 7.04844L7.73906 4.67188C7.55625 3.94062 7.3125 3.20938 6.45938 2.90469L0.304688 1.01562Z" fill="#ED7C00"/>
<path id="Vector_12" d="M11.8219 8.32812L9.75 6.25625L8.775 8.57188L8.53125 7.04844C7.98281 5.22031 6.21563 3.20938 4.26562 2.23438L7.00781 11.9844H10.2984L11.8219 8.32812ZM17.4891 11.9844L14.8687 9.30312L14.3813 11.9844H17.4891ZM24.4969 8.20625C24.7406 8.45 24.8625 8.63281 24.8016 8.87656C24.8016 9.60781 23.8266 9.97344 22.9734 9.97344C21.7547 9.97344 21.0844 9.79063 20.0484 9.36406L19.6219 9.18125L19.1953 11.6797C19.9266 11.9844 21.2672 12.2891 22.6688 12.2891C24.6188 12.2891 26.2031 11.7406 27.1172 10.7656L24.4969 8.20625ZM28.0312 11.9844H30.8953L31.5047 10.1562H35.4047L35.7703 11.9844H38.6953L37.6594 7.53594L34.0031 4.00156L34.1859 4.97656C34.1859 4.97656 34.7953 7.71875 34.9172 8.32812H32.3578C32.6016 7.71875 33.5766 5.09844 33.5766 5.09844C33.5766 5.09844 33.8203 4.42812 34.0031 4.00156" fill="white"/>
</g>
</svg>
